<?xml version="1.0" encoding="utf-8" standalone="no"?>
<!DOCTYPE svg PUBLIC "-//W3C//DTD SVG 1.1//EN"
  "http://www.w3.org/Graphics/SVG/1.1/DTD/svg11.dtd">
<!-- Created with matplotlib (https://matplotlib.org/) -->
<svg height="720pt" version="1.1" viewBox="0 0 720 720" width="720pt" xmlns="http://www.w3.org/2000/svg" xmlns:xlink="http://www.w3.org/1999/xlink">
 <metadata>
  <rdf:RDF xmlns:cc="http://creativecommons.org/ns#" xmlns:dc="http://purl.org/dc/elements/1.1/" xmlns:rdf="http://www.w3.org/1999/02/22-rdf-syntax-ns#">
   <cc:Work>
    <dc:type rdf:resource="http://purl.org/dc/dcmitype/StillImage"/>
    <dc:date>2021-03-24T12:55:56.292422</dc:date>
    <dc:format>image/svg+xml</dc:format>
    <dc:creator>
     <cc:Agent>
      <dc:title>Matplotlib v3.3.4, https://matplotlib.org/</dc:title>
     </cc:Agent>
    </dc:creator>
   </cc:Work>
  </rdf:RDF>
 </metadata>
 <defs>
  <style type="text/css">*{stroke-linecap:butt;stroke-linejoin:round;}</style>
 </defs>
 <g id="figure_1">
  <g id="patch_1">
   <path d="M 0 720 
L 720 720 
L 720 0 
L 0 0 
z
" style="fill:#ffffff;"/>
  </g>
  <g id="axes_1">
   <g id="patch_2">
    <path d="M 90 338.4 
L 343.636364 338.4 
L 343.636364 86.4 
L 90 86.4 
z
" style="fill:#ffffff;"/>
   </g>
   <g id="PolyCollection_1">
    <defs>
     <path d="M 154.598969 -394.778534 
L 154.598969 -622.145455 
L 165.669527 -598.935667 
L 176.72766 -544.868949 
L 188.040595 -533.166536 
L 210.416841 -493.985 
L 232.288655 -421.043797 
L 277.295949 -414.293901 
L 321.805047 -393.054545 
L 321.805047 -394.778534 
L 321.805047 -394.778534 
L 277.295949 -394.778534 
L 232.288655 -394.778534 
L 210.416841 -394.778534 
L 188.040595 -394.778534 
L 176.72766 -394.778534 
L 165.669527 -394.778534 
L 154.598969 -394.778534 
z
" id="me8d651a073" style="stroke:#ff8c00;stroke-opacity:0.4;"/>
    </defs>
    <g clip-path="url(#p9b1ab970fe)">
     <use style="fill:#ff8c00;fill-opacity:0.4;stroke:#ff8c00;stroke-opacity:0.4;" x="0" xlink:href="#me8d651a073" y="720"/>
    </g>
   </g>
   <g id="matplotlib.axis_1">
    <g id="xtick_1">
     <g id="line2d_1">
      <defs>
       <path d="M 0 0 
L 0 3.5 
" id="m85dbc77f89" style="stroke:#000000;stroke-width:0.8;"/>
      </defs>
      <g>
       <use style="stroke:#000000;stroke-width:0.8;" x="103.491883" xlink:href="#m85dbc77f89" y="338.4"/>
      </g>
     </g>
    </g>
    <g id="xtick_2">
     <g id="line2d_2">
      <g>
       <use style="stroke:#000000;stroke-width:0.8;" x="148.09315" xlink:href="#m85dbc77f89" y="338.4"/>
      </g>
     </g>
    </g>
    <g id="xtick_3">
     <g id="line2d_3">
      <g>
       <use style="stroke:#000000;stroke-width:0.8;" x="192.694416" xlink:href="#m85dbc77f89" y="338.4"/>
      </g>
     </g>
    </g>
    <g id="xtick_4">
     <g id="line2d_4">
      <g>
       <use style="stroke:#000000;stroke-width:0.8;" x="237.295683" xlink:href="#m85dbc77f89" y="338.4"/>
      </g>
     </g>
    </g>
    <g id="xtick_5">
     <g id="line2d_5">
      <g>
       <use style="stroke:#000000;stroke-width:0.8;" x="281.896949" xlink:href="#m85dbc77f89" y="338.4"/>
      </g>
     </g>
    </g>
    <g id="xtick_6">
     <g id="line2d_6">
      <g>
       <use style="stroke:#000000;stroke-width:0.8;" x="326.498215" xlink:href="#m85dbc77f89" y="338.4"/>
      </g>
     </g>
    </g>
   </g>
   <g id="matplotlib.axis_2">
    <g id="ytick_1">
     <g id="line2d_7">
      <defs>
       <path d="M 0 0 
L -3.5 0 
" id="m27e31106cc" style="stroke:#000000;stroke-width:0.8;"/>
      </defs>
      <g>
       <use style="stroke:#000000;stroke-width:0.8;" x="90" xlink:href="#m27e31106cc" y="325.221466"/>
      </g>
     </g>
     <g id="text_1">
      <!-- 0.0 -->
      <g transform="translate(67.096875 329.020684)scale(0.1 -0.1)">
       <defs>
        <path d="M 31.78125 66.40625 
Q 24.171875 66.40625 20.328125 58.90625 
Q 16.5 51.421875 16.5 36.375 
Q 16.5 21.390625 20.328125 13.890625 
Q 24.171875 6.390625 31.78125 6.390625 
Q 39.453125 6.390625 43.28125 13.890625 
Q 47.125 21.390625 47.125 36.375 
Q 47.125 51.421875 43.28125 58.90625 
Q 39.453125 66.40625 31.78125 66.40625 
z
M 31.78125 74.21875 
Q 44.046875 74.21875 50.515625 64.515625 
Q 56.984375 54.828125 56.984375 36.375 
Q 56.984375 17.96875 50.515625 8.265625 
Q 44.046875 -1.421875 31.78125 -1.421875 
Q 19.53125 -1.421875 13.0625 8.265625 
Q 6.59375 17.96875 6.59375 36.375 
Q 6.59375 54.828125 13.0625 64.515625 
Q 19.53125 74.21875 31.78125 74.21875 
z
" id="DejaVuSans-48"/>
        <path d="M 10.6875 12.40625 
L 21 12.40625 
L 21 0 
L 10.6875 0 
z
" id="DejaVuSans-46"/>
       </defs>
       <use xlink:href="#DejaVuSans-48"/>
       <use x="63.623047" xlink:href="#DejaVuSans-46"/>
       <use x="95.410156" xlink:href="#DejaVuSans-48"/>
      </g>
     </g>
    </g>
    <g id="ytick_2">
     <g id="line2d_8">
      <g>
       <use style="stroke:#000000;stroke-width:0.8;" x="90" xlink:href="#m27e31106cc" y="290.185182"/>
      </g>
     </g>
     <g id="text_2">
      <!-- 0.1 -->
      <g transform="translate(67.096875 293.984401)scale(0.1 -0.1)">
       <defs>
        <path d="M 12.40625 8.296875 
L 28.515625 8.296875 
L 28.515625 63.921875 
L 10.984375 60.40625 
L 10.984375 69.390625 
L 28.421875 72.90625 
L 38.28125 72.90625 
L 38.28125 8.296875 
L 54.390625 8.296875 
L 54.390625 0 
L 12.40625 0 
z
" id="DejaVuSans-49"/>
       </defs>
       <use xlink:href="#DejaVuSans-48"/>
       <use x="63.623047" xlink:href="#DejaVuSans-46"/>
       <use x="95.410156" xlink:href="#DejaVuSans-49"/>
      </g>
     </g>
    </g>
    <g id="ytick_3">
     <g id="line2d_9">
      <g>
       <use style="stroke:#000000;stroke-width:0.8;" x="90" xlink:href="#m27e31106cc" y="255.148899"/>
      </g>
     </g>
     <g id="text_3">
      <!-- 0.2 -->
      <g transform="translate(67.096875 258.948118)scale(0.1 -0.1)">
       <defs>
        <path d="M 19.1875 8.296875 
L 53.609375 8.296875 
L 53.609375 0 
L 7.328125 0 
L 7.328125 8.296875 
Q 12.9375 14.109375 22.625 23.890625 
Q 32.328125 33.6875 34.8125 36.53125 
Q 39.546875 41.84375 41.421875 45.53125 
Q 43.3125 49.21875 43.3125 52.78125 
Q 43.3125 58.59375 39.234375 62.25 
Q 35.15625 65.921875 28.609375 65.921875 
Q 23.96875 65.921875 18.8125 64.3125 
Q 13.671875 62.703125 7.8125 59.421875 
L 7.8125 69.390625 
Q 13.765625 71.78125 18.9375 73 
Q 24.125 74.21875 28.421875 74.21875 
Q 39.75 74.21875 46.484375 68.546875 
Q 53.21875 62.890625 53.21875 53.421875 
Q 53.21875 48.921875 51.53125 44.890625 
Q 49.859375 40.875 45.40625 35.40625 
Q 44.1875 33.984375 37.640625 27.21875 
Q 31.109375 20.453125 19.1875 8.296875 
z
" id="DejaVuSans-50"/>
       </defs>
       <use xlink:href="#DejaVuSans-48"/>
       <use x="63.623047" xlink:href="#DejaVuSans-46"/>
       <use x="95.410156" xlink:href="#DejaVuSans-50"/>
      </g>
     </g>
    </g>
    <g id="ytick_4">
     <g id="line2d_10">
      <g>
       <use style="stroke:#000000;stroke-width:0.8;" x="90" xlink:href="#m27e31106cc" y="220.112616"/>
      </g>
     </g>
     <g id="text_4">
      <!-- 0.3 -->
      <g transform="translate(67.096875 223.911835)scale(0.1 -0.1)">
       <defs>
        <path d="M 40.578125 39.3125 
Q 47.65625 37.796875 51.625 33 
Q 55.609375 28.21875 55.609375 21.1875 
Q 55.609375 10.40625 48.1875 4.484375 
Q 40.765625 -1.421875 27.09375 -1.421875 
Q 22.515625 -1.421875 17.65625 -0.515625 
Q 12.796875 0.390625 7.625 2.203125 
L 7.625 11.71875 
Q 11.71875 9.328125 16.59375 8.109375 
Q 21.484375 6.890625 26.8125 6.890625 
Q 36.078125 6.890625 40.9375 10.546875 
Q 45.796875 14.203125 45.796875 21.1875 
Q 45.796875 27.640625 41.28125 31.265625 
Q 36.765625 34.90625 28.71875 34.90625 
L 20.21875 34.90625 
L 20.21875 43.015625 
L 29.109375 43.015625 
Q 36.375 43.015625 40.234375 45.921875 
Q 44.09375 48.828125 44.09375 54.296875 
Q 44.09375 59.90625 40.109375 62.90625 
Q 36.140625 65.921875 28.71875 65.921875 
Q 24.65625 65.921875 20.015625 65.03125 
Q 15.375 64.15625 9.8125 62.3125 
L 9.8125 71.09375 
Q 15.4375 72.65625 20.34375 73.4375 
Q 25.25 74.21875 29.59375 74.21875 
Q 40.828125 74.21875 47.359375 69.109375 
Q 53.90625 64.015625 53.90625 55.328125 
Q 53.90625 49.265625 50.4375 45.09375 
Q 46.96875 40.921875 40.578125 39.3125 
z
" id="DejaVuSans-51"/>
       </defs>
       <use xlink:href="#DejaVuSans-48"/>
       <use x="63.623047" xlink:href="#DejaVuSans-46"/>
       <use x="95.410156" xlink:href="#DejaVuSans-51"/>
      </g>
     </g>
    </g>
    <g id="ytick_5">
     <g id="line2d_11">
      <g>
       <use style="stroke:#000000;stroke-width:0.8;" x="90" xlink:href="#m27e31106cc" y="185.076333"/>
      </g>
     </g>
     <g id="text_5">
      <!-- 0.4 -->
      <g transform="translate(67.096875 188.875552)scale(0.1 -0.1)">
       <defs>
        <path d="M 37.796875 64.3125 
L 12.890625 25.390625 
L 37.796875 25.390625 
z
M 35.203125 72.90625 
L 47.609375 72.90625 
L 47.609375 25.390625 
L 58.015625 25.390625 
L 58.015625 17.1875 
L 47.609375 17.1875 
L 47.609375 0 
L 37.796875 0 
L 37.796875 17.1875 
L 4.890625 17.1875 
L 4.890625 26.703125 
z
" id="DejaVuSans-52"/>
       </defs>
       <use xlink:href="#DejaVuSans-48"/>
       <use x="63.623047" xlink:href="#DejaVuSans-46"/>
       <use x="95.410156" xlink:href="#DejaVuSans-52"/>
      </g>
     </g>
    </g>
    <g id="ytick_6">
     <g id="line2d_12">
      <g>
       <use style="stroke:#000000;stroke-width:0.8;" x="90" xlink:href="#m27e31106cc" y="150.04005"/>
      </g>
     </g>
     <g id="text_6">
      <!-- 0.5 -->
      <g transform="translate(67.096875 153.839268)scale(0.1 -0.1)">
       <defs>
        <path d="M 10.796875 72.90625 
L 49.515625 72.90625 
L 49.515625 64.59375 
L 19.828125 64.59375 
L 19.828125 46.734375 
Q 21.96875 47.46875 24.109375 47.828125 
Q 26.265625 48.1875 28.421875 48.1875 
Q 40.625 48.1875 47.75 41.5 
Q 54.890625 34.8125 54.890625 23.390625 
Q 54.890625 11.625 47.5625 5.09375 
Q 40.234375 -1.421875 26.90625 -1.421875 
Q 22.3125 -1.421875 17.546875 -0.640625 
Q 12.796875 0.140625 7.71875 1.703125 
L 7.71875 11.625 
Q 12.109375 9.234375 16.796875 8.0625 
Q 21.484375 6.890625 26.703125 6.890625 
Q 35.15625 6.890625 40.078125 11.328125 
Q 45.015625 15.765625 45.015625 23.390625 
Q 45.015625 31 40.078125 35.4375 
Q 35.15625 39.890625 26.703125 39.890625 
Q 22.75 39.890625 18.8125 39.015625 
Q 14.890625 38.140625 10.796875 36.28125 
z
" id="DejaVuSans-53"/>
       </defs>
       <use xlink:href="#DejaVuSans-48"/>
       <use x="63.623047" xlink:href="#DejaVuSans-46"/>
       <use x="95.410156" xlink:href="#DejaVuSans-53"/>
      </g>
     </g>
    </g>
    <g id="ytick_7">
     <g id="line2d_13">
      <g>
       <use style="stroke:#000000;stroke-width:0.8;" x="90" xlink:href="#m27e31106cc" y="115.003766"/>
      </g>
     </g>
     <g id="text_7">
      <!-- 0.6 -->
      <g transform="translate(67.096875 118.802985)scale(0.1 -0.1)">
       <defs>
        <path d="M 33.015625 40.375 
Q 26.375 40.375 22.484375 35.828125 
Q 18.609375 31.296875 18.609375 23.390625 
Q 18.609375 15.53125 22.484375 10.953125 
Q 26.375 6.390625 33.015625 6.390625 
Q 39.65625 6.390625 43.53125 10.953125 
Q 47.40625 15.53125 47.40625 23.390625 
Q 47.40625 31.296875 43.53125 35.828125 
Q 39.65625 40.375 33.015625 40.375 
z
M 52.59375 71.296875 
L 52.59375 62.3125 
Q 48.875 64.0625 45.09375 64.984375 
Q 41.3125 65.921875 37.59375 65.921875 
Q 27.828125 65.921875 22.671875 59.328125 
Q 17.53125 52.734375 16.796875 39.40625 
Q 19.671875 43.65625 24.015625 45.921875 
Q 28.375 48.1875 33.59375 48.1875 
Q 44.578125 48.1875 50.953125 41.515625 
Q 57.328125 34.859375 57.328125 23.390625 
Q 57.328125 12.15625 50.6875 5.359375 
Q 44.046875 -1.421875 33.015625 -1.421875 
Q 20.359375 -1.421875 13.671875 8.265625 
Q 6.984375 17.96875 6.984375 36.375 
Q 6.984375 53.65625 15.1875 63.9375 
Q 23.390625 74.21875 37.203125 74.21875 
Q 40.921875 74.21875 44.703125 73.484375 
Q 48.484375 72.75 52.59375 71.296875 
z
" id="DejaVuSans-54"/>
       </defs>
       <use xlink:href="#DejaVuSans-48"/>
       <use x="63.623047" xlink:href="#DejaVuSans-46"/>
       <use x="95.410156" xlink:href="#DejaVuSans-54"/>
      </g>
     </g>
    </g>
    <g id="text_8">
     <!-- [Car_icg] -->
     <g transform="translate(60.2675 242.204062)rotate(-90)scale(0.12 -0.12)">
      <defs>
       <path d="M 8.59375 75.984375 
L 38.921875 75.984375 
L 38.921875 64.984375 
L 25.203125 64.984375 
L 25.203125 -2.203125 
L 38.921875 -2.203125 
L 38.921875 -13.1875 
L 8.59375 -13.1875 
z
" id="DejaVuSans-Bold-91"/>
       <path d="M 67 4 
Q 61.8125 1.3125 56.203125 -0.046875 
Q 50.59375 -1.421875 44.484375 -1.421875 
Q 26.265625 -1.421875 15.625 8.765625 
Q 4.984375 18.953125 4.984375 36.375 
Q 4.984375 53.859375 15.625 64.03125 
Q 26.265625 74.21875 44.484375 74.21875 
Q 50.59375 74.21875 56.203125 72.84375 
Q 61.8125 71.484375 67 68.796875 
L 67 53.71875 
Q 61.765625 57.28125 56.6875 58.9375 
Q 51.609375 60.59375 46 60.59375 
Q 35.9375 60.59375 30.171875 54.140625 
Q 24.421875 47.703125 24.421875 36.375 
Q 24.421875 25.09375 30.171875 18.640625 
Q 35.9375 12.203125 46 12.203125 
Q 51.609375 12.203125 56.6875 13.859375 
Q 61.765625 15.53125 67 19.09375 
z
" id="DejaVuSans-Bold-67"/>
       <path d="M 32.90625 24.609375 
Q 27.4375 24.609375 24.671875 22.75 
Q 21.921875 20.90625 21.921875 17.28125 
Q 21.921875 13.96875 24.140625 12.078125 
Q 26.375 10.203125 30.328125 10.203125 
Q 35.25 10.203125 38.625 13.734375 
Q 42 17.28125 42 22.609375 
L 42 24.609375 
z
M 59.625 31.203125 
L 59.625 0 
L 42 0 
L 42 8.109375 
Q 38.484375 3.125 34.078125 0.84375 
Q 29.6875 -1.421875 23.390625 -1.421875 
Q 14.890625 -1.421875 9.59375 3.53125 
Q 4.296875 8.5 4.296875 16.40625 
Q 4.296875 26.03125 10.90625 30.515625 
Q 17.53125 35.015625 31.6875 35.015625 
L 42 35.015625 
L 42 36.375 
Q 42 40.53125 38.71875 42.453125 
Q 35.453125 44.390625 28.515625 44.390625 
Q 22.90625 44.390625 18.0625 43.265625 
Q 13.234375 42.140625 9.078125 39.890625 
L 9.078125 53.21875 
Q 14.703125 54.59375 20.359375 55.296875 
Q 26.03125 56 31.6875 56 
Q 46.484375 56 53.046875 50.171875 
Q 59.625 44.34375 59.625 31.203125 
z
" id="DejaVuSans-Bold-97"/>
       <path d="M 49.03125 39.796875 
Q 46.734375 40.875 44.453125 41.375 
Q 42.1875 41.890625 39.890625 41.890625 
Q 33.15625 41.890625 29.515625 37.5625 
Q 25.875 33.25 25.875 25.203125 
L 25.875 0 
L 8.40625 0 
L 8.40625 54.6875 
L 25.875 54.6875 
L 25.875 45.703125 
Q 29.25 51.078125 33.609375 53.53125 
Q 37.984375 56 44.09375 56 
Q 44.96875 56 45.984375 55.921875 
Q 47.015625 55.859375 48.96875 55.609375 
z
" id="DejaVuSans-Bold-114"/>
       <path d="M 50 -14.3125 
L 50 -23.578125 
L 0 -23.578125 
L 0 -14.3125 
z
" id="DejaVuSans-Bold-95"/>
       <path d="M 8.40625 54.6875 
L 25.875 54.6875 
L 25.875 0 
L 8.40625 0 
z
M 8.40625 75.984375 
L 25.875 75.984375 
L 25.875 61.71875 
L 8.40625 61.71875 
z
" id="DejaVuSans-Bold-105"/>
       <path d="M 52.59375 52.984375 
L 52.59375 38.71875 
Q 49.03125 41.15625 45.4375 42.328125 
Q 41.84375 43.5 37.984375 43.5 
Q 30.671875 43.5 26.59375 39.234375 
Q 22.515625 34.96875 22.515625 27.296875 
Q 22.515625 19.625 26.59375 15.34375 
Q 30.671875 11.078125 37.984375 11.078125 
Q 42.09375 11.078125 45.78125 12.296875 
Q 49.46875 13.53125 52.59375 15.921875 
L 52.59375 1.609375 
Q 48.484375 0.09375 44.265625 -0.65625 
Q 40.046875 -1.421875 35.796875 -1.421875 
Q 21 -1.421875 12.640625 6.171875 
Q 4.296875 13.765625 4.296875 27.296875 
Q 4.296875 40.828125 12.640625 48.40625 
Q 21 56 35.796875 56 
Q 40.09375 56 44.265625 55.25 
Q 48.4375 54.5 52.59375 52.984375 
z
" id="DejaVuSans-Bold-99"/>
       <path d="M 45.609375 9.28125 
Q 42 4.5 37.640625 2.25 
Q 33.296875 0 27.59375 0 
Q 17.578125 0 11.03125 7.875 
Q 4.5 15.765625 4.5 27.984375 
Q 4.5 40.234375 11.03125 48.0625 
Q 17.578125 55.90625 27.59375 55.90625 
Q 33.296875 55.90625 37.640625 53.65625 
Q 42 51.421875 45.609375 46.578125 
L 45.609375 54.6875 
L 63.1875 54.6875 
L 63.1875 5.515625 
Q 63.1875 -7.671875 54.859375 -14.625 
Q 46.53125 -21.578125 30.71875 -21.578125 
Q 25.59375 -21.578125 20.796875 -20.796875 
Q 16.015625 -20.015625 11.1875 -18.40625 
L 11.1875 -4.78125 
Q 15.765625 -7.421875 20.15625 -8.71875 
Q 24.5625 -10.015625 29 -10.015625 
Q 37.59375 -10.015625 41.59375 -6.25 
Q 45.609375 -2.484375 45.609375 5.515625 
z
M 34.078125 43.3125 
Q 28.65625 43.3125 25.625 39.296875 
Q 22.609375 35.296875 22.609375 27.984375 
Q 22.609375 20.453125 25.53125 16.578125 
Q 28.46875 12.703125 34.078125 12.703125 
Q 39.546875 12.703125 42.578125 16.703125 
Q 45.609375 20.703125 45.609375 27.984375 
Q 45.609375 35.296875 42.578125 39.296875 
Q 39.546875 43.3125 34.078125 43.3125 
z
" id="DejaVuSans-Bold-103"/>
       <path d="M 37.109375 -13.1875 
L 6.78125 -13.1875 
L 6.78125 -2.203125 
L 20.515625 -2.203125 
L 20.515625 64.984375 
L 6.78125 64.984375 
L 6.78125 75.984375 
L 37.109375 75.984375 
z
" id="DejaVuSans-Bold-93"/>
      </defs>
      <use xlink:href="#DejaVuSans-Bold-91"/>
      <use x="45.703125" xlink:href="#DejaVuSans-Bold-67"/>
      <use x="119.091797" xlink:href="#DejaVuSans-Bold-97"/>
      <use x="186.572266" xlink:href="#DejaVuSans-Bold-114"/>
      <use x="235.888672" xlink:href="#DejaVuSans-Bold-95"/>
      <use x="285.888672" xlink:href="#DejaVuSans-Bold-105"/>
      <use x="320.166016" xlink:href="#DejaVuSans-Bold-99"/>
      <use x="379.443359" xlink:href="#DejaVuSans-Bold-103"/>
      <use x="451.025391" xlink:href="#DejaVuSans-Bold-93"/>
     </g>
    </g>
   </g>
   <g id="line2d_14">
    <path clip-path="url(#p9b1ab970fe)" d="M 90 325.221466 
L 343.636364 325.221466 
" style="fill:none;stroke:#000000;stroke-linecap:square;stroke-width:1.5;"/>
   </g>
   <g id="line2d_15">
    <defs>
     <path d="M 0 3 
C 0.795609 3 1.55874 2.683901 2.12132 2.12132 
C 2.683901 1.55874 3 0.795609 3 0 
C 3 -0.795609 2.683901 -1.55874 2.12132 -2.12132 
C 1.55874 -2.683901 0.795609 -3 0 -3 
C -0.795609 -3 -1.55874 -2.683901 -2.12132 -2.12132 
C -2.683901 -1.55874 -3 -0.795609 -3 0 
C -3 0.795609 -2.683901 1.55874 -2.12132 2.12132 
C -1.55874 2.683901 -0.795609 3 0 3 
z
" id="m868e316b8c" style="stroke:#ff8c00;"/>
    </defs>
    <g clip-path="url(#p9b1ab970fe)">
     <use style="fill:#ff8c00;stroke:#ff8c00;" x="154.598969" xlink:href="#m868e316b8c" y="97.854545"/>
     <use style="fill:#ff8c00;stroke:#ff8c00;" x="165.669527" xlink:href="#m868e316b8c" y="121.064333"/>
     <use style="fill:#ff8c00;stroke:#ff8c00;" x="176.72766" xlink:href="#m868e316b8c" y="175.131051"/>
     <use style="fill:#ff8c00;stroke:#ff8c00;" x="188.040595" xlink:href="#m868e316b8c" y="186.833464"/>
     <use style="fill:#ff8c00;stroke:#ff8c00;" x="210.416841" xlink:href="#m868e316b8c" y="226.015"/>
     <use style="fill:#ff8c00;stroke:#ff8c00;" x="232.288655" xlink:href="#m868e316b8c" y="298.956203"/>
     <use style="fill:#ff8c00;stroke:#ff8c00;" x="277.295949" xlink:href="#m868e316b8c" y="305.706099"/>
     <use style="fill:#ff8c00;stroke:#ff8c00;" x="321.805047" xlink:href="#m868e316b8c" y="326.945455"/>
    </g>
   </g>
   <g id="line2d_16">
    <path clip-path="url(#p9b1ab970fe)" d="M 101.26182 325.221466 
L 102.202776 325.114378 
L 103.748801 324.671209 
L 106.138307 324.077087 
L 108.213325 323.793244 
L 110.870491 323.669936 
L 115.59434 323.720194 
L 133.770201 324.009341 
L 181.587463 324.449418 
L 242.863505 324.790089 
L 326.498215 325.027099 
L 326.498215 325.027099 
" style="fill:none;stroke:#0000ff;stroke-linecap:square;stroke-width:1.5;"/>
   </g>
   <g id="line2d_17">
    <defs>
     <path d="M 0 3 
C 0.795609 3 1.55874 2.683901 2.12132 2.12132 
C 2.683901 1.55874 3 0.795609 3 0 
C 3 -0.795609 2.683901 -1.55874 2.12132 -2.12132 
C 1.55874 -2.683901 0.795609 -3 0 -3 
C -0.795609 -3 -1.55874 -2.683901 -2.12132 -2.12132 
C -2.683901 -1.55874 -3 -0.795609 -3 0 
C -3 0.795609 -2.683901 1.55874 -2.12132 2.12132 
C -1.55874 2.683901 -0.795609 3 0 3 
z
" id="m6b0ed336f1" style="stroke:#0000ff;"/>
    </defs>
    <g clip-path="url(#p9b1ab970fe)">
     <use style="fill:#0000ff;stroke:#0000ff;" x="154.598969" xlink:href="#m6b0ed336f1" y="324.22526"/>
     <use style="fill:#0000ff;stroke:#0000ff;" x="165.669527" xlink:href="#m6b0ed336f1" y="324.324022"/>
     <use style="fill:#0000ff;stroke:#0000ff;" x="176.72766" xlink:href="#m6b0ed336f1" y="324.413006"/>
     <use style="fill:#0000ff;stroke:#0000ff;" x="188.040595" xlink:href="#m6b0ed336f1" y="324.495042"/>
     <use style="fill:#0000ff;stroke:#0000ff;" x="210.416841" xlink:href="#m6b0ed336f1" y="324.634049"/>
     <use style="fill:#0000ff;stroke:#0000ff;" x="232.288655" xlink:href="#m6b0ed336f1" y="324.744181"/>
     <use style="fill:#0000ff;stroke:#0000ff;" x="277.295949" xlink:href="#m6b0ed336f1" y="324.909863"/>
     <use style="fill:#0000ff;stroke:#0000ff;" x="321.805047" xlink:href="#m6b0ed336f1" y="325.01835"/>
    </g>
   </g>
   <g id="line2d_18">
    <defs>
     <path d="M -3 3 
L 3 3 
L 3 -3 
L -3 -3 
z
" id="mf2384daa59" style="stroke:#000000;stroke-linejoin:miter;"/>
    </defs>
    <g clip-path="url(#p9b1ab970fe)">
     <use style="stroke:#000000;stroke-linejoin:miter;" x="154.598969" xlink:href="#mf2384daa59" y="324.535841"/>
     <use style="stroke:#000000;stroke-linejoin:miter;" x="165.669527" xlink:href="#mf2384daa59" y="324.602899"/>
     <use style="stroke:#000000;stroke-linejoin:miter;" x="176.72766" xlink:href="#mf2384daa59" y="324.618028"/>
     <use style="stroke:#000000;stroke-linejoin:miter;" x="188.040595" xlink:href="#mf2384daa59" y="324.684078"/>
     <use style="stroke:#000000;stroke-linejoin:miter;" x="210.416841" xlink:href="#mf2384daa59" y="324.769564"/>
     <use style="stroke:#000000;stroke-linejoin:miter;" x="232.288655" xlink:href="#mf2384daa59" y="324.780059"/>
     <use style="stroke:#000000;stroke-linejoin:miter;" x="277.295949" xlink:href="#mf2384daa59" y="324.936521"/>
     <use style="stroke:#000000;stroke-linejoin:miter;" x="321.805047" xlink:href="#mf2384daa59" y="325.015995"/>
    </g>
   </g>
   <g id="patch_3">
    <path d="M 90 338.4 
L 90 86.4 
" style="fill:none;stroke:#000000;stroke-linecap:square;stroke-linejoin:miter;stroke-width:0.8;"/>
   </g>
   <g id="patch_4">
    <path d="M 343.636364 338.4 
L 343.636364 86.4 
" style="fill:none;stroke:#000000;stroke-linecap:square;stroke-linejoin:miter;stroke-width:0.8;"/>
   </g>
   <g id="patch_5">
    <path d="M 90 338.4 
L 343.636364 338.4 
" style="fill:none;stroke:#000000;stroke-linecap:square;stroke-linejoin:miter;stroke-width:0.8;"/>
   </g>
   <g id="patch_6">
    <path d="M 90 86.4 
L 343.636364 86.4 
" style="fill:none;stroke:#000000;stroke-linecap:square;stroke-linejoin:miter;stroke-width:0.8;"/>
   </g>
   <g id="text_9">
    <!-- Niemann2000.fm_Car_icg_individual -->
    <g transform="translate(89.261776 80.4)scale(0.14 -0.14)">
     <defs>
      <path d="M 9.8125 72.90625 
L 23.09375 72.90625 
L 55.421875 11.921875 
L 55.421875 72.90625 
L 64.984375 72.90625 
L 64.984375 0 
L 51.703125 0 
L 19.390625 60.984375 
L 19.390625 0 
L 9.8125 0 
z
" id="DejaVuSans-78"/>
      <path d="M 9.421875 54.6875 
L 18.40625 54.6875 
L 18.40625 0 
L 9.421875 0 
z
M 9.421875 75.984375 
L 18.40625 75.984375 
L 18.40625 64.59375 
L 9.421875 64.59375 
z
" id="DejaVuSans-105"/>
      <path d="M 56.203125 29.59375 
L 56.203125 25.203125 
L 14.890625 25.203125 
Q 15.484375 15.921875 20.484375 11.0625 
Q 25.484375 6.203125 34.421875 6.203125 
Q 39.59375 6.203125 44.453125 7.46875 
Q 49.3125 8.734375 54.109375 11.28125 
L 54.109375 2.78125 
Q 49.265625 0.734375 44.1875 -0.34375 
Q 39.109375 -1.421875 33.890625 -1.421875 
Q 20.796875 -1.421875 13.15625 6.1875 
Q 5.515625 13.8125 5.515625 26.8125 
Q 5.515625 40.234375 12.765625 48.109375 
Q 20.015625 56 32.328125 56 
Q 43.359375 56 49.78125 48.890625 
Q 56.203125 41.796875 56.203125 29.59375 
z
M 47.21875 32.234375 
Q 47.125 39.59375 43.09375 43.984375 
Q 39.0625 48.390625 32.421875 48.390625 
Q 24.90625 48.390625 20.390625 44.140625 
Q 15.875 39.890625 15.1875 32.171875 
z
" id="DejaVuSans-101"/>
      <path d="M 52 44.1875 
Q 55.375 50.25 60.0625 53.125 
Q 64.75 56 71.09375 56 
Q 79.640625 56 84.28125 50.015625 
Q 88.921875 44.046875 88.921875 33.015625 
L 88.921875 0 
L 79.890625 0 
L 79.890625 32.71875 
Q 79.890625 40.578125 77.09375 44.375 
Q 74.3125 48.1875 68.609375 48.1875 
Q 61.625 48.1875 57.5625 43.546875 
Q 53.515625 38.921875 53.515625 30.90625 
L 53.515625 0 
L 44.484375 0 
L 44.484375 32.71875 
Q 44.484375 40.625 41.703125 44.40625 
Q 38.921875 48.1875 33.109375 48.1875 
Q 26.21875 48.1875 22.15625 43.53125 
Q 18.109375 38.875 18.109375 30.90625 
L 18.109375 0 
L 9.078125 0 
L 9.078125 54.6875 
L 18.109375 54.6875 
L 18.109375 46.1875 
Q 21.1875 51.21875 25.484375 53.609375 
Q 29.78125 56 35.6875 56 
Q 41.65625 56 45.828125 52.96875 
Q 50 49.953125 52 44.1875 
z
" id="DejaVuSans-109"/>
      <path d="M 34.28125 27.484375 
Q 23.390625 27.484375 19.1875 25 
Q 14.984375 22.515625 14.984375 16.5 
Q 14.984375 11.71875 18.140625 8.90625 
Q 21.296875 6.109375 26.703125 6.109375 
Q 34.1875 6.109375 38.703125 11.40625 
Q 43.21875 16.703125 43.21875 25.484375 
L 43.21875 27.484375 
z
M 52.203125 31.203125 
L 52.203125 0 
L 43.21875 0 
L 43.21875 8.296875 
Q 40.140625 3.328125 35.546875 0.953125 
Q 30.953125 -1.421875 24.3125 -1.421875 
Q 15.921875 -1.421875 10.953125 3.296875 
Q 6 8.015625 6 15.921875 
Q 6 25.140625 12.171875 29.828125 
Q 18.359375 34.515625 30.609375 34.515625 
L 43.21875 34.515625 
L 43.21875 35.40625 
Q 43.21875 41.609375 39.140625 45 
Q 35.0625 48.390625 27.6875 48.390625 
Q 23 48.390625 18.546875 47.265625 
Q 14.109375 46.140625 10.015625 43.890625 
L 10.015625 52.203125 
Q 14.9375 54.109375 19.578125 55.046875 
Q 24.21875 56 28.609375 56 
Q 40.484375 56 46.34375 49.84375 
Q 52.203125 43.703125 52.203125 31.203125 
z
" id="DejaVuSans-97"/>
      <path d="M 54.890625 33.015625 
L 54.890625 0 
L 45.90625 0 
L 45.90625 32.71875 
Q 45.90625 40.484375 42.875 44.328125 
Q 39.84375 48.1875 33.796875 48.1875 
Q 26.515625 48.1875 22.3125 43.546875 
Q 18.109375 38.921875 18.109375 30.90625 
L 18.109375 0 
L 9.078125 0 
L 9.078125 54.6875 
L 18.109375 54.6875 
L 18.109375 46.1875 
Q 21.34375 51.125 25.703125 53.5625 
Q 30.078125 56 35.796875 56 
Q 45.21875 56 50.046875 50.171875 
Q 54.890625 44.34375 54.890625 33.015625 
z
" id="DejaVuSans-110"/>
      <path d="M 37.109375 75.984375 
L 37.109375 68.5 
L 28.515625 68.5 
Q 23.6875 68.5 21.796875 66.546875 
Q 19.921875 64.59375 19.921875 59.515625 
L 19.921875 54.6875 
L 34.71875 54.6875 
L 34.71875 47.703125 
L 19.921875 47.703125 
L 19.921875 0 
L 10.890625 0 
L 10.890625 47.703125 
L 2.296875 47.703125 
L 2.296875 54.6875 
L 10.890625 54.6875 
L 10.890625 58.5 
Q 10.890625 67.625 15.140625 71.796875 
Q 19.390625 75.984375 28.609375 75.984375 
z
" id="DejaVuSans-102"/>
      <path d="M 50.984375 -16.609375 
L 50.984375 -23.578125 
L -0.984375 -23.578125 
L -0.984375 -16.609375 
z
" id="DejaVuSans-95"/>
      <path d="M 64.40625 67.28125 
L 64.40625 56.890625 
Q 59.421875 61.53125 53.78125 63.8125 
Q 48.140625 66.109375 41.796875 66.109375 
Q 29.296875 66.109375 22.65625 58.46875 
Q 16.015625 50.828125 16.015625 36.375 
Q 16.015625 21.96875 22.65625 14.328125 
Q 29.296875 6.6875 41.796875 6.6875 
Q 48.140625 6.6875 53.78125 8.984375 
Q 59.421875 11.28125 64.40625 15.921875 
L 64.40625 5.609375 
Q 59.234375 2.09375 53.4375 0.328125 
Q 47.65625 -1.421875 41.21875 -1.421875 
Q 24.65625 -1.421875 15.125 8.703125 
Q 5.609375 18.84375 5.609375 36.375 
Q 5.609375 53.953125 15.125 64.078125 
Q 24.65625 74.21875 41.21875 74.21875 
Q 47.75 74.21875 53.53125 72.484375 
Q 59.328125 70.75 64.40625 67.28125 
z
" id="DejaVuSans-67"/>
      <path d="M 41.109375 46.296875 
Q 39.59375 47.171875 37.8125 47.578125 
Q 36.03125 48 33.890625 48 
Q 26.265625 48 22.1875 43.046875 
Q 18.109375 38.09375 18.109375 28.8125 
L 18.109375 0 
L 9.078125 0 
L 9.078125 54.6875 
L 18.109375 54.6875 
L 18.109375 46.1875 
Q 20.953125 51.171875 25.484375 53.578125 
Q 30.03125 56 36.53125 56 
Q 37.453125 56 38.578125 55.875 
Q 39.703125 55.765625 41.0625 55.515625 
z
" id="DejaVuSans-114"/>
      <path d="M 48.78125 52.59375 
L 48.78125 44.1875 
Q 44.96875 46.296875 41.140625 47.34375 
Q 37.3125 48.390625 33.40625 48.390625 
Q 24.65625 48.390625 19.8125 42.84375 
Q 14.984375 37.3125 14.984375 27.296875 
Q 14.984375 17.28125 19.8125 11.734375 
Q 24.65625 6.203125 33.40625 6.203125 
Q 37.3125 6.203125 41.140625 7.25 
Q 44.96875 8.296875 48.78125 10.40625 
L 48.78125 2.09375 
Q 45.015625 0.34375 40.984375 -0.53125 
Q 36.96875 -1.421875 32.421875 -1.421875 
Q 20.0625 -1.421875 12.78125 6.34375 
Q 5.515625 14.109375 5.515625 27.296875 
Q 5.515625 40.671875 12.859375 48.328125 
Q 20.21875 56 33.015625 56 
Q 37.15625 56 41.109375 55.140625 
Q 45.0625 54.296875 48.78125 52.59375 
z
" id="DejaVuSans-99"/>
      <path d="M 45.40625 27.984375 
Q 45.40625 37.75 41.375 43.109375 
Q 37.359375 48.484375 30.078125 48.484375 
Q 22.859375 48.484375 18.828125 43.109375 
Q 14.796875 37.75 14.796875 27.984375 
Q 14.796875 18.265625 18.828125 12.890625 
Q 22.859375 7.515625 30.078125 7.515625 
Q 37.359375 7.515625 41.375 12.890625 
Q 45.40625 18.265625 45.40625 27.984375 
z
M 54.390625 6.78125 
Q 54.390625 -7.171875 48.1875 -13.984375 
Q 42 -20.796875 29.203125 -20.796875 
Q 24.46875 -20.796875 20.265625 -20.09375 
Q 16.0625 -19.390625 12.109375 -17.921875 
L 12.109375 -9.1875 
Q 16.0625 -11.328125 19.921875 -12.34375 
Q 23.78125 -13.375 27.78125 -13.375 
Q 36.625 -13.375 41.015625 -8.765625 
Q 45.40625 -4.15625 45.40625 5.171875 
L 45.40625 9.625 
Q 42.625 4.78125 38.28125 2.390625 
Q 33.9375 0 27.875 0 
Q 17.828125 0 11.671875 7.65625 
Q 5.515625 15.328125 5.515625 27.984375 
Q 5.515625 40.671875 11.671875 48.328125 
Q 17.828125 56 27.875 56 
Q 33.9375 56 38.28125 53.609375 
Q 42.625 51.21875 45.40625 46.390625 
L 45.40625 54.6875 
L 54.390625 54.6875 
z
" id="DejaVuSans-103"/>
      <path d="M 45.40625 46.390625 
L 45.40625 75.984375 
L 54.390625 75.984375 
L 54.390625 0 
L 45.40625 0 
L 45.40625 8.203125 
Q 42.578125 3.328125 38.25 0.953125 
Q 33.9375 -1.421875 27.875 -1.421875 
Q 17.96875 -1.421875 11.734375 6.484375 
Q 5.515625 14.40625 5.515625 27.296875 
Q 5.515625 40.1875 11.734375 48.09375 
Q 17.96875 56 27.875 56 
Q 33.9375 56 38.25 53.625 
Q 42.578125 51.265625 45.40625 46.390625 
z
M 14.796875 27.296875 
Q 14.796875 17.390625 18.875 11.75 
Q 22.953125 6.109375 30.078125 6.109375 
Q 37.203125 6.109375 41.296875 11.75 
Q 45.40625 17.390625 45.40625 27.296875 
Q 45.40625 37.203125 41.296875 42.84375 
Q 37.203125 48.484375 30.078125 48.484375 
Q 22.953125 48.484375 18.875 42.84375 
Q 14.796875 37.203125 14.796875 27.296875 
z
" id="DejaVuSans-100"/>
      <path d="M 2.984375 54.6875 
L 12.5 54.6875 
L 29.59375 8.796875 
L 46.6875 54.6875 
L 56.203125 54.6875 
L 35.6875 0 
L 23.484375 0 
z
" id="DejaVuSans-118"/>
      <path d="M 8.5 21.578125 
L 8.5 54.6875 
L 17.484375 54.6875 
L 17.484375 21.921875 
Q 17.484375 14.15625 20.5 10.265625 
Q 23.53125 6.390625 29.59375 6.390625 
Q 36.859375 6.390625 41.078125 11.03125 
Q 45.3125 15.671875 45.3125 23.6875 
L 45.3125 54.6875 
L 54.296875 54.6875 
L 54.296875 0 
L 45.3125 0 
L 45.3125 8.40625 
Q 42.046875 3.421875 37.71875 1 
Q 33.40625 -1.421875 27.6875 -1.421875 
Q 18.265625 -1.421875 13.375 4.4375 
Q 8.5 10.296875 8.5 21.578125 
z
M 31.109375 56 
z
" id="DejaVuSans-117"/>
      <path d="M 9.421875 75.984375 
L 18.40625 75.984375 
L 18.40625 0 
L 9.421875 0 
z
" id="DejaVuSans-108"/>
     </defs>
     <use xlink:href="#DejaVuSans-78"/>
     <use x="74.804688" xlink:href="#DejaVuSans-105"/>
     <use x="102.587891" xlink:href="#DejaVuSans-101"/>
     <use x="164.111328" xlink:href="#DejaVuSans-109"/>
     <use x="261.523438" xlink:href="#DejaVuSans-97"/>
     <use x="322.802734" xlink:href="#DejaVuSans-110"/>
     <use x="386.181641" xlink:href="#DejaVuSans-110"/>
     <use x="449.560547" xlink:href="#DejaVuSans-50"/>
     <use x="513.183594" xlink:href="#DejaVuSans-48"/>
     <use x="576.806641" xlink:href="#DejaVuSans-48"/>
     <use x="640.429688" xlink:href="#DejaVuSans-48"/>
     <use x="704.052734" xlink:href="#DejaVuSans-46"/>
     <use x="735.839844" xlink:href="#DejaVuSans-102"/>
     <use x="771.044922" xlink:href="#DejaVuSans-109"/>
     <use x="868.457031" xlink:href="#DejaVuSans-95"/>
     <use x="918.457031" xlink:href="#DejaVuSans-67"/>
     <use x="988.28125" xlink:href="#DejaVuSans-97"/>
     <use x="1049.560547" xlink:href="#DejaVuSans-114"/>
     <use x="1090.673828" xlink:href="#DejaVuSans-95"/>
     <use x="1140.673828" xlink:href="#DejaVuSans-105"/>
     <use x="1168.457031" xlink:href="#DejaVuSans-99"/>
     <use x="1223.4375" xlink:href="#DejaVuSans-103"/>
     <use x="1286.914062" xlink:href="#DejaVuSans-95"/>
     <use x="1336.914062" xlink:href="#DejaVuSans-105"/>
     <use x="1364.697266" xlink:href="#DejaVuSans-110"/>
     <use x="1428.076172" xlink:href="#DejaVuSans-100"/>
     <use x="1491.552734" xlink:href="#DejaVuSans-105"/>
     <use x="1519.335938" xlink:href="#DejaVuSans-118"/>
     <use x="1578.515625" xlink:href="#DejaVuSans-105"/>
     <use x="1606.298828" xlink:href="#DejaVuSans-100"/>
     <use x="1669.775391" xlink:href="#DejaVuSans-117"/>
     <use x="1733.154297" xlink:href="#DejaVuSans-97"/>
     <use x="1794.433594" xlink:href="#DejaVuSans-108"/>
    </g>
   </g>
   <g id="legend_1">
    <g id="patch_7">
     <path d="M 229.370739 153.390625 
L 336.636364 153.390625 
Q 338.636364 153.390625 338.636364 151.390625 
L 338.636364 93.4 
Q 338.636364 91.4 336.636364 91.4 
L 229.370739 91.4 
Q 227.370739 91.4 227.370739 93.4 
L 227.370739 151.390625 
Q 227.370739 153.390625 229.370739 153.390625 
z
" style="fill:#ffffff;opacity:0.8;stroke:#cccccc;stroke-linejoin:miter;"/>
    </g>
    <g id="line2d_19"/>
    <g id="line2d_20">
     <g>
      <use style="fill:#ff8c00;stroke:#ff8c00;" x="241.370739" xlink:href="#m868e316b8c" y="99.498438"/>
     </g>
    </g>
    <g id="text_10">
     <!-- residuals -->
     <g transform="translate(259.370739 102.998438)scale(0.1 -0.1)">
      <defs>
       <path d="M 44.28125 53.078125 
L 44.28125 44.578125 
Q 40.484375 46.53125 36.375 47.5 
Q 32.28125 48.484375 27.875 48.484375 
Q 21.1875 48.484375 17.84375 46.4375 
Q 14.5 44.390625 14.5 40.28125 
Q 14.5 37.15625 16.890625 35.375 
Q 19.28125 33.59375 26.515625 31.984375 
L 29.59375 31.296875 
Q 39.15625 29.25 43.1875 25.515625 
Q 47.21875 21.78125 47.21875 15.09375 
Q 47.21875 7.46875 41.1875 3.015625 
Q 35.15625 -1.421875 24.609375 -1.421875 
Q 20.21875 -1.421875 15.453125 -0.5625 
Q 10.6875 0.296875 5.421875 2 
L 5.421875 11.28125 
Q 10.40625 8.6875 15.234375 7.390625 
Q 20.0625 6.109375 24.8125 6.109375 
Q 31.15625 6.109375 34.5625 8.28125 
Q 37.984375 10.453125 37.984375 14.40625 
Q 37.984375 18.0625 35.515625 20.015625 
Q 33.0625 21.96875 24.703125 23.78125 
L 21.578125 24.515625 
Q 13.234375 26.265625 9.515625 29.90625 
Q 5.8125 33.546875 5.8125 39.890625 
Q 5.8125 47.609375 11.28125 51.796875 
Q 16.75 56 26.8125 56 
Q 31.78125 56 36.171875 55.265625 
Q 40.578125 54.546875 44.28125 53.078125 
z
" id="DejaVuSans-115"/>
      </defs>
      <use xlink:href="#DejaVuSans-114"/>
      <use x="38.863281" xlink:href="#DejaVuSans-101"/>
      <use x="100.386719" xlink:href="#DejaVuSans-115"/>
      <use x="152.486328" xlink:href="#DejaVuSans-105"/>
      <use x="180.269531" xlink:href="#DejaVuSans-100"/>
      <use x="243.746094" xlink:href="#DejaVuSans-117"/>
      <use x="307.125" xlink:href="#DejaVuSans-97"/>
      <use x="368.404297" xlink:href="#DejaVuSans-108"/>
      <use x="396.1875" xlink:href="#DejaVuSans-115"/>
     </g>
    </g>
    <g id="line2d_21">
     <path d="M 231.370739 114.176563 
L 251.370739 114.176563 
" style="fill:none;stroke:#0000ff;stroke-linecap:square;stroke-width:1.5;"/>
    </g>
    <g id="line2d_22"/>
    <g id="text_11">
     <!-- observable -->
     <g transform="translate(259.370739 117.676563)scale(0.1 -0.1)">
      <defs>
       <path d="M 30.609375 48.390625 
Q 23.390625 48.390625 19.1875 42.75 
Q 14.984375 37.109375 14.984375 27.296875 
Q 14.984375 17.484375 19.15625 11.84375 
Q 23.34375 6.203125 30.609375 6.203125 
Q 37.796875 6.203125 41.984375 11.859375 
Q 46.1875 17.53125 46.1875 27.296875 
Q 46.1875 37.015625 41.984375 42.703125 
Q 37.796875 48.390625 30.609375 48.390625 
z
M 30.609375 56 
Q 42.328125 56 49.015625 48.375 
Q 55.71875 40.765625 55.71875 27.296875 
Q 55.71875 13.875 49.015625 6.21875 
Q 42.328125 -1.421875 30.609375 -1.421875 
Q 18.84375 -1.421875 12.171875 6.21875 
Q 5.515625 13.875 5.515625 27.296875 
Q 5.515625 40.765625 12.171875 48.375 
Q 18.84375 56 30.609375 56 
z
" id="DejaVuSans-111"/>
       <path d="M 48.6875 27.296875 
Q 48.6875 37.203125 44.609375 42.84375 
Q 40.53125 48.484375 33.40625 48.484375 
Q 26.265625 48.484375 22.1875 42.84375 
Q 18.109375 37.203125 18.109375 27.296875 
Q 18.109375 17.390625 22.1875 11.75 
Q 26.265625 6.109375 33.40625 6.109375 
Q 40.53125 6.109375 44.609375 11.75 
Q 48.6875 17.390625 48.6875 27.296875 
z
M 18.109375 46.390625 
Q 20.953125 51.265625 25.265625 53.625 
Q 29.59375 56 35.59375 56 
Q 45.5625 56 51.78125 48.09375 
Q 58.015625 40.1875 58.015625 27.296875 
Q 58.015625 14.40625 51.78125 6.484375 
Q 45.5625 -1.421875 35.59375 -1.421875 
Q 29.59375 -1.421875 25.265625 0.953125 
Q 20.953125 3.328125 18.109375 8.203125 
L 18.109375 0 
L 9.078125 0 
L 9.078125 75.984375 
L 18.109375 75.984375 
z
" id="DejaVuSans-98"/>
      </defs>
      <use xlink:href="#DejaVuSans-111"/>
      <use x="61.181641" xlink:href="#DejaVuSans-98"/>
      <use x="124.658203" xlink:href="#DejaVuSans-115"/>
      <use x="176.757812" xlink:href="#DejaVuSans-101"/>
      <use x="238.28125" xlink:href="#DejaVuSans-114"/>
      <use x="279.394531" xlink:href="#DejaVuSans-118"/>
      <use x="338.574219" xlink:href="#DejaVuSans-97"/>
      <use x="399.853516" xlink:href="#DejaVuSans-98"/>
      <use x="463.330078" xlink:href="#DejaVuSans-108"/>
      <use x="491.113281" xlink:href="#DejaVuSans-101"/>
     </g>
    </g>
    <g id="line2d_23"/>
    <g id="line2d_24">
     <g>
      <use style="fill:#0000ff;stroke:#0000ff;" x="241.370739" xlink:href="#m6b0ed336f1" y="128.854688"/>
     </g>
    </g>
    <g id="text_12">
     <!-- interpolation -->
     <g transform="translate(259.370739 132.354688)scale(0.1 -0.1)">
      <defs>
       <path d="M 18.3125 70.21875 
L 18.3125 54.6875 
L 36.8125 54.6875 
L 36.8125 47.703125 
L 18.3125 47.703125 
L 18.3125 18.015625 
Q 18.3125 11.328125 20.140625 9.421875 
Q 21.96875 7.515625 27.59375 7.515625 
L 36.8125 7.515625 
L 36.8125 0 
L 27.59375 0 
Q 17.1875 0 13.234375 3.875 
Q 9.28125 7.765625 9.28125 18.015625 
L 9.28125 47.703125 
L 2.6875 47.703125 
L 2.6875 54.6875 
L 9.28125 54.6875 
L 9.28125 70.21875 
z
" id="DejaVuSans-116"/>
       <path d="M 18.109375 8.203125 
L 18.109375 -20.796875 
L 9.078125 -20.796875 
L 9.078125 54.6875 
L 18.109375 54.6875 
L 18.109375 46.390625 
Q 20.953125 51.265625 25.265625 53.625 
Q 29.59375 56 35.59375 56 
Q 45.5625 56 51.78125 48.09375 
Q 58.015625 40.1875 58.015625 27.296875 
Q 58.015625 14.40625 51.78125 6.484375 
Q 45.5625 -1.421875 35.59375 -1.421875 
Q 29.59375 -1.421875 25.265625 0.953125 
Q 20.953125 3.328125 18.109375 8.203125 
z
M 48.6875 27.296875 
Q 48.6875 37.203125 44.609375 42.84375 
Q 40.53125 48.484375 33.40625 48.484375 
Q 26.265625 48.484375 22.1875 42.84375 
Q 18.109375 37.203125 18.109375 27.296875 
Q 18.109375 17.390625 22.1875 11.75 
Q 26.265625 6.109375 33.40625 6.109375 
Q 40.53125 6.109375 44.609375 11.75 
Q 48.6875 17.390625 48.6875 27.296875 
z
" id="DejaVuSans-112"/>
      </defs>
      <use xlink:href="#DejaVuSans-105"/>
      <use x="27.783203" xlink:href="#DejaVuSans-110"/>
      <use x="91.162109" xlink:href="#DejaVuSans-116"/>
      <use x="130.371094" xlink:href="#DejaVuSans-101"/>
      <use x="191.894531" xlink:href="#DejaVuSans-114"/>
      <use x="233.007812" xlink:href="#DejaVuSans-112"/>
      <use x="296.484375" xlink:href="#DejaVuSans-111"/>
      <use x="357.666016" xlink:href="#DejaVuSans-108"/>
      <use x="385.449219" xlink:href="#DejaVuSans-97"/>
      <use x="446.728516" xlink:href="#DejaVuSans-116"/>
      <use x="485.9375" xlink:href="#DejaVuSans-105"/>
      <use x="513.720703" xlink:href="#DejaVuSans-111"/>
      <use x="574.902344" xlink:href="#DejaVuSans-110"/>
     </g>
    </g>
    <g id="line2d_25"/>
    <g id="line2d_26">
     <g>
      <use style="stroke:#000000;stroke-linejoin:miter;" x="241.370739" xlink:href="#mf2384daa59" y="143.532812"/>
     </g>
    </g>
    <g id="text_13">
     <!-- reference_data -->
     <g transform="translate(259.370739 147.032812)scale(0.1 -0.1)">
      <use xlink:href="#DejaVuSans-114"/>
      <use x="38.863281" xlink:href="#DejaVuSans-101"/>
      <use x="100.386719" xlink:href="#DejaVuSans-102"/>
      <use x="135.591797" xlink:href="#DejaVuSans-101"/>
      <use x="197.115234" xlink:href="#DejaVuSans-114"/>
      <use x="235.978516" xlink:href="#DejaVuSans-101"/>
      <use x="297.501953" xlink:href="#DejaVuSans-110"/>
      <use x="360.880859" xlink:href="#DejaVuSans-99"/>
      <use x="415.861328" xlink:href="#DejaVuSans-101"/>
      <use x="477.384766" xlink:href="#DejaVuSans-95"/>
      <use x="527.384766" xlink:href="#DejaVuSans-100"/>
      <use x="590.861328" xlink:href="#DejaVuSans-97"/>
      <use x="652.140625" xlink:href="#DejaVuSans-116"/>
      <use x="691.349609" xlink:href="#DejaVuSans-97"/>
     </g>
    </g>
   </g>
  </g>
  <g id="axes_2">
   <g id="patch_8">
    <path d="M 394.363636 338.4 
L 648 338.4 
L 648 86.4 
L 394.363636 86.4 
z
" style="fill:#ffffff;"/>
   </g>
   <g id="PolyCollection_2">
    <path clip-path="url(#p10c18ab7c0)" d="M 458.962605 8323.507093 
L 458.962605 97.854545 
L 470.033164 98.239272 
L 481.091296 99.338521 
L 492.404231 99.628567 
L 514.780477 100.817878 
L 536.652292 105.566272 
L 581.659586 106.627622 
L 626.168684 8323.507093 
L 626.168684 8323.507093 
L 626.168684 8323.507093 
L 581.659586 8323.507093 
L 536.652292 8323.507093 
L 514.780477 8323.507093 
L 492.404231 8323.507093 
L 481.091296 8323.507093 
L 470.033164 8323.507093 
L 458.962605 8323.507093 
z
" style="fill:#ff8c00;fill-opacity:0.4;stroke:#ff8c00;stroke-opacity:0.4;"/>
   </g>
   <g id="matplotlib.axis_3">
    <g id="xtick_7">
     <g id="line2d_27">
      <g>
       <use style="stroke:#000000;stroke-width:0.8;" x="407.855519" xlink:href="#m85dbc77f89" y="338.4"/>
      </g>
     </g>
    </g>
    <g id="xtick_8">
     <g id="line2d_28">
      <g>
       <use style="stroke:#000000;stroke-width:0.8;" x="452.456786" xlink:href="#m85dbc77f89" y="338.4"/>
      </g>
     </g>
    </g>
    <g id="xtick_9">
     <g id="line2d_29">
      <g>
       <use style="stroke:#000000;stroke-width:0.8;" x="497.058052" xlink:href="#m85dbc77f89" y="338.4"/>
      </g>
     </g>
    </g>
    <g id="xtick_10">
     <g id="line2d_30">
      <g>
       <use style="stroke:#000000;stroke-width:0.8;" x="541.659319" xlink:href="#m85dbc77f89" y="338.4"/>
      </g>
     </g>
    </g>
    <g id="xtick_11">
     <g id="line2d_31">
      <g>
       <use style="stroke:#000000;stroke-width:0.8;" x="586.260585" xlink:href="#m85dbc77f89" y="338.4"/>
      </g>
     </g>
    </g>
    <g id="xtick_12">
     <g id="line2d_32">
      <g>
       <use style="stroke:#000000;stroke-width:0.8;" x="630.861852" xlink:href="#m85dbc77f89" y="338.4"/>
      </g>
     </g>
    </g>
   </g>
   <g id="matplotlib.axis_4">
    <g id="ytick_8">
     <g id="line2d_33">
      <g>
       <use style="stroke:#000000;stroke-width:0.8;" x="394.363636" xlink:href="#m27e31106cc" y="310.21669"/>
      </g>
     </g>
     <g id="text_14">
      <!-- $\mathdefault{10^{-26}}$ -->
      <g transform="translate(359.463636 314.015909)scale(0.1 -0.1)">
       <defs>
        <path d="M 10.59375 35.5 
L 73.1875 35.5 
L 73.1875 27.203125 
L 10.59375 27.203125 
z
" id="DejaVuSans-8722"/>
       </defs>
       <use transform="translate(0 0.765625)" xlink:href="#DejaVuSans-49"/>
       <use transform="translate(63.623047 0.765625)" xlink:href="#DejaVuSans-48"/>
       <use transform="translate(128.203125 39.046875)scale(0.7)" xlink:href="#DejaVuSans-8722"/>
       <use transform="translate(186.855469 39.046875)scale(0.7)" xlink:href="#DejaVuSans-50"/>
       <use transform="translate(231.391602 39.046875)scale(0.7)" xlink:href="#DejaVuSans-54"/>
      </g>
     </g>
    </g>
    <g id="ytick_9">
     <g id="line2d_34">
      <g>
       <use style="stroke:#000000;stroke-width:0.8;" x="394.363636" xlink:href="#m27e31106cc" y="277.3079"/>
      </g>
     </g>
     <g id="text_15">
      <!-- $\mathdefault{10^{-22}}$ -->
      <g transform="translate(359.463636 281.107118)scale(0.1 -0.1)">
       <use transform="translate(0 0.765625)" xlink:href="#DejaVuSans-49"/>
       <use transform="translate(63.623047 0.765625)" xlink:href="#DejaVuSans-48"/>
       <use transform="translate(128.203125 39.046875)scale(0.7)" xlink:href="#DejaVuSans-8722"/>
       <use transform="translate(186.855469 39.046875)scale(0.7)" xlink:href="#DejaVuSans-50"/>
       <use transform="translate(231.391602 39.046875)scale(0.7)" xlink:href="#DejaVuSans-50"/>
      </g>
     </g>
    </g>
    <g id="ytick_10">
     <g id="line2d_35">
      <g>
       <use style="stroke:#000000;stroke-width:0.8;" x="394.363636" xlink:href="#m27e31106cc" y="244.39911"/>
      </g>
     </g>
     <g id="text_16">
      <!-- $\mathdefault{10^{-18}}$ -->
      <g transform="translate(359.463636 248.198328)scale(0.1 -0.1)">
       <defs>
        <path d="M 31.78125 34.625 
Q 24.75 34.625 20.71875 30.859375 
Q 16.703125 27.09375 16.703125 20.515625 
Q 16.703125 13.921875 20.71875 10.15625 
Q 24.75 6.390625 31.78125 6.390625 
Q 38.8125 6.390625 42.859375 10.171875 
Q 46.921875 13.96875 46.921875 20.515625 
Q 46.921875 27.09375 42.890625 30.859375 
Q 38.875 34.625 31.78125 34.625 
z
M 21.921875 38.8125 
Q 15.578125 40.375 12.03125 44.71875 
Q 8.5 49.078125 8.5 55.328125 
Q 8.5 64.0625 14.71875 69.140625 
Q 20.953125 74.21875 31.78125 74.21875 
Q 42.671875 74.21875 48.875 69.140625 
Q 55.078125 64.0625 55.078125 55.328125 
Q 55.078125 49.078125 51.53125 44.71875 
Q 48 40.375 41.703125 38.8125 
Q 48.828125 37.15625 52.796875 32.3125 
Q 56.78125 27.484375 56.78125 20.515625 
Q 56.78125 9.90625 50.3125 4.234375 
Q 43.84375 -1.421875 31.78125 -1.421875 
Q 19.734375 -1.421875 13.25 4.234375 
Q 6.78125 9.90625 6.78125 20.515625 
Q 6.78125 27.484375 10.78125 32.3125 
Q 14.796875 37.15625 21.921875 38.8125 
z
M 18.3125 54.390625 
Q 18.3125 48.734375 21.84375 45.5625 
Q 25.390625 42.390625 31.78125 42.390625 
Q 38.140625 42.390625 41.71875 45.5625 
Q 45.3125 48.734375 45.3125 54.390625 
Q 45.3125 60.0625 41.71875 63.234375 
Q 38.140625 66.40625 31.78125 66.40625 
Q 25.390625 66.40625 21.84375 63.234375 
Q 18.3125 60.0625 18.3125 54.390625 
z
" id="DejaVuSans-56"/>
       </defs>
       <use transform="translate(0 0.765625)" xlink:href="#DejaVuSans-49"/>
       <use transform="translate(63.623047 0.765625)" xlink:href="#DejaVuSans-48"/>
       <use transform="translate(128.203125 39.046875)scale(0.7)" xlink:href="#DejaVuSans-8722"/>
       <use transform="translate(186.855469 39.046875)scale(0.7)" xlink:href="#DejaVuSans-49"/>
       <use transform="translate(231.391602 39.046875)scale(0.7)" xlink:href="#DejaVuSans-56"/>
      </g>
     </g>
    </g>
    <g id="ytick_11">
     <g id="line2d_36">
      <g>
       <use style="stroke:#000000;stroke-width:0.8;" x="394.363636" xlink:href="#m27e31106cc" y="211.490319"/>
      </g>
     </g>
     <g id="text_17">
      <!-- $\mathdefault{10^{-14}}$ -->
      <g transform="translate(359.463636 215.289538)scale(0.1 -0.1)">
       <use transform="translate(0 0.684375)" xlink:href="#DejaVuSans-49"/>
       <use transform="translate(63.623047 0.684375)" xlink:href="#DejaVuSans-48"/>
       <use transform="translate(128.203125 38.965625)scale(0.7)" xlink:href="#DejaVuSans-8722"/>
       <use transform="translate(186.855469 38.965625)scale(0.7)" xlink:href="#DejaVuSans-49"/>
       <use transform="translate(231.391602 38.965625)scale(0.7)" xlink:href="#DejaVuSans-52"/>
      </g>
     </g>
    </g>
    <g id="ytick_12">
     <g id="line2d_37">
      <g>
       <use style="stroke:#000000;stroke-width:0.8;" x="394.363636" xlink:href="#m27e31106cc" y="178.581529"/>
      </g>
     </g>
     <g id="text_18">
      <!-- $\mathdefault{10^{-10}}$ -->
      <g transform="translate(359.463636 182.380748)scale(0.1 -0.1)">
       <use transform="translate(0 0.765625)" xlink:href="#DejaVuSans-49"/>
       <use transform="translate(63.623047 0.765625)" xlink:href="#DejaVuSans-48"/>
       <use transform="translate(128.203125 39.046875)scale(0.7)" xlink:href="#DejaVuSans-8722"/>
       <use transform="translate(186.855469 39.046875)scale(0.7)" xlink:href="#DejaVuSans-49"/>
       <use transform="translate(231.391602 39.046875)scale(0.7)" xlink:href="#DejaVuSans-48"/>
      </g>
     </g>
    </g>
    <g id="ytick_13">
     <g id="line2d_38">
      <g>
       <use style="stroke:#000000;stroke-width:0.8;" x="394.363636" xlink:href="#m27e31106cc" y="145.672739"/>
      </g>
     </g>
     <g id="text_19">
      <!-- $\mathdefault{10^{-6}}$ -->
      <g transform="translate(363.863636 149.471958)scale(0.1 -0.1)">
       <use transform="translate(0 0.765625)" xlink:href="#DejaVuSans-49"/>
       <use transform="translate(63.623047 0.765625)" xlink:href="#DejaVuSans-48"/>
       <use transform="translate(128.203125 39.046875)scale(0.7)" xlink:href="#DejaVuSans-8722"/>
       <use transform="translate(186.855469 39.046875)scale(0.7)" xlink:href="#DejaVuSans-54"/>
      </g>
     </g>
    </g>
    <g id="ytick_14">
     <g id="line2d_39">
      <g>
       <use style="stroke:#000000;stroke-width:0.8;" x="394.363636" xlink:href="#m27e31106cc" y="112.763949"/>
      </g>
     </g>
     <g id="text_20">
      <!-- $\mathdefault{10^{-2}}$ -->
      <g transform="translate(363.863636 116.563168)scale(0.1 -0.1)">
       <use transform="translate(0 0.765625)" xlink:href="#DejaVuSans-49"/>
       <use transform="translate(63.623047 0.765625)" xlink:href="#DejaVuSans-48"/>
       <use transform="translate(128.203125 39.046875)scale(0.7)" xlink:href="#DejaVuSans-8722"/>
       <use transform="translate(186.855469 39.046875)scale(0.7)" xlink:href="#DejaVuSans-50"/>
      </g>
     </g>
    </g>
   </g>
   <g id="line2d_40">
    <g clip-path="url(#p10c18ab7c0)">
     <use style="fill:#ff8c00;stroke:#ff8c00;" x="458.962605" xlink:href="#m868e316b8c" y="97.854545"/>
     <use style="fill:#ff8c00;stroke:#ff8c00;" x="470.033164" xlink:href="#m868e316b8c" y="98.239272"/>
     <use style="fill:#ff8c00;stroke:#ff8c00;" x="481.091296" xlink:href="#m868e316b8c" y="99.338521"/>
     <use style="fill:#ff8c00;stroke:#ff8c00;" x="492.404231" xlink:href="#m868e316b8c" y="99.628567"/>
     <use style="fill:#ff8c00;stroke:#ff8c00;" x="514.780477" xlink:href="#m868e316b8c" y="100.817878"/>
     <use style="fill:#ff8c00;stroke:#ff8c00;" x="536.652292" xlink:href="#m868e316b8c" y="105.566272"/>
     <use style="fill:#ff8c00;stroke:#ff8c00;" x="581.659586" xlink:href="#m868e316b8c" y="106.627622"/>
     <use style="fill:#ff8c00;stroke:#ff8c00;" x="626.168684" xlink:href="#m868e316b8c" y="8323.507093"/>
    </g>
   </g>
   <g id="line2d_41">
    <path clip-path="url(#p10c18ab7c0)" d="M 405.625456 721 
L 405.731897 141.829846 
L 405.958843 132.526418 
L 406.31151 127.338382 
L 406.736347 124.160471 
L 407.243286 121.879431 
L 408.056831 119.48539 
L 408.743574 118.366238 
L 409.511413 117.502275 
L 410.501943 116.761941 
L 411.457133 116.303137 
L 412.576962 115.970271 
L 414.053165 115.745307 
L 416.119849 115.661464 
L 419.662736 115.776939 
L 434.720006 116.439081 
L 540.804337 120.029319 
L 630.861852 123.096464 
L 630.861852 123.096464 
" style="fill:none;stroke:#0000ff;stroke-linecap:square;stroke-width:1.5;"/>
   </g>
   <g id="line2d_42">
    <g clip-path="url(#p10c18ab7c0)">
     <use style="fill:#0000ff;stroke:#0000ff;" x="458.962605" xlink:href="#m6b0ed336f1" y="117.25739"/>
     <use style="fill:#0000ff;stroke:#0000ff;" x="470.033164" xlink:href="#m6b0ed336f1" y="117.630426"/>
     <use style="fill:#0000ff;stroke:#0000ff;" x="481.091296" xlink:href="#m6b0ed336f1" y="118.003519"/>
     <use style="fill:#0000ff;stroke:#0000ff;" x="492.404231" xlink:href="#m6b0ed336f1" y="118.385823"/>
     <use style="fill:#0000ff;stroke:#0000ff;" x="514.780477" xlink:href="#m6b0ed336f1" y="119.14473"/>
     <use style="fill:#0000ff;stroke:#0000ff;" x="536.652292" xlink:href="#m6b0ed336f1" y="119.88657"/>
     <use style="fill:#0000ff;stroke:#0000ff;" x="581.659586" xlink:href="#m6b0ed336f1" y="121.410047"/>
     <use style="fill:#0000ff;stroke:#0000ff;" x="626.168684" xlink:href="#m6b0ed336f1" y="122.939145"/>
    </g>
   </g>
   <g id="line2d_43">
    <g clip-path="url(#p10c18ab7c0)">
     <use style="stroke:#000000;stroke-linejoin:miter;" x="458.962605" xlink:href="#mf2384daa59" y="118.592357"/>
     <use style="stroke:#000000;stroke-linejoin:miter;" x="470.033164" xlink:href="#mf2384daa59" y="118.96011"/>
     <use style="stroke:#000000;stroke-linejoin:miter;" x="481.091296" xlink:href="#mf2384daa59" y="119.048587"/>
     <use style="stroke:#000000;stroke-linejoin:miter;" x="492.404231" xlink:href="#mf2384daa59" y="119.462786"/>
     <use style="stroke:#000000;stroke-linejoin:miter;" x="514.780477" xlink:href="#mf2384daa59" y="120.081827"/>
     <use style="stroke:#000000;stroke-linejoin:miter;" x="536.652292" xlink:href="#mf2384daa59" y="120.16579"/>
     <use style="stroke:#000000;stroke-linejoin:miter;" x="581.659586" xlink:href="#mf2384daa59" y="121.729594"/>
     <use style="stroke:#000000;stroke-linejoin:miter;" x="626.168684" xlink:href="#mf2384daa59" y="122.897957"/>
    </g>
   </g>
   <g id="patch_9">
    <path d="M 394.363636 338.4 
L 394.363636 86.4 
" style="fill:none;stroke:#000000;stroke-linecap:square;stroke-linejoin:miter;stroke-width:0.8;"/>
   </g>
   <g id="patch_10">
    <path d="M 648 338.4 
L 648 86.4 
" style="fill:none;stroke:#000000;stroke-linecap:square;stroke-linejoin:miter;stroke-width:0.8;"/>
   </g>
   <g id="patch_11">
    <path d="M 394.363636 338.4 
L 648 338.4 
" style="fill:none;stroke:#000000;stroke-linecap:square;stroke-linejoin:miter;stroke-width:0.8;"/>
   </g>
   <g id="patch_12">
    <path d="M 394.363636 86.4 
L 648 86.4 
" style="fill:none;stroke:#000000;stroke-linecap:square;stroke-linejoin:miter;stroke-width:0.8;"/>
   </g>
   <g id="text_21">
    <!-- Niemann2000.fm_Car_icg_individual -->
    <g transform="translate(393.625412 80.4)scale(0.14 -0.14)">
     <use xlink:href="#DejaVuSans-78"/>
     <use x="74.804688" xlink:href="#DejaVuSans-105"/>
     <use x="102.587891" xlink:href="#DejaVuSans-101"/>
     <use x="164.111328" xlink:href="#DejaVuSans-109"/>
     <use x="261.523438" xlink:href="#DejaVuSans-97"/>
     <use x="322.802734" xlink:href="#DejaVuSans-110"/>
     <use x="386.181641" xlink:href="#DejaVuSans-110"/>
     <use x="449.560547" xlink:href="#DejaVuSans-50"/>
     <use x="513.183594" xlink:href="#DejaVuSans-48"/>
     <use x="576.806641" xlink:href="#DejaVuSans-48"/>
     <use x="640.429688" xlink:href="#DejaVuSans-48"/>
     <use x="704.052734" xlink:href="#DejaVuSans-46"/>
     <use x="735.839844" xlink:href="#DejaVuSans-102"/>
     <use x="771.044922" xlink:href="#DejaVuSans-109"/>
     <use x="868.457031" xlink:href="#DejaVuSans-95"/>
     <use x="918.457031" xlink:href="#DejaVuSans-67"/>
     <use x="988.28125" xlink:href="#DejaVuSans-97"/>
     <use x="1049.560547" xlink:href="#DejaVuSans-114"/>
     <use x="1090.673828" xlink:href="#DejaVuSans-95"/>
     <use x="1140.673828" xlink:href="#DejaVuSans-105"/>
     <use x="1168.457031" xlink:href="#DejaVuSans-99"/>
     <use x="1223.4375" xlink:href="#DejaVuSans-103"/>
     <use x="1286.914062" xlink:href="#DejaVuSans-95"/>
     <use x="1336.914062" xlink:href="#DejaVuSans-105"/>
     <use x="1364.697266" xlink:href="#DejaVuSans-110"/>
     <use x="1428.076172" xlink:href="#DejaVuSans-100"/>
     <use x="1491.552734" xlink:href="#DejaVuSans-105"/>
     <use x="1519.335938" xlink:href="#DejaVuSans-118"/>
     <use x="1578.515625" xlink:href="#DejaVuSans-105"/>
     <use x="1606.298828" xlink:href="#DejaVuSans-100"/>
     <use x="1669.775391" xlink:href="#DejaVuSans-117"/>
     <use x="1733.154297" xlink:href="#DejaVuSans-97"/>
     <use x="1794.433594" xlink:href="#DejaVuSans-108"/>
    </g>
   </g>
   <g id="legend_2">
    <g id="patch_13">
     <path d="M 467.549006 333.4 
L 574.814631 333.4 
Q 576.814631 333.4 576.814631 331.4 
L 576.814631 273.409375 
Q 576.814631 271.409375 574.814631 271.409375 
L 467.549006 271.409375 
Q 465.549006 271.409375 465.549006 273.409375 
L 465.549006 331.4 
Q 465.549006 333.4 467.549006 333.4 
z
" style="fill:#ffffff;opacity:0.8;stroke:#cccccc;stroke-linejoin:miter;"/>
    </g>
    <g id="line2d_44"/>
    <g id="line2d_45">
     <g>
      <use style="fill:#ff8c00;stroke:#ff8c00;" x="479.549006" xlink:href="#m868e316b8c" y="279.507812"/>
     </g>
    </g>
    <g id="text_22">
     <!-- residuals -->
     <g transform="translate(497.549006 283.007812)scale(0.1 -0.1)">
      <use xlink:href="#DejaVuSans-114"/>
      <use x="38.863281" xlink:href="#DejaVuSans-101"/>
      <use x="100.386719" xlink:href="#DejaVuSans-115"/>
      <use x="152.486328" xlink:href="#DejaVuSans-105"/>
      <use x="180.269531" xlink:href="#DejaVuSans-100"/>
      <use x="243.746094" xlink:href="#DejaVuSans-117"/>
      <use x="307.125" xlink:href="#DejaVuSans-97"/>
      <use x="368.404297" xlink:href="#DejaVuSans-108"/>
      <use x="396.1875" xlink:href="#DejaVuSans-115"/>
     </g>
    </g>
    <g id="line2d_46">
     <path d="M 469.549006 294.185938 
L 489.549006 294.185938 
" style="fill:none;stroke:#0000ff;stroke-linecap:square;stroke-width:1.5;"/>
    </g>
    <g id="line2d_47"/>
    <g id="text_23">
     <!-- observable -->
     <g transform="translate(497.549006 297.685938)scale(0.1 -0.1)">
      <use xlink:href="#DejaVuSans-111"/>
      <use x="61.181641" xlink:href="#DejaVuSans-98"/>
      <use x="124.658203" xlink:href="#DejaVuSans-115"/>
      <use x="176.757812" xlink:href="#DejaVuSans-101"/>
      <use x="238.28125" xlink:href="#DejaVuSans-114"/>
      <use x="279.394531" xlink:href="#DejaVuSans-118"/>
      <use x="338.574219" xlink:href="#DejaVuSans-97"/>
      <use x="399.853516" xlink:href="#DejaVuSans-98"/>
      <use x="463.330078" xlink:href="#DejaVuSans-108"/>
      <use x="491.113281" xlink:href="#DejaVuSans-101"/>
     </g>
    </g>
    <g id="line2d_48"/>
    <g id="line2d_49">
     <g>
      <use style="fill:#0000ff;stroke:#0000ff;" x="479.549006" xlink:href="#m6b0ed336f1" y="308.864062"/>
     </g>
    </g>
    <g id="text_24">
     <!-- interpolation -->
     <g transform="translate(497.549006 312.364062)scale(0.1 -0.1)">
      <use xlink:href="#DejaVuSans-105"/>
      <use x="27.783203" xlink:href="#DejaVuSans-110"/>
      <use x="91.162109" xlink:href="#DejaVuSans-116"/>
      <use x="130.371094" xlink:href="#DejaVuSans-101"/>
      <use x="191.894531" xlink:href="#DejaVuSans-114"/>
      <use x="233.007812" xlink:href="#DejaVuSans-112"/>
      <use x="296.484375" xlink:href="#DejaVuSans-111"/>
      <use x="357.666016" xlink:href="#DejaVuSans-108"/>
      <use x="385.449219" xlink:href="#DejaVuSans-97"/>
      <use x="446.728516" xlink:href="#DejaVuSans-116"/>
      <use x="485.9375" xlink:href="#DejaVuSans-105"/>
      <use x="513.720703" xlink:href="#DejaVuSans-111"/>
      <use x="574.902344" xlink:href="#DejaVuSans-110"/>
     </g>
    </g>
    <g id="line2d_50"/>
    <g id="line2d_51">
     <g>
      <use style="stroke:#000000;stroke-linejoin:miter;" x="479.549006" xlink:href="#mf2384daa59" y="323.542188"/>
     </g>
    </g>
    <g id="text_25">
     <!-- reference_data -->
     <g transform="translate(497.549006 327.042188)scale(0.1 -0.1)">
      <use xlink:href="#DejaVuSans-114"/>
      <use x="38.863281" xlink:href="#DejaVuSans-101"/>
      <use x="100.386719" xlink:href="#DejaVuSans-102"/>
      <use x="135.591797" xlink:href="#DejaVuSans-101"/>
      <use x="197.115234" xlink:href="#DejaVuSans-114"/>
      <use x="235.978516" xlink:href="#DejaVuSans-101"/>
      <use x="297.501953" xlink:href="#DejaVuSans-110"/>
      <use x="360.880859" xlink:href="#DejaVuSans-99"/>
      <use x="415.861328" xlink:href="#DejaVuSans-101"/>
      <use x="477.384766" xlink:href="#DejaVuSans-95"/>
      <use x="527.384766" xlink:href="#DejaVuSans-100"/>
      <use x="590.861328" xlink:href="#DejaVuSans-97"/>
      <use x="652.140625" xlink:href="#DejaVuSans-116"/>
      <use x="691.349609" xlink:href="#DejaVuSans-97"/>
     </g>
    </g>
   </g>
  </g>
  <g id="axes_3">
   <g id="patch_14">
    <path d="M 90 640.8 
L 343.636364 640.8 
L 343.636364 388.8 
L 90 388.8 
z
" style="fill:#ffffff;"/>
   </g>
   <g id="PolyCollection_3">
    <defs>
     <path d="M 154.598969 -90.654545 
L 154.598969 -319.745455 
L 165.669527 -275.361145 
L 176.72766 -190.484119 
L 188.040595 -175.523758 
L 210.416841 -134.269282 
L 232.288655 -93.711696 
L 277.295949 -92.34229 
L 321.805047 -90.667717 
L 321.805047 -90.654545 
L 321.805047 -90.654545 
L 277.295949 -90.654545 
L 232.288655 -90.654545 
L 210.416841 -90.654545 
L 188.040595 -90.654545 
L 176.72766 -90.654545 
L 165.669527 -90.654545 
L 154.598969 -90.654545 
z
" id="ma0d70f41c0" style="stroke:#8b0000;stroke-opacity:0.4;"/>
    </defs>
    <g clip-path="url(#pd1733ca01d)">
     <use style="fill:#8b0000;fill-opacity:0.4;stroke:#8b0000;stroke-opacity:0.4;" x="0" xlink:href="#ma0d70f41c0" y="720"/>
    </g>
   </g>
   <g id="matplotlib.axis_5">
    <g id="xtick_13">
     <g id="line2d_52">
      <g>
       <use style="stroke:#000000;stroke-width:0.8;" x="103.491883" xlink:href="#m85dbc77f89" y="640.8"/>
      </g>
     </g>
     <g id="text_26">
      <!-- 0 -->
      <g transform="translate(100.310633 655.398438)scale(0.1 -0.1)">
       <use xlink:href="#DejaVuSans-48"/>
      </g>
     </g>
    </g>
    <g id="xtick_14">
     <g id="line2d_53">
      <g>
       <use style="stroke:#000000;stroke-width:0.8;" x="148.09315" xlink:href="#m85dbc77f89" y="640.8"/>
      </g>
     </g>
     <g id="text_27">
      <!-- 2 -->
      <g transform="translate(144.9119 655.398438)scale(0.1 -0.1)">
       <use xlink:href="#DejaVuSans-50"/>
      </g>
     </g>
    </g>
    <g id="xtick_15">
     <g id="line2d_54">
      <g>
       <use style="stroke:#000000;stroke-width:0.8;" x="192.694416" xlink:href="#m85dbc77f89" y="640.8"/>
      </g>
     </g>
     <g id="text_28">
      <!-- 4 -->
      <g transform="translate(189.513166 655.398438)scale(0.1 -0.1)">
       <use xlink:href="#DejaVuSans-52"/>
      </g>
     </g>
    </g>
    <g id="xtick_16">
     <g id="line2d_55">
      <g>
       <use style="stroke:#000000;stroke-width:0.8;" x="237.295683" xlink:href="#m85dbc77f89" y="640.8"/>
      </g>
     </g>
     <g id="text_29">
      <!-- 6 -->
      <g transform="translate(234.114433 655.398438)scale(0.1 -0.1)">
       <use xlink:href="#DejaVuSans-54"/>
      </g>
     </g>
    </g>
    <g id="xtick_17">
     <g id="line2d_56">
      <g>
       <use style="stroke:#000000;stroke-width:0.8;" x="281.896949" xlink:href="#m85dbc77f89" y="640.8"/>
      </g>
     </g>
     <g id="text_30">
      <!-- 8 -->
      <g transform="translate(278.715699 655.398438)scale(0.1 -0.1)">
       <use xlink:href="#DejaVuSans-56"/>
      </g>
     </g>
    </g>
    <g id="xtick_18">
     <g id="line2d_57">
      <g>
       <use style="stroke:#000000;stroke-width:0.8;" x="326.498215" xlink:href="#m85dbc77f89" y="640.8"/>
      </g>
     </g>
     <g id="text_31">
      <!-- 10 -->
      <g transform="translate(320.135715 655.398438)scale(0.1 -0.1)">
       <use xlink:href="#DejaVuSans-49"/>
       <use x="63.623047" xlink:href="#DejaVuSans-48"/>
      </g>
     </g>
    </g>
    <g id="text_32">
     <!-- time -->
     <g transform="translate(201.571619 670.59625)scale(0.12 -0.12)">
      <defs>
       <path d="M 27.484375 70.21875 
L 27.484375 54.6875 
L 45.515625 54.6875 
L 45.515625 42.1875 
L 27.484375 42.1875 
L 27.484375 19 
Q 27.484375 15.1875 29 13.84375 
Q 30.515625 12.5 35.015625 12.5 
L 44 12.5 
L 44 0 
L 29 0 
Q 18.65625 0 14.328125 4.3125 
Q 10.015625 8.640625 10.015625 19 
L 10.015625 42.1875 
L 1.3125 42.1875 
L 1.3125 54.6875 
L 10.015625 54.6875 
L 10.015625 70.21875 
z
" id="DejaVuSans-Bold-116"/>
       <path d="M 59.078125 45.609375 
Q 62.40625 50.6875 66.96875 53.34375 
Q 71.53125 56 77 56 
Q 86.421875 56 91.359375 50.1875 
Q 96.296875 44.390625 96.296875 33.296875 
L 96.296875 0 
L 78.71875 0 
L 78.71875 28.515625 
Q 78.765625 29.15625 78.78125 29.828125 
Q 78.8125 30.515625 78.8125 31.78125 
Q 78.8125 37.59375 77.09375 40.203125 
Q 75.390625 42.828125 71.578125 42.828125 
Q 66.609375 42.828125 63.890625 38.71875 
Q 61.1875 34.625 61.078125 26.859375 
L 61.078125 0 
L 43.5 0 
L 43.5 28.515625 
Q 43.5 37.59375 41.9375 40.203125 
Q 40.375 42.828125 36.375 42.828125 
Q 31.34375 42.828125 28.609375 38.703125 
Q 25.875 34.578125 25.875 26.90625 
L 25.875 0 
L 8.296875 0 
L 8.296875 54.6875 
L 25.875 54.6875 
L 25.875 46.6875 
Q 29.109375 51.3125 33.28125 53.65625 
Q 37.453125 56 42.484375 56 
Q 48.140625 56 52.484375 53.265625 
Q 56.84375 50.53125 59.078125 45.609375 
z
" id="DejaVuSans-Bold-109"/>
       <path d="M 62.984375 27.484375 
L 62.984375 22.515625 
L 22.125 22.515625 
Q 22.75 16.359375 26.5625 13.28125 
Q 30.375 10.203125 37.203125 10.203125 
Q 42.71875 10.203125 48.5 11.84375 
Q 54.296875 13.484375 60.40625 16.796875 
L 60.40625 3.328125 
Q 54.203125 0.984375 48 -0.21875 
Q 41.796875 -1.421875 35.59375 -1.421875 
Q 20.75 -1.421875 12.515625 6.125 
Q 4.296875 13.671875 4.296875 27.296875 
Q 4.296875 40.671875 12.375 48.328125 
Q 20.453125 56 34.625 56 
Q 47.515625 56 55.25 48.234375 
Q 62.984375 40.484375 62.984375 27.484375 
z
M 45.015625 33.296875 
Q 45.015625 38.28125 42.109375 41.328125 
Q 39.203125 44.390625 34.515625 44.390625 
Q 29.4375 44.390625 26.265625 41.53125 
Q 23.09375 38.671875 22.3125 33.296875 
z
" id="DejaVuSans-Bold-101"/>
      </defs>
      <use xlink:href="#DejaVuSans-Bold-116"/>
      <use x="47.802734" xlink:href="#DejaVuSans-Bold-105"/>
      <use x="82.080078" xlink:href="#DejaVuSans-Bold-109"/>
      <use x="186.279297" xlink:href="#DejaVuSans-Bold-101"/>
     </g>
    </g>
   </g>
   <g id="matplotlib.axis_6">
    <g id="ytick_15">
     <g id="line2d_58">
      <g>
       <use style="stroke:#000000;stroke-width:0.8;" x="90" xlink:href="#m27e31106cc" y="629.345455"/>
      </g>
     </g>
     <g id="text_33">
      <!-- 0.00 -->
      <g transform="translate(60.734375 633.144673)scale(0.1 -0.1)">
       <use xlink:href="#DejaVuSans-48"/>
       <use x="63.623047" xlink:href="#DejaVuSans-46"/>
       <use x="95.410156" xlink:href="#DejaVuSans-48"/>
       <use x="159.033203" xlink:href="#DejaVuSans-48"/>
      </g>
     </g>
    </g>
    <g id="ytick_16">
     <g id="line2d_59">
      <g>
       <use style="stroke:#000000;stroke-width:0.8;" x="90" xlink:href="#m27e31106cc" y="585.826411"/>
      </g>
     </g>
     <g id="text_34">
      <!-- 0.02 -->
      <g transform="translate(60.734375 589.62563)scale(0.1 -0.1)">
       <use xlink:href="#DejaVuSans-48"/>
       <use x="63.623047" xlink:href="#DejaVuSans-46"/>
       <use x="95.410156" xlink:href="#DejaVuSans-48"/>
       <use x="159.033203" xlink:href="#DejaVuSans-50"/>
      </g>
     </g>
    </g>
    <g id="ytick_17">
     <g id="line2d_60">
      <g>
       <use style="stroke:#000000;stroke-width:0.8;" x="90" xlink:href="#m27e31106cc" y="542.307368"/>
      </g>
     </g>
     <g id="text_35">
      <!-- 0.04 -->
      <g transform="translate(60.734375 546.106586)scale(0.1 -0.1)">
       <use xlink:href="#DejaVuSans-48"/>
       <use x="63.623047" xlink:href="#DejaVuSans-46"/>
       <use x="95.410156" xlink:href="#DejaVuSans-48"/>
       <use x="159.033203" xlink:href="#DejaVuSans-52"/>
      </g>
     </g>
    </g>
    <g id="ytick_18">
     <g id="line2d_61">
      <g>
       <use style="stroke:#000000;stroke-width:0.8;" x="90" xlink:href="#m27e31106cc" y="498.788324"/>
      </g>
     </g>
     <g id="text_36">
      <!-- 0.06 -->
      <g transform="translate(60.734375 502.587543)scale(0.1 -0.1)">
       <use xlink:href="#DejaVuSans-48"/>
       <use x="63.623047" xlink:href="#DejaVuSans-46"/>
       <use x="95.410156" xlink:href="#DejaVuSans-48"/>
       <use x="159.033203" xlink:href="#DejaVuSans-54"/>
      </g>
     </g>
    </g>
    <g id="ytick_19">
     <g id="line2d_62">
      <g>
       <use style="stroke:#000000;stroke-width:0.8;" x="90" xlink:href="#m27e31106cc" y="455.269281"/>
      </g>
     </g>
     <g id="text_37">
      <!-- 0.08 -->
      <g transform="translate(60.734375 459.0685)scale(0.1 -0.1)">
       <use xlink:href="#DejaVuSans-48"/>
       <use x="63.623047" xlink:href="#DejaVuSans-46"/>
       <use x="95.410156" xlink:href="#DejaVuSans-48"/>
       <use x="159.033203" xlink:href="#DejaVuSans-56"/>
      </g>
     </g>
    </g>
    <g id="ytick_20">
     <g id="line2d_63">
      <g>
       <use style="stroke:#000000;stroke-width:0.8;" x="90" xlink:href="#m27e31106cc" y="411.750238"/>
      </g>
     </g>
     <g id="text_38">
      <!-- 0.10 -->
      <g transform="translate(60.734375 415.549456)scale(0.1 -0.1)">
       <use xlink:href="#DejaVuSans-48"/>
       <use x="63.623047" xlink:href="#DejaVuSans-46"/>
       <use x="95.410156" xlink:href="#DejaVuSans-49"/>
       <use x="159.033203" xlink:href="#DejaVuSans-48"/>
      </g>
     </g>
    </g>
    <g id="text_39">
     <!-- [Car_icg] -->
     <g transform="translate(53.905 544.604063)rotate(-90)scale(0.12 -0.12)">
      <use xlink:href="#DejaVuSans-Bold-91"/>
      <use x="45.703125" xlink:href="#DejaVuSans-Bold-67"/>
      <use x="119.091797" xlink:href="#DejaVuSans-Bold-97"/>
      <use x="186.572266" xlink:href="#DejaVuSans-Bold-114"/>
      <use x="235.888672" xlink:href="#DejaVuSans-Bold-95"/>
      <use x="285.888672" xlink:href="#DejaVuSans-Bold-105"/>
      <use x="320.166016" xlink:href="#DejaVuSans-Bold-99"/>
      <use x="379.443359" xlink:href="#DejaVuSans-Bold-103"/>
      <use x="451.025391" xlink:href="#DejaVuSans-Bold-93"/>
     </g>
    </g>
   </g>
   <g id="line2d_64">
    <path clip-path="url(#pd1733ca01d)" d="M 90 629.345455 
L 343.636364 629.345455 
" style="fill:none;stroke:#000000;stroke-linecap:square;stroke-width:1.5;"/>
   </g>
   <g id="line2d_65">
    <defs>
     <path d="M 0 3 
C 0.795609 3 1.55874 2.683901 2.12132 2.12132 
C 2.683901 1.55874 3 0.795609 3 0 
C 3 -0.795609 2.683901 -1.55874 2.12132 -2.12132 
C 1.55874 -2.683901 0.795609 -3 0 -3 
C -0.795609 -3 -1.55874 -2.683901 -2.12132 -2.12132 
C -2.683901 -1.55874 -3 -0.795609 -3 0 
C -3 0.795609 -2.683901 1.55874 -2.12132 2.12132 
C -1.55874 2.683901 -0.795609 3 0 3 
z
" id="mffc1966774" style="stroke:#ff0000;"/>
    </defs>
    <g clip-path="url(#pd1733ca01d)">
     <use style="fill:#ff0000;stroke:#ff0000;" x="154.598969" xlink:href="#mffc1966774" y="400.254545"/>
     <use style="fill:#ff0000;stroke:#ff0000;" x="165.669527" xlink:href="#mffc1966774" y="444.638855"/>
     <use style="fill:#ff0000;stroke:#ff0000;" x="176.72766" xlink:href="#mffc1966774" y="529.515881"/>
     <use style="fill:#ff0000;stroke:#ff0000;" x="188.040595" xlink:href="#mffc1966774" y="544.476242"/>
     <use style="fill:#ff0000;stroke:#ff0000;" x="210.416841" xlink:href="#mffc1966774" y="585.730718"/>
     <use style="fill:#ff0000;stroke:#ff0000;" x="232.288655" xlink:href="#mffc1966774" y="626.288304"/>
     <use style="fill:#ff0000;stroke:#ff0000;" x="277.295949" xlink:href="#mffc1966774" y="627.65771"/>
     <use style="fill:#ff0000;stroke:#ff0000;" x="321.805047" xlink:href="#mffc1966774" y="629.332283"/>
    </g>
   </g>
   <g id="patch_15">
    <path d="M 90 640.8 
L 90 388.8 
" style="fill:none;stroke:#000000;stroke-linecap:square;stroke-linejoin:miter;stroke-width:0.8;"/>
   </g>
   <g id="patch_16">
    <path d="M 343.636364 640.8 
L 343.636364 388.8 
" style="fill:none;stroke:#000000;stroke-linecap:square;stroke-linejoin:miter;stroke-width:0.8;"/>
   </g>
   <g id="patch_17">
    <path d="M 90 640.8 
L 343.636364 640.8 
" style="fill:none;stroke:#000000;stroke-linecap:square;stroke-linejoin:miter;stroke-width:0.8;"/>
   </g>
   <g id="patch_18">
    <path d="M 90 388.8 
L 343.636364 388.8 
" style="fill:none;stroke:#000000;stroke-linecap:square;stroke-linejoin:miter;stroke-width:0.8;"/>
   </g>
   <g id="legend_3">
    <g id="patch_19">
     <path d="M 187.867614 411.478125 
L 336.636364 411.478125 
Q 338.636364 411.478125 338.636364 409.478125 
L 338.636364 395.8 
Q 338.636364 393.8 336.636364 393.8 
L 187.867614 393.8 
Q 185.867614 393.8 185.867614 395.8 
L 185.867614 409.478125 
Q 185.867614 411.478125 187.867614 411.478125 
z
" style="fill:#ffffff;opacity:0.8;stroke:#cccccc;stroke-linejoin:miter;"/>
    </g>
    <g id="line2d_66"/>
    <g id="line2d_67">
     <g>
      <use style="fill:#ff0000;stroke:#ff0000;" x="199.867614" xlink:href="#mffc1966774" y="401.898438"/>
     </g>
    </g>
    <g id="text_40">
     <!-- (weighted residuals)^2 -->
     <g transform="translate(217.867614 405.398438)scale(0.1 -0.1)">
      <defs>
       <path d="M 31 75.875 
Q 24.46875 64.65625 21.28125 53.65625 
Q 18.109375 42.671875 18.109375 31.390625 
Q 18.109375 20.125 21.3125 9.0625 
Q 24.515625 -2 31 -13.1875 
L 23.1875 -13.1875 
Q 15.875 -1.703125 12.234375 9.375 
Q 8.59375 20.453125 8.59375 31.390625 
Q 8.59375 42.28125 12.203125 53.3125 
Q 15.828125 64.359375 23.1875 75.875 
z
" id="DejaVuSans-40"/>
       <path d="M 4.203125 54.6875 
L 13.1875 54.6875 
L 24.421875 12.015625 
L 35.59375 54.6875 
L 46.1875 54.6875 
L 57.421875 12.015625 
L 68.609375 54.6875 
L 77.59375 54.6875 
L 63.28125 0 
L 52.6875 0 
L 40.921875 44.828125 
L 29.109375 0 
L 18.5 0 
z
" id="DejaVuSans-119"/>
       <path d="M 54.890625 33.015625 
L 54.890625 0 
L 45.90625 0 
L 45.90625 32.71875 
Q 45.90625 40.484375 42.875 44.328125 
Q 39.84375 48.1875 33.796875 48.1875 
Q 26.515625 48.1875 22.3125 43.546875 
Q 18.109375 38.921875 18.109375 30.90625 
L 18.109375 0 
L 9.078125 0 
L 9.078125 75.984375 
L 18.109375 75.984375 
L 18.109375 46.1875 
Q 21.34375 51.125 25.703125 53.5625 
Q 30.078125 56 35.796875 56 
Q 45.21875 56 50.046875 50.171875 
Q 54.890625 44.34375 54.890625 33.015625 
z
" id="DejaVuSans-104"/>
       <path id="DejaVuSans-32"/>
       <path d="M 8.015625 75.875 
L 15.828125 75.875 
Q 23.140625 64.359375 26.78125 53.3125 
Q 30.421875 42.28125 30.421875 31.390625 
Q 30.421875 20.453125 26.78125 9.375 
Q 23.140625 -1.703125 15.828125 -13.1875 
L 8.015625 -13.1875 
Q 14.5 -2 17.703125 9.0625 
Q 20.90625 20.125 20.90625 31.390625 
Q 20.90625 42.671875 17.703125 53.65625 
Q 14.5 64.65625 8.015625 75.875 
z
" id="DejaVuSans-41"/>
       <path d="M 46.6875 72.90625 
L 73.1875 45.703125 
L 63.375 45.703125 
L 41.890625 64.984375 
L 20.40625 45.703125 
L 10.59375 45.703125 
L 37.109375 72.90625 
z
" id="DejaVuSans-94"/>
      </defs>
      <use xlink:href="#DejaVuSans-40"/>
      <use x="39.013672" xlink:href="#DejaVuSans-119"/>
      <use x="120.800781" xlink:href="#DejaVuSans-101"/>
      <use x="182.324219" xlink:href="#DejaVuSans-105"/>
      <use x="210.107422" xlink:href="#DejaVuSans-103"/>
      <use x="273.583984" xlink:href="#DejaVuSans-104"/>
      <use x="336.962891" xlink:href="#DejaVuSans-116"/>
      <use x="376.171875" xlink:href="#DejaVuSans-101"/>
      <use x="437.695312" xlink:href="#DejaVuSans-100"/>
      <use x="501.171875" xlink:href="#DejaVuSans-32"/>
      <use x="532.958984" xlink:href="#DejaVuSans-114"/>
      <use x="571.822266" xlink:href="#DejaVuSans-101"/>
      <use x="633.345703" xlink:href="#DejaVuSans-115"/>
      <use x="685.445312" xlink:href="#DejaVuSans-105"/>
      <use x="713.228516" xlink:href="#DejaVuSans-100"/>
      <use x="776.705078" xlink:href="#DejaVuSans-117"/>
      <use x="840.083984" xlink:href="#DejaVuSans-97"/>
      <use x="901.363281" xlink:href="#DejaVuSans-108"/>
      <use x="929.146484" xlink:href="#DejaVuSans-115"/>
      <use x="981.246094" xlink:href="#DejaVuSans-41"/>
      <use x="1020.259766" xlink:href="#DejaVuSans-94"/>
      <use x="1104.048828" xlink:href="#DejaVuSans-50"/>
     </g>
    </g>
   </g>
  </g>
  <g id="axes_4">
   <g id="patch_20">
    <path d="M 394.363636 640.8 
L 648 640.8 
L 648 388.8 
L 394.363636 388.8 
z
" style="fill:#ffffff;"/>
   </g>
   <g id="PolyCollection_4">
    <path clip-path="url(#pd2708e19d3)" d="M 458.962605 54373.39769 
L 458.962605 400.254545 
L 470.033164 405.307347 
L 481.091296 419.744338 
L 492.404231 423.553656 
L 514.780477 439.173476 
L 536.652292 501.536533 
L 581.659586 515.475775 
L 626.168684 629.345455 
L 626.168684 54373.39769 
L 626.168684 54373.39769 
L 581.659586 54373.39769 
L 536.652292 54373.39769 
L 514.780477 54373.39769 
L 492.404231 54373.39769 
L 481.091296 54373.39769 
L 470.033164 54373.39769 
L 458.962605 54373.39769 
z
" style="fill:#8b0000;fill-opacity:0.4;stroke:#8b0000;stroke-opacity:0.4;"/>
   </g>
   <g id="matplotlib.axis_7">
    <g id="xtick_19">
     <g id="line2d_68">
      <g>
       <use style="stroke:#000000;stroke-width:0.8;" x="407.855519" xlink:href="#m85dbc77f89" y="640.8"/>
      </g>
     </g>
     <g id="text_41">
      <!-- 0 -->
      <g transform="translate(404.674269 655.398438)scale(0.1 -0.1)">
       <use xlink:href="#DejaVuSans-48"/>
      </g>
     </g>
    </g>
    <g id="xtick_20">
     <g id="line2d_69">
      <g>
       <use style="stroke:#000000;stroke-width:0.8;" x="452.456786" xlink:href="#m85dbc77f89" y="640.8"/>
      </g>
     </g>
     <g id="text_42">
      <!-- 2 -->
      <g transform="translate(449.275536 655.398438)scale(0.1 -0.1)">
       <use xlink:href="#DejaVuSans-50"/>
      </g>
     </g>
    </g>
    <g id="xtick_21">
     <g id="line2d_70">
      <g>
       <use style="stroke:#000000;stroke-width:0.8;" x="497.058052" xlink:href="#m85dbc77f89" y="640.8"/>
      </g>
     </g>
     <g id="text_43">
      <!-- 4 -->
      <g transform="translate(493.876802 655.398438)scale(0.1 -0.1)">
       <use xlink:href="#DejaVuSans-52"/>
      </g>
     </g>
    </g>
    <g id="xtick_22">
     <g id="line2d_71">
      <g>
       <use style="stroke:#000000;stroke-width:0.8;" x="541.659319" xlink:href="#m85dbc77f89" y="640.8"/>
      </g>
     </g>
     <g id="text_44">
      <!-- 6 -->
      <g transform="translate(538.478069 655.398438)scale(0.1 -0.1)">
       <use xlink:href="#DejaVuSans-54"/>
      </g>
     </g>
    </g>
    <g id="xtick_23">
     <g id="line2d_72">
      <g>
       <use style="stroke:#000000;stroke-width:0.8;" x="586.260585" xlink:href="#m85dbc77f89" y="640.8"/>
      </g>
     </g>
     <g id="text_45">
      <!-- 8 -->
      <g transform="translate(583.079335 655.398438)scale(0.1 -0.1)">
       <use xlink:href="#DejaVuSans-56"/>
      </g>
     </g>
    </g>
    <g id="xtick_24">
     <g id="line2d_73">
      <g>
       <use style="stroke:#000000;stroke-width:0.8;" x="630.861852" xlink:href="#m85dbc77f89" y="640.8"/>
      </g>
     </g>
     <g id="text_46">
      <!-- 10 -->
      <g transform="translate(624.499352 655.398438)scale(0.1 -0.1)">
       <use xlink:href="#DejaVuSans-49"/>
       <use x="63.623047" xlink:href="#DejaVuSans-48"/>
      </g>
     </g>
    </g>
    <g id="text_47">
     <!-- time -->
     <g transform="translate(505.935256 670.59625)scale(0.12 -0.12)">
      <use xlink:href="#DejaVuSans-Bold-116"/>
      <use x="47.802734" xlink:href="#DejaVuSans-Bold-105"/>
      <use x="82.080078" xlink:href="#DejaVuSans-Bold-109"/>
      <use x="186.279297" xlink:href="#DejaVuSans-Bold-101"/>
     </g>
    </g>
   </g>
   <g id="matplotlib.axis_8">
    <g id="ytick_21">
     <g id="line2d_74">
      <g>
       <use style="stroke:#000000;stroke-width:0.8;" x="394.363636" xlink:href="#m27e31106cc" y="617.56633"/>
      </g>
     </g>
     <g id="text_48">
      <!-- $\mathdefault{10^{-5}}$ -->
      <g transform="translate(363.863636 621.365549)scale(0.1 -0.1)">
       <use transform="translate(0 0.684375)" xlink:href="#DejaVuSans-49"/>
       <use transform="translate(63.623047 0.684375)" xlink:href="#DejaVuSans-48"/>
       <use transform="translate(128.203125 38.965625)scale(0.7)" xlink:href="#DejaVuSans-8722"/>
       <use transform="translate(186.855469 38.965625)scale(0.7)" xlink:href="#DejaVuSans-53"/>
      </g>
     </g>
    </g>
    <g id="ytick_22">
     <g id="line2d_75">
      <g>
       <use style="stroke:#000000;stroke-width:0.8;" x="394.363636" xlink:href="#m27e31106cc" y="563.540369"/>
      </g>
     </g>
     <g id="text_49">
      <!-- $\mathdefault{10^{-4}}$ -->
      <g transform="translate(363.863636 567.339588)scale(0.1 -0.1)">
       <use transform="translate(0 0.684375)" xlink:href="#DejaVuSans-49"/>
       <use transform="translate(63.623047 0.684375)" xlink:href="#DejaVuSans-48"/>
       <use transform="translate(128.203125 38.965625)scale(0.7)" xlink:href="#DejaVuSans-8722"/>
       <use transform="translate(186.855469 38.965625)scale(0.7)" xlink:href="#DejaVuSans-52"/>
      </g>
     </g>
    </g>
    <g id="ytick_23">
     <g id="line2d_76">
      <g>
       <use style="stroke:#000000;stroke-width:0.8;" x="394.363636" xlink:href="#m27e31106cc" y="509.514408"/>
      </g>
     </g>
     <g id="text_50">
      <!-- $\mathdefault{10^{-3}}$ -->
      <g transform="translate(363.863636 513.313627)scale(0.1 -0.1)">
       <use transform="translate(0 0.765625)" xlink:href="#DejaVuSans-49"/>
       <use transform="translate(63.623047 0.765625)" xlink:href="#DejaVuSans-48"/>
       <use transform="translate(128.203125 39.046875)scale(0.7)" xlink:href="#DejaVuSans-8722"/>
       <use transform="translate(186.855469 39.046875)scale(0.7)" xlink:href="#DejaVuSans-51"/>
      </g>
     </g>
    </g>
    <g id="ytick_24">
     <g id="line2d_77">
      <g>
       <use style="stroke:#000000;stroke-width:0.8;" x="394.363636" xlink:href="#m27e31106cc" y="455.488447"/>
      </g>
     </g>
     <g id="text_51">
      <!-- $\mathdefault{10^{-2}}$ -->
      <g transform="translate(363.863636 459.287665)scale(0.1 -0.1)">
       <use transform="translate(0 0.765625)" xlink:href="#DejaVuSans-49"/>
       <use transform="translate(63.623047 0.765625)" xlink:href="#DejaVuSans-48"/>
       <use transform="translate(128.203125 39.046875)scale(0.7)" xlink:href="#DejaVuSans-8722"/>
       <use transform="translate(186.855469 39.046875)scale(0.7)" xlink:href="#DejaVuSans-50"/>
      </g>
     </g>
    </g>
    <g id="ytick_25">
     <g id="line2d_78">
      <g>
       <use style="stroke:#000000;stroke-width:0.8;" x="394.363636" xlink:href="#m27e31106cc" y="401.462485"/>
      </g>
     </g>
     <g id="text_52">
      <!-- $\mathdefault{10^{-1}}$ -->
      <g transform="translate(363.863636 405.261704)scale(0.1 -0.1)">
       <use transform="translate(0 0.684375)" xlink:href="#DejaVuSans-49"/>
       <use transform="translate(63.623047 0.684375)" xlink:href="#DejaVuSans-48"/>
       <use transform="translate(128.203125 38.965625)scale(0.7)" xlink:href="#DejaVuSans-8722"/>
       <use transform="translate(186.855469 38.965625)scale(0.7)" xlink:href="#DejaVuSans-49"/>
      </g>
     </g>
    </g>
    <g id="ytick_26">
     <g id="line2d_79">
      <defs>
       <path d="M 0 0 
L -2 0 
" id="m6083f35320" style="stroke:#000000;stroke-width:0.6;"/>
      </defs>
      <g>
       <use style="stroke:#000000;stroke-width:0.6;" x="394.363636" xlink:href="#m6083f35320" y="639.065422"/>
      </g>
     </g>
    </g>
    <g id="ytick_27">
     <g id="line2d_80">
      <g>
       <use style="stroke:#000000;stroke-width:0.6;" x="394.363636" xlink:href="#m6083f35320" y="633.829765"/>
      </g>
     </g>
    </g>
    <g id="ytick_28">
     <g id="line2d_81">
      <g>
       <use style="stroke:#000000;stroke-width:0.6;" x="394.363636" xlink:href="#m6083f35320" y="629.551922"/>
      </g>
     </g>
    </g>
    <g id="ytick_29">
     <g id="line2d_82">
      <g>
       <use style="stroke:#000000;stroke-width:0.6;" x="394.363636" xlink:href="#m6083f35320" y="625.935057"/>
      </g>
     </g>
    </g>
    <g id="ytick_30">
     <g id="line2d_83">
      <g>
       <use style="stroke:#000000;stroke-width:0.6;" x="394.363636" xlink:href="#m6083f35320" y="622.801987"/>
      </g>
     </g>
    </g>
    <g id="ytick_31">
     <g id="line2d_84">
      <g>
       <use style="stroke:#000000;stroke-width:0.6;" x="394.363636" xlink:href="#m6083f35320" y="620.038423"/>
      </g>
     </g>
    </g>
    <g id="ytick_32">
     <g id="line2d_85">
      <g>
       <use style="stroke:#000000;stroke-width:0.6;" x="394.363636" xlink:href="#m6083f35320" y="601.302895"/>
      </g>
     </g>
    </g>
    <g id="ytick_33">
     <g id="line2d_86">
      <g>
       <use style="stroke:#000000;stroke-width:0.6;" x="394.363636" xlink:href="#m6083f35320" y="591.789396"/>
      </g>
     </g>
    </g>
    <g id="ytick_34">
     <g id="line2d_87">
      <g>
       <use style="stroke:#000000;stroke-width:0.6;" x="394.363636" xlink:href="#m6083f35320" y="585.03946"/>
      </g>
     </g>
    </g>
    <g id="ytick_35">
     <g id="line2d_88">
      <g>
       <use style="stroke:#000000;stroke-width:0.6;" x="394.363636" xlink:href="#m6083f35320" y="579.803804"/>
      </g>
     </g>
    </g>
    <g id="ytick_36">
     <g id="line2d_89">
      <g>
       <use style="stroke:#000000;stroke-width:0.6;" x="394.363636" xlink:href="#m6083f35320" y="575.525961"/>
      </g>
     </g>
    </g>
    <g id="ytick_37">
     <g id="line2d_90">
      <g>
       <use style="stroke:#000000;stroke-width:0.6;" x="394.363636" xlink:href="#m6083f35320" y="571.909096"/>
      </g>
     </g>
    </g>
    <g id="ytick_38">
     <g id="line2d_91">
      <g>
       <use style="stroke:#000000;stroke-width:0.6;" x="394.363636" xlink:href="#m6083f35320" y="568.776026"/>
      </g>
     </g>
    </g>
    <g id="ytick_39">
     <g id="line2d_92">
      <g>
       <use style="stroke:#000000;stroke-width:0.6;" x="394.363636" xlink:href="#m6083f35320" y="566.012461"/>
      </g>
     </g>
    </g>
    <g id="ytick_40">
     <g id="line2d_93">
      <g>
       <use style="stroke:#000000;stroke-width:0.6;" x="394.363636" xlink:href="#m6083f35320" y="547.276934"/>
      </g>
     </g>
    </g>
    <g id="ytick_41">
     <g id="line2d_94">
      <g>
       <use style="stroke:#000000;stroke-width:0.6;" x="394.363636" xlink:href="#m6083f35320" y="537.763435"/>
      </g>
     </g>
    </g>
    <g id="ytick_42">
     <g id="line2d_95">
      <g>
       <use style="stroke:#000000;stroke-width:0.6;" x="394.363636" xlink:href="#m6083f35320" y="531.013499"/>
      </g>
     </g>
    </g>
    <g id="ytick_43">
     <g id="line2d_96">
      <g>
       <use style="stroke:#000000;stroke-width:0.6;" x="394.363636" xlink:href="#m6083f35320" y="525.777843"/>
      </g>
     </g>
    </g>
    <g id="ytick_44">
     <g id="line2d_97">
      <g>
       <use style="stroke:#000000;stroke-width:0.6;" x="394.363636" xlink:href="#m6083f35320" y="521.5"/>
      </g>
     </g>
    </g>
    <g id="ytick_45">
     <g id="line2d_98">
      <g>
       <use style="stroke:#000000;stroke-width:0.6;" x="394.363636" xlink:href="#m6083f35320" y="517.883135"/>
      </g>
     </g>
    </g>
    <g id="ytick_46">
     <g id="line2d_99">
      <g>
       <use style="stroke:#000000;stroke-width:0.6;" x="394.363636" xlink:href="#m6083f35320" y="514.750064"/>
      </g>
     </g>
    </g>
    <g id="ytick_47">
     <g id="line2d_100">
      <g>
       <use style="stroke:#000000;stroke-width:0.6;" x="394.363636" xlink:href="#m6083f35320" y="511.9865"/>
      </g>
     </g>
    </g>
    <g id="ytick_48">
     <g id="line2d_101">
      <g>
       <use style="stroke:#000000;stroke-width:0.6;" x="394.363636" xlink:href="#m6083f35320" y="493.250973"/>
      </g>
     </g>
    </g>
    <g id="ytick_49">
     <g id="line2d_102">
      <g>
       <use style="stroke:#000000;stroke-width:0.6;" x="394.363636" xlink:href="#m6083f35320" y="483.737473"/>
      </g>
     </g>
    </g>
    <g id="ytick_50">
     <g id="line2d_103">
      <g>
       <use style="stroke:#000000;stroke-width:0.6;" x="394.363636" xlink:href="#m6083f35320" y="476.987538"/>
      </g>
     </g>
    </g>
    <g id="ytick_51">
     <g id="line2d_104">
      <g>
       <use style="stroke:#000000;stroke-width:0.6;" x="394.363636" xlink:href="#m6083f35320" y="471.751882"/>
      </g>
     </g>
    </g>
    <g id="ytick_52">
     <g id="line2d_105">
      <g>
       <use style="stroke:#000000;stroke-width:0.6;" x="394.363636" xlink:href="#m6083f35320" y="467.474039"/>
      </g>
     </g>
    </g>
    <g id="ytick_53">
     <g id="line2d_106">
      <g>
       <use style="stroke:#000000;stroke-width:0.6;" x="394.363636" xlink:href="#m6083f35320" y="463.857174"/>
      </g>
     </g>
    </g>
    <g id="ytick_54">
     <g id="line2d_107">
      <g>
       <use style="stroke:#000000;stroke-width:0.6;" x="394.363636" xlink:href="#m6083f35320" y="460.724103"/>
      </g>
     </g>
    </g>
    <g id="ytick_55">
     <g id="line2d_108">
      <g>
       <use style="stroke:#000000;stroke-width:0.6;" x="394.363636" xlink:href="#m6083f35320" y="457.960539"/>
      </g>
     </g>
    </g>
    <g id="ytick_56">
     <g id="line2d_109">
      <g>
       <use style="stroke:#000000;stroke-width:0.6;" x="394.363636" xlink:href="#m6083f35320" y="439.225012"/>
      </g>
     </g>
    </g>
    <g id="ytick_57">
     <g id="line2d_110">
      <g>
       <use style="stroke:#000000;stroke-width:0.6;" x="394.363636" xlink:href="#m6083f35320" y="429.711512"/>
      </g>
     </g>
    </g>
    <g id="ytick_58">
     <g id="line2d_111">
      <g>
       <use style="stroke:#000000;stroke-width:0.6;" x="394.363636" xlink:href="#m6083f35320" y="422.961577"/>
      </g>
     </g>
    </g>
    <g id="ytick_59">
     <g id="line2d_112">
      <g>
       <use style="stroke:#000000;stroke-width:0.6;" x="394.363636" xlink:href="#m6083f35320" y="417.72592"/>
      </g>
     </g>
    </g>
    <g id="ytick_60">
     <g id="line2d_113">
      <g>
       <use style="stroke:#000000;stroke-width:0.6;" x="394.363636" xlink:href="#m6083f35320" y="413.448077"/>
      </g>
     </g>
    </g>
    <g id="ytick_61">
     <g id="line2d_114">
      <g>
       <use style="stroke:#000000;stroke-width:0.6;" x="394.363636" xlink:href="#m6083f35320" y="409.831213"/>
      </g>
     </g>
    </g>
    <g id="ytick_62">
     <g id="line2d_115">
      <g>
       <use style="stroke:#000000;stroke-width:0.6;" x="394.363636" xlink:href="#m6083f35320" y="406.698142"/>
      </g>
     </g>
    </g>
    <g id="ytick_63">
     <g id="line2d_116">
      <g>
       <use style="stroke:#000000;stroke-width:0.6;" x="394.363636" xlink:href="#m6083f35320" y="403.934578"/>
      </g>
     </g>
    </g>
   </g>
   <g id="line2d_117">
    <g clip-path="url(#pd2708e19d3)">
     <use style="fill:#ff0000;stroke:#ff0000;" x="458.962605" xlink:href="#mffc1966774" y="400.254545"/>
     <use style="fill:#ff0000;stroke:#ff0000;" x="470.033164" xlink:href="#mffc1966774" y="405.307347"/>
     <use style="fill:#ff0000;stroke:#ff0000;" x="481.091296" xlink:href="#mffc1966774" y="419.744338"/>
     <use style="fill:#ff0000;stroke:#ff0000;" x="492.404231" xlink:href="#mffc1966774" y="423.553656"/>
     <use style="fill:#ff0000;stroke:#ff0000;" x="514.780477" xlink:href="#mffc1966774" y="439.173476"/>
     <use style="fill:#ff0000;stroke:#ff0000;" x="536.652292" xlink:href="#mffc1966774" y="501.536533"/>
     <use style="fill:#ff0000;stroke:#ff0000;" x="581.659586" xlink:href="#mffc1966774" y="515.475775"/>
     <use style="fill:#ff0000;stroke:#ff0000;" x="626.168684" xlink:href="#mffc1966774" y="629.345455"/>
    </g>
   </g>
   <g id="patch_21">
    <path d="M 394.363636 640.8 
L 394.363636 388.8 
" style="fill:none;stroke:#000000;stroke-linecap:square;stroke-linejoin:miter;stroke-width:0.8;"/>
   </g>
   <g id="patch_22">
    <path d="M 648 640.8 
L 648 388.8 
" style="fill:none;stroke:#000000;stroke-linecap:square;stroke-linejoin:miter;stroke-width:0.8;"/>
   </g>
   <g id="patch_23">
    <path d="M 394.363636 640.8 
L 648 640.8 
" style="fill:none;stroke:#000000;stroke-linecap:square;stroke-linejoin:miter;stroke-width:0.8;"/>
   </g>
   <g id="patch_24">
    <path d="M 394.363636 388.8 
L 648 388.8 
" style="fill:none;stroke:#000000;stroke-linecap:square;stroke-linejoin:miter;stroke-width:0.8;"/>
   </g>
   <g id="legend_4">
    <g id="patch_25">
     <path d="M 492.23125 411.478125 
L 641 411.478125 
Q 643 411.478125 643 409.478125 
L 643 395.8 
Q 643 393.8 641 393.8 
L 492.23125 393.8 
Q 490.23125 393.8 490.23125 395.8 
L 490.23125 409.478125 
Q 490.23125 411.478125 492.23125 411.478125 
z
" style="fill:#ffffff;opacity:0.8;stroke:#cccccc;stroke-linejoin:miter;"/>
    </g>
    <g id="line2d_118"/>
    <g id="line2d_119">
     <g>
      <use style="fill:#ff0000;stroke:#ff0000;" x="504.23125" xlink:href="#mffc1966774" y="401.898438"/>
     </g>
    </g>
    <g id="text_53">
     <!-- (weighted residuals)^2 -->
     <g transform="translate(522.23125 405.398438)scale(0.1 -0.1)">
      <use xlink:href="#DejaVuSans-40"/>
      <use x="39.013672" xlink:href="#DejaVuSans-119"/>
      <use x="120.800781" xlink:href="#DejaVuSans-101"/>
      <use x="182.324219" xlink:href="#DejaVuSans-105"/>
      <use x="210.107422" xlink:href="#DejaVuSans-103"/>
      <use x="273.583984" xlink:href="#DejaVuSans-104"/>
      <use x="336.962891" xlink:href="#DejaVuSans-116"/>
      <use x="376.171875" xlink:href="#DejaVuSans-101"/>
      <use x="437.695312" xlink:href="#DejaVuSans-100"/>
      <use x="501.171875" xlink:href="#DejaVuSans-32"/>
      <use x="532.958984" xlink:href="#DejaVuSans-114"/>
      <use x="571.822266" xlink:href="#DejaVuSans-101"/>
      <use x="633.345703" xlink:href="#DejaVuSans-115"/>
      <use x="685.445312" xlink:href="#DejaVuSans-105"/>
      <use x="713.228516" xlink:href="#DejaVuSans-100"/>
      <use x="776.705078" xlink:href="#DejaVuSans-117"/>
      <use x="840.083984" xlink:href="#DejaVuSans-97"/>
      <use x="901.363281" xlink:href="#DejaVuSans-108"/>
      <use x="929.146484" xlink:href="#DejaVuSans-115"/>
      <use x="981.246094" xlink:href="#DejaVuSans-41"/>
      <use x="1020.259766" xlink:href="#DejaVuSans-94"/>
      <use x="1104.048828" xlink:href="#DejaVuSans-50"/>
     </g>
    </g>
   </g>
  </g>
 </g>
 <defs>
  <clipPath id="p9b1ab970fe">
   <rect height="252" width="253.636364" x="90" y="86.4"/>
  </clipPath>
  <clipPath id="p10c18ab7c0">
   <rect height="252" width="253.636364" x="394.363636" y="86.4"/>
  </clipPath>
  <clipPath id="pd1733ca01d">
   <rect height="252" width="253.636364" x="90" y="388.8"/>
  </clipPath>
  <clipPath id="pd2708e19d3">
   <rect height="252" width="253.636364" x="394.363636" y="388.8"/>
  </clipPath>
 </defs>
</svg>
