<?xml version="1.0" encoding="utf-8" standalone="no"?>
<!DOCTYPE svg PUBLIC "-//W3C//DTD SVG 1.1//EN"
  "http://www.w3.org/Graphics/SVG/1.1/DTD/svg11.dtd">
<!-- Created with matplotlib (https://matplotlib.org/) -->
<svg height="720pt" version="1.1" viewBox="0 0 720 720" width="720pt" xmlns="http://www.w3.org/2000/svg" xmlns:xlink="http://www.w3.org/1999/xlink">
 <metadata>
  <rdf:RDF xmlns:cc="http://creativecommons.org/ns#" xmlns:dc="http://purl.org/dc/elements/1.1/" xmlns:rdf="http://www.w3.org/1999/02/22-rdf-syntax-ns#">
   <cc:Work>
    <dc:type rdf:resource="http://purl.org/dc/dcmitype/StillImage"/>
    <dc:date>2021-03-24T12:55:54.146009</dc:date>
    <dc:format>image/svg+xml</dc:format>
    <dc:creator>
     <cc:Agent>
      <dc:title>Matplotlib v3.3.4, https://matplotlib.org/</dc:title>
     </cc:Agent>
    </dc:creator>
   </cc:Work>
  </rdf:RDF>
 </metadata>
 <defs>
  <style type="text/css">*{stroke-linecap:butt;stroke-linejoin:round;}</style>
 </defs>
 <g id="figure_1">
  <g id="patch_1">
   <path d="M 0 720 
L 720 720 
L 720 0 
L 0 0 
z
" style="fill:#ffffff;"/>
  </g>
  <g id="axes_1">
   <g id="patch_2">
    <path d="M 90 338.4 
L 343.636364 338.4 
L 343.636364 86.4 
L 90 86.4 
z
" style="fill:#ffffff;"/>
   </g>
   <g id="PolyCollection_1">
    <defs>
     <path d="M 196.61259 -539.432918 
L 196.61259 -622.145455 
L 200.481644 -565.131486 
L 206.65782 -411.964288 
L 212.535544 -443.619671 
L 218.058325 -393.054545 
L 232.064876 -434.091225 
L 246.314328 -410.849936 
L 273.842562 -443.009936 
L 301.640059 -453.675249 
L 329.767083 -468.728085 
L 329.767083 -539.432918 
L 329.767083 -539.432918 
L 301.640059 -539.432918 
L 273.842562 -539.432918 
L 246.314328 -539.432918 
L 232.064876 -539.432918 
L 218.058325 -539.432918 
L 212.535544 -539.432918 
L 206.65782 -539.432918 
L 200.481644 -539.432918 
L 196.61259 -539.432918 
z
" id="md61dadb53a" style="stroke:#ff8c00;stroke-opacity:0.4;"/>
    </defs>
    <g clip-path="url(#p59754e916d)">
     <use style="fill:#ff8c00;fill-opacity:0.4;stroke:#ff8c00;stroke-opacity:0.4;" x="0" xlink:href="#md61dadb53a" y="720"/>
    </g>
   </g>
   <g id="matplotlib.axis_1">
    <g id="xtick_1">
     <g id="line2d_1">
      <defs>
       <path d="M 0 0 
L 0 3.5 
" id="mc1f445e8d1" style="stroke:#000000;stroke-width:0.8;"/>
      </defs>
      <g>
       <use style="stroke:#000000;stroke-width:0.8;" x="135.69111" xlink:href="#mc1f445e8d1" y="338.4"/>
      </g>
     </g>
    </g>
    <g id="xtick_2">
     <g id="line2d_2">
      <g>
       <use style="stroke:#000000;stroke-width:0.8;" x="191.074274" xlink:href="#mc1f445e8d1" y="338.4"/>
      </g>
     </g>
    </g>
    <g id="xtick_3">
     <g id="line2d_3">
      <g>
       <use style="stroke:#000000;stroke-width:0.8;" x="246.457438" xlink:href="#mc1f445e8d1" y="338.4"/>
      </g>
     </g>
    </g>
    <g id="xtick_4">
     <g id="line2d_4">
      <g>
       <use style="stroke:#000000;stroke-width:0.8;" x="301.840601" xlink:href="#mc1f445e8d1" y="338.4"/>
      </g>
     </g>
    </g>
   </g>
   <g id="matplotlib.axis_2">
    <g id="ytick_1">
     <g id="line2d_5">
      <defs>
       <path d="M 0 0 
L -3.5 0 
" id="mf8e0fac9b3" style="stroke:#000000;stroke-width:0.8;"/>
      </defs>
      <g>
       <use style="stroke:#000000;stroke-width:0.8;" x="90" xlink:href="#mf8e0fac9b3" y="327.784277"/>
      </g>
     </g>
     <g id="text_1">
      <!-- −0.3 -->
      <g transform="translate(58.717187 331.583496)scale(0.1 -0.1)">
       <defs>
        <path d="M 10.59375 35.5 
L 73.1875 35.5 
L 73.1875 27.203125 
L 10.59375 27.203125 
z
" id="DejaVuSans-8722"/>
        <path d="M 31.78125 66.40625 
Q 24.171875 66.40625 20.328125 58.90625 
Q 16.5 51.421875 16.5 36.375 
Q 16.5 21.390625 20.328125 13.890625 
Q 24.171875 6.390625 31.78125 6.390625 
Q 39.453125 6.390625 43.28125 13.890625 
Q 47.125 21.390625 47.125 36.375 
Q 47.125 51.421875 43.28125 58.90625 
Q 39.453125 66.40625 31.78125 66.40625 
z
M 31.78125 74.21875 
Q 44.046875 74.21875 50.515625 64.515625 
Q 56.984375 54.828125 56.984375 36.375 
Q 56.984375 17.96875 50.515625 8.265625 
Q 44.046875 -1.421875 31.78125 -1.421875 
Q 19.53125 -1.421875 13.0625 8.265625 
Q 6.59375 17.96875 6.59375 36.375 
Q 6.59375 54.828125 13.0625 64.515625 
Q 19.53125 74.21875 31.78125 74.21875 
z
" id="DejaVuSans-48"/>
        <path d="M 10.6875 12.40625 
L 21 12.40625 
L 21 0 
L 10.6875 0 
z
" id="DejaVuSans-46"/>
        <path d="M 40.578125 39.3125 
Q 47.65625 37.796875 51.625 33 
Q 55.609375 28.21875 55.609375 21.1875 
Q 55.609375 10.40625 48.1875 4.484375 
Q 40.765625 -1.421875 27.09375 -1.421875 
Q 22.515625 -1.421875 17.65625 -0.515625 
Q 12.796875 0.390625 7.625 2.203125 
L 7.625 11.71875 
Q 11.71875 9.328125 16.59375 8.109375 
Q 21.484375 6.890625 26.8125 6.890625 
Q 36.078125 6.890625 40.9375 10.546875 
Q 45.796875 14.203125 45.796875 21.1875 
Q 45.796875 27.640625 41.28125 31.265625 
Q 36.765625 34.90625 28.71875 34.90625 
L 20.21875 34.90625 
L 20.21875 43.015625 
L 29.109375 43.015625 
Q 36.375 43.015625 40.234375 45.921875 
Q 44.09375 48.828125 44.09375 54.296875 
Q 44.09375 59.90625 40.109375 62.90625 
Q 36.140625 65.921875 28.71875 65.921875 
Q 24.65625 65.921875 20.015625 65.03125 
Q 15.375 64.15625 9.8125 62.3125 
L 9.8125 71.09375 
Q 15.4375 72.65625 20.34375 73.4375 
Q 25.25 74.21875 29.59375 74.21875 
Q 40.828125 74.21875 47.359375 69.109375 
Q 53.90625 64.015625 53.90625 55.328125 
Q 53.90625 49.265625 50.4375 45.09375 
Q 46.96875 40.921875 40.578125 39.3125 
z
" id="DejaVuSans-51"/>
       </defs>
       <use xlink:href="#DejaVuSans-8722"/>
       <use x="83.789062" xlink:href="#DejaVuSans-48"/>
       <use x="147.412109" xlink:href="#DejaVuSans-46"/>
       <use x="179.199219" xlink:href="#DejaVuSans-51"/>
      </g>
     </g>
    </g>
    <g id="ytick_2">
     <g id="line2d_6">
      <g>
       <use style="stroke:#000000;stroke-width:0.8;" x="90" xlink:href="#mf8e0fac9b3" y="278.711879"/>
      </g>
     </g>
     <g id="text_2">
      <!-- −0.2 -->
      <g transform="translate(58.717187 282.511098)scale(0.1 -0.1)">
       <defs>
        <path d="M 19.1875 8.296875 
L 53.609375 8.296875 
L 53.609375 0 
L 7.328125 0 
L 7.328125 8.296875 
Q 12.9375 14.109375 22.625 23.890625 
Q 32.328125 33.6875 34.8125 36.53125 
Q 39.546875 41.84375 41.421875 45.53125 
Q 43.3125 49.21875 43.3125 52.78125 
Q 43.3125 58.59375 39.234375 62.25 
Q 35.15625 65.921875 28.609375 65.921875 
Q 23.96875 65.921875 18.8125 64.3125 
Q 13.671875 62.703125 7.8125 59.421875 
L 7.8125 69.390625 
Q 13.765625 71.78125 18.9375 73 
Q 24.125 74.21875 28.421875 74.21875 
Q 39.75 74.21875 46.484375 68.546875 
Q 53.21875 62.890625 53.21875 53.421875 
Q 53.21875 48.921875 51.53125 44.890625 
Q 49.859375 40.875 45.40625 35.40625 
Q 44.1875 33.984375 37.640625 27.21875 
Q 31.109375 20.453125 19.1875 8.296875 
z
" id="DejaVuSans-50"/>
       </defs>
       <use xlink:href="#DejaVuSans-8722"/>
       <use x="83.789062" xlink:href="#DejaVuSans-48"/>
       <use x="147.412109" xlink:href="#DejaVuSans-46"/>
       <use x="179.199219" xlink:href="#DejaVuSans-50"/>
      </g>
     </g>
    </g>
    <g id="ytick_3">
     <g id="line2d_7">
      <g>
       <use style="stroke:#000000;stroke-width:0.8;" x="90" xlink:href="#mf8e0fac9b3" y="229.639481"/>
      </g>
     </g>
     <g id="text_3">
      <!-- −0.1 -->
      <g transform="translate(58.717187 233.438699)scale(0.1 -0.1)">
       <defs>
        <path d="M 12.40625 8.296875 
L 28.515625 8.296875 
L 28.515625 63.921875 
L 10.984375 60.40625 
L 10.984375 69.390625 
L 28.421875 72.90625 
L 38.28125 72.90625 
L 38.28125 8.296875 
L 54.390625 8.296875 
L 54.390625 0 
L 12.40625 0 
z
" id="DejaVuSans-49"/>
       </defs>
       <use xlink:href="#DejaVuSans-8722"/>
       <use x="83.789062" xlink:href="#DejaVuSans-48"/>
       <use x="147.412109" xlink:href="#DejaVuSans-46"/>
       <use x="179.199219" xlink:href="#DejaVuSans-49"/>
      </g>
     </g>
    </g>
    <g id="ytick_4">
     <g id="line2d_8">
      <g>
       <use style="stroke:#000000;stroke-width:0.8;" x="90" xlink:href="#mf8e0fac9b3" y="180.567082"/>
      </g>
     </g>
     <g id="text_4">
      <!-- 0.0 -->
      <g transform="translate(67.096875 184.366301)scale(0.1 -0.1)">
       <use xlink:href="#DejaVuSans-48"/>
       <use x="63.623047" xlink:href="#DejaVuSans-46"/>
       <use x="95.410156" xlink:href="#DejaVuSans-48"/>
      </g>
     </g>
    </g>
    <g id="ytick_5">
     <g id="line2d_9">
      <g>
       <use style="stroke:#000000;stroke-width:0.8;" x="90" xlink:href="#mf8e0fac9b3" y="131.494684"/>
      </g>
     </g>
     <g id="text_5">
      <!-- 0.1 -->
      <g transform="translate(67.096875 135.293903)scale(0.1 -0.1)">
       <use xlink:href="#DejaVuSans-48"/>
       <use x="63.623047" xlink:href="#DejaVuSans-46"/>
       <use x="95.410156" xlink:href="#DejaVuSans-49"/>
      </g>
     </g>
    </g>
    <g id="text_6">
     <!-- [Cve_icg] -->
     <g transform="translate(51.887812 243.177188)rotate(-90)scale(0.12 -0.12)">
      <defs>
       <path d="M 8.59375 75.984375 
L 38.921875 75.984375 
L 38.921875 64.984375 
L 25.203125 64.984375 
L 25.203125 -2.203125 
L 38.921875 -2.203125 
L 38.921875 -13.1875 
L 8.59375 -13.1875 
z
" id="DejaVuSans-Bold-91"/>
       <path d="M 67 4 
Q 61.8125 1.3125 56.203125 -0.046875 
Q 50.59375 -1.421875 44.484375 -1.421875 
Q 26.265625 -1.421875 15.625 8.765625 
Q 4.984375 18.953125 4.984375 36.375 
Q 4.984375 53.859375 15.625 64.03125 
Q 26.265625 74.21875 44.484375 74.21875 
Q 50.59375 74.21875 56.203125 72.84375 
Q 61.8125 71.484375 67 68.796875 
L 67 53.71875 
Q 61.765625 57.28125 56.6875 58.9375 
Q 51.609375 60.59375 46 60.59375 
Q 35.9375 60.59375 30.171875 54.140625 
Q 24.421875 47.703125 24.421875 36.375 
Q 24.421875 25.09375 30.171875 18.640625 
Q 35.9375 12.203125 46 12.203125 
Q 51.609375 12.203125 56.6875 13.859375 
Q 61.765625 15.53125 67 19.09375 
z
" id="DejaVuSans-Bold-67"/>
       <path d="M 1.515625 54.6875 
L 19 54.6875 
L 32.625 16.890625 
L 46.1875 54.6875 
L 63.71875 54.6875 
L 42.1875 0 
L 23 0 
z
" id="DejaVuSans-Bold-118"/>
       <path d="M 62.984375 27.484375 
L 62.984375 22.515625 
L 22.125 22.515625 
Q 22.75 16.359375 26.5625 13.28125 
Q 30.375 10.203125 37.203125 10.203125 
Q 42.71875 10.203125 48.5 11.84375 
Q 54.296875 13.484375 60.40625 16.796875 
L 60.40625 3.328125 
Q 54.203125 0.984375 48 -0.21875 
Q 41.796875 -1.421875 35.59375 -1.421875 
Q 20.75 -1.421875 12.515625 6.125 
Q 4.296875 13.671875 4.296875 27.296875 
Q 4.296875 40.671875 12.375 48.328125 
Q 20.453125 56 34.625 56 
Q 47.515625 56 55.25 48.234375 
Q 62.984375 40.484375 62.984375 27.484375 
z
M 45.015625 33.296875 
Q 45.015625 38.28125 42.109375 41.328125 
Q 39.203125 44.390625 34.515625 44.390625 
Q 29.4375 44.390625 26.265625 41.53125 
Q 23.09375 38.671875 22.3125 33.296875 
z
" id="DejaVuSans-Bold-101"/>
       <path d="M 50 -14.3125 
L 50 -23.578125 
L 0 -23.578125 
L 0 -14.3125 
z
" id="DejaVuSans-Bold-95"/>
       <path d="M 8.40625 54.6875 
L 25.875 54.6875 
L 25.875 0 
L 8.40625 0 
z
M 8.40625 75.984375 
L 25.875 75.984375 
L 25.875 61.71875 
L 8.40625 61.71875 
z
" id="DejaVuSans-Bold-105"/>
       <path d="M 52.59375 52.984375 
L 52.59375 38.71875 
Q 49.03125 41.15625 45.4375 42.328125 
Q 41.84375 43.5 37.984375 43.5 
Q 30.671875 43.5 26.59375 39.234375 
Q 22.515625 34.96875 22.515625 27.296875 
Q 22.515625 19.625 26.59375 15.34375 
Q 30.671875 11.078125 37.984375 11.078125 
Q 42.09375 11.078125 45.78125 12.296875 
Q 49.46875 13.53125 52.59375 15.921875 
L 52.59375 1.609375 
Q 48.484375 0.09375 44.265625 -0.65625 
Q 40.046875 -1.421875 35.796875 -1.421875 
Q 21 -1.421875 12.640625 6.171875 
Q 4.296875 13.765625 4.296875 27.296875 
Q 4.296875 40.828125 12.640625 48.40625 
Q 21 56 35.796875 56 
Q 40.09375 56 44.265625 55.25 
Q 48.4375 54.5 52.59375 52.984375 
z
" id="DejaVuSans-Bold-99"/>
       <path d="M 45.609375 9.28125 
Q 42 4.5 37.640625 2.25 
Q 33.296875 0 27.59375 0 
Q 17.578125 0 11.03125 7.875 
Q 4.5 15.765625 4.5 27.984375 
Q 4.5 40.234375 11.03125 48.0625 
Q 17.578125 55.90625 27.59375 55.90625 
Q 33.296875 55.90625 37.640625 53.65625 
Q 42 51.421875 45.609375 46.578125 
L 45.609375 54.6875 
L 63.1875 54.6875 
L 63.1875 5.515625 
Q 63.1875 -7.671875 54.859375 -14.625 
Q 46.53125 -21.578125 30.71875 -21.578125 
Q 25.59375 -21.578125 20.796875 -20.796875 
Q 16.015625 -20.015625 11.1875 -18.40625 
L 11.1875 -4.78125 
Q 15.765625 -7.421875 20.15625 -8.71875 
Q 24.5625 -10.015625 29 -10.015625 
Q 37.59375 -10.015625 41.59375 -6.25 
Q 45.609375 -2.484375 45.609375 5.515625 
z
M 34.078125 43.3125 
Q 28.65625 43.3125 25.625 39.296875 
Q 22.609375 35.296875 22.609375 27.984375 
Q 22.609375 20.453125 25.53125 16.578125 
Q 28.46875 12.703125 34.078125 12.703125 
Q 39.546875 12.703125 42.578125 16.703125 
Q 45.609375 20.703125 45.609375 27.984375 
Q 45.609375 35.296875 42.578125 39.296875 
Q 39.546875 43.3125 34.078125 43.3125 
z
" id="DejaVuSans-Bold-103"/>
       <path d="M 37.109375 -13.1875 
L 6.78125 -13.1875 
L 6.78125 -2.203125 
L 20.515625 -2.203125 
L 20.515625 64.984375 
L 6.78125 64.984375 
L 6.78125 75.984375 
L 37.109375 75.984375 
z
" id="DejaVuSans-Bold-93"/>
      </defs>
      <use xlink:href="#DejaVuSans-Bold-91"/>
      <use x="45.703125" xlink:href="#DejaVuSans-Bold-67"/>
      <use x="119.091797" xlink:href="#DejaVuSans-Bold-118"/>
      <use x="184.277344" xlink:href="#DejaVuSans-Bold-101"/>
      <use x="252.099609" xlink:href="#DejaVuSans-Bold-95"/>
      <use x="302.099609" xlink:href="#DejaVuSans-Bold-105"/>
      <use x="336.376953" xlink:href="#DejaVuSans-Bold-99"/>
      <use x="395.654297" xlink:href="#DejaVuSans-Bold-103"/>
      <use x="467.236328" xlink:href="#DejaVuSans-Bold-93"/>
     </g>
    </g>
   </g>
   <g id="line2d_10">
    <path clip-path="url(#p59754e916d)" d="M 90 180.567082 
L 343.636364 180.567082 
" style="fill:none;stroke:#000000;stroke-linecap:square;stroke-width:1.5;"/>
   </g>
   <g id="line2d_11">
    <defs>
     <path d="M 0 3 
C 0.795609 3 1.55874 2.683901 2.12132 2.12132 
C 2.683901 1.55874 3 0.795609 3 0 
C 3 -0.795609 2.683901 -1.55874 2.12132 -2.12132 
C 1.55874 -2.683901 0.795609 -3 0 -3 
C -0.795609 -3 -1.55874 -2.683901 -2.12132 -2.12132 
C -2.683901 -1.55874 -3 -0.795609 -3 0 
C -3 0.795609 -2.683901 1.55874 -2.12132 2.12132 
C -1.55874 2.683901 -0.795609 3 0 3 
z
" id="mb07f89460e" style="stroke:#ff8c00;"/>
    </defs>
    <g clip-path="url(#p59754e916d)">
     <use style="fill:#ff8c00;stroke:#ff8c00;" x="196.61259" xlink:href="#mb07f89460e" y="97.854545"/>
     <use style="fill:#ff8c00;stroke:#ff8c00;" x="200.481644" xlink:href="#mb07f89460e" y="154.868514"/>
     <use style="fill:#ff8c00;stroke:#ff8c00;" x="206.65782" xlink:href="#mb07f89460e" y="308.035712"/>
     <use style="fill:#ff8c00;stroke:#ff8c00;" x="212.535544" xlink:href="#mb07f89460e" y="276.380329"/>
     <use style="fill:#ff8c00;stroke:#ff8c00;" x="218.058325" xlink:href="#mb07f89460e" y="326.945455"/>
     <use style="fill:#ff8c00;stroke:#ff8c00;" x="232.064876" xlink:href="#mb07f89460e" y="285.908775"/>
     <use style="fill:#ff8c00;stroke:#ff8c00;" x="246.314328" xlink:href="#mb07f89460e" y="309.150064"/>
     <use style="fill:#ff8c00;stroke:#ff8c00;" x="273.842562" xlink:href="#mb07f89460e" y="276.990064"/>
     <use style="fill:#ff8c00;stroke:#ff8c00;" x="301.640059" xlink:href="#mb07f89460e" y="266.324751"/>
     <use style="fill:#ff8c00;stroke:#ff8c00;" x="329.767083" xlink:href="#mb07f89460e" y="251.271915"/>
    </g>
   </g>
   <g id="line2d_12">
    <path clip-path="url(#p59754e916d)" d="M 191.074274 180.567082 
L 191.338631 173.581468 
L 191.572323 171.723693 
L 191.749721 171.450389 
L 191.897552 171.545427 
L 192.341047 172.273454 
L 192.902807 172.994064 
L 193.582832 173.48075 
L 195.048016 174.178386 
L 198.105327 175.396288 
L 200.923462 176.32659 
L 204.438784 177.268032 
L 208.539993 178.115463 
L 213.175685 178.821145 
L 217.982182 179.342995 
L 223.718147 179.768129 
L 231.531016 180.121696 
L 242.650603 180.37388 
L 261.23256 180.519422 
L 306.806439 180.56555 
L 721 180.567082 
L 721 180.567082 
" style="fill:none;stroke:#0000ff;stroke-linecap:square;stroke-width:1.5;"/>
   </g>
   <g id="line2d_13">
    <defs>
     <path d="M 0 3 
C 0.795609 3 1.55874 2.683901 2.12132 2.12132 
C 2.683901 1.55874 3 0.795609 3 0 
C 3 -0.795609 2.683901 -1.55874 2.12132 -2.12132 
C 1.55874 -2.683901 0.795609 -3 0 -3 
C -0.795609 -3 -1.55874 -2.683901 -2.12132 -2.12132 
C -2.683901 -1.55874 -3 -0.795609 -3 0 
C -3 0.795609 -2.683901 1.55874 -2.12132 2.12132 
C -1.55874 2.683901 -0.795609 3 0 3 
z
" id="mb353e1d034" style="stroke:#0000ff;"/>
    </defs>
    <g clip-path="url(#p59754e916d)">
     <use style="fill:#0000ff;stroke:#0000ff;" x="196.61259" xlink:href="#mb353e1d034" y="174.83063"/>
     <use style="fill:#0000ff;stroke:#0000ff;" x="200.481644" xlink:href="#mb353e1d034" y="176.191193"/>
     <use style="fill:#0000ff;stroke:#0000ff;" x="206.65782" xlink:href="#mb353e1d034" y="177.755887"/>
     <use style="fill:#0000ff;stroke:#0000ff;" x="212.535544" xlink:href="#mb353e1d034" y="178.736974"/>
     <use style="fill:#0000ff;stroke:#0000ff;" x="218.058325" xlink:href="#mb353e1d034" y="179.34967"/>
     <use style="fill:#0000ff;stroke:#0000ff;" x="232.064876" xlink:href="#mb353e1d034" y="180.138521"/>
     <use style="fill:#0000ff;stroke:#0000ff;" x="246.314328" xlink:href="#mb353e1d034" y="180.420273"/>
     <use style="fill:#0000ff;stroke:#0000ff;" x="273.842562" xlink:href="#mb353e1d034" y="180.548658"/>
     <use style="fill:#0000ff;stroke:#0000ff;" x="301.640059" xlink:href="#mb353e1d034" y="180.564815"/>
     <use style="fill:#0000ff;stroke:#0000ff;" x="329.767083" xlink:href="#mb353e1d034" y="180.566806"/>
    </g>
   </g>
   <g id="line2d_14">
    <defs>
     <path d="M -3 3 
L 3 3 
L 3 -3 
L -3 -3 
z
" id="mbf2e3a19aa" style="stroke:#000000;stroke-linejoin:miter;"/>
    </defs>
    <g clip-path="url(#p59754e916d)">
     <use style="stroke:#000000;stroke-linejoin:miter;" x="196.61259" xlink:href="#mbf2e3a19aa" y="175.160101"/>
     <use style="stroke:#000000;stroke-linejoin:miter;" x="200.481644" xlink:href="#mbf2e3a19aa" y="176.293559"/>
     <use style="stroke:#000000;stroke-linejoin:miter;" x="206.65782" xlink:href="#mbf2e3a19aa" y="177.248137"/>
     <use style="stroke:#000000;stroke-linejoin:miter;" x="212.535544" xlink:href="#mbf2e3a19aa" y="178.355318"/>
     <use style="stroke:#000000;stroke-linejoin:miter;" x="218.058325" xlink:href="#mbf2e3a19aa" y="178.766597"/>
     <use style="stroke:#000000;stroke-linejoin:miter;" x="232.064876" xlink:href="#mbf2e3a19aa" y="179.71891"/>
     <use style="stroke:#000000;stroke-linejoin:miter;" x="246.314328" xlink:href="#mbf2e3a19aa" y="179.908084"/>
     <use style="stroke:#000000;stroke-linejoin:miter;" x="273.842562" xlink:href="#mbf2e3a19aa" y="180.164573"/>
     <use style="stroke:#000000;stroke-linejoin:miter;" x="301.640059" xlink:href="#mbf2e3a19aa" y="180.223214"/>
     <use style="stroke:#000000;stroke-linejoin:miter;" x="329.767083" xlink:href="#mbf2e3a19aa" y="180.285165"/>
    </g>
   </g>
   <g id="patch_3">
    <path d="M 90 338.4 
L 90 86.4 
" style="fill:none;stroke:#000000;stroke-linecap:square;stroke-linejoin:miter;stroke-width:0.8;"/>
   </g>
   <g id="patch_4">
    <path d="M 343.636364 338.4 
L 343.636364 86.4 
" style="fill:none;stroke:#000000;stroke-linecap:square;stroke-linejoin:miter;stroke-width:0.8;"/>
   </g>
   <g id="patch_5">
    <path d="M 90 338.4 
L 343.636364 338.4 
" style="fill:none;stroke:#000000;stroke-linecap:square;stroke-linejoin:miter;stroke-width:0.8;"/>
   </g>
   <g id="patch_6">
    <path d="M 90 86.4 
L 343.636364 86.4 
" style="fill:none;stroke:#000000;stroke-linecap:square;stroke-linejoin:miter;stroke-width:0.8;"/>
   </g>
   <g id="text_7">
    <!-- Meijer1988.fm_Cve_icg_0.5 -->
    <g transform="translate(120.866776 80.4)scale(0.14 -0.14)">
     <defs>
      <path d="M 9.8125 72.90625 
L 24.515625 72.90625 
L 43.109375 23.296875 
L 61.8125 72.90625 
L 76.515625 72.90625 
L 76.515625 0 
L 66.890625 0 
L 66.890625 64.015625 
L 48.09375 14.015625 
L 38.1875 14.015625 
L 19.390625 64.015625 
L 19.390625 0 
L 9.8125 0 
z
" id="DejaVuSans-77"/>
      <path d="M 56.203125 29.59375 
L 56.203125 25.203125 
L 14.890625 25.203125 
Q 15.484375 15.921875 20.484375 11.0625 
Q 25.484375 6.203125 34.421875 6.203125 
Q 39.59375 6.203125 44.453125 7.46875 
Q 49.3125 8.734375 54.109375 11.28125 
L 54.109375 2.78125 
Q 49.265625 0.734375 44.1875 -0.34375 
Q 39.109375 -1.421875 33.890625 -1.421875 
Q 20.796875 -1.421875 13.15625 6.1875 
Q 5.515625 13.8125 5.515625 26.8125 
Q 5.515625 40.234375 12.765625 48.109375 
Q 20.015625 56 32.328125 56 
Q 43.359375 56 49.78125 48.890625 
Q 56.203125 41.796875 56.203125 29.59375 
z
M 47.21875 32.234375 
Q 47.125 39.59375 43.09375 43.984375 
Q 39.0625 48.390625 32.421875 48.390625 
Q 24.90625 48.390625 20.390625 44.140625 
Q 15.875 39.890625 15.1875 32.171875 
z
" id="DejaVuSans-101"/>
      <path d="M 9.421875 54.6875 
L 18.40625 54.6875 
L 18.40625 0 
L 9.421875 0 
z
M 9.421875 75.984375 
L 18.40625 75.984375 
L 18.40625 64.59375 
L 9.421875 64.59375 
z
" id="DejaVuSans-105"/>
      <path d="M 9.421875 54.6875 
L 18.40625 54.6875 
L 18.40625 -0.984375 
Q 18.40625 -11.421875 14.421875 -16.109375 
Q 10.453125 -20.796875 1.609375 -20.796875 
L -1.8125 -20.796875 
L -1.8125 -13.1875 
L 0.59375 -13.1875 
Q 5.71875 -13.1875 7.5625 -10.8125 
Q 9.421875 -8.453125 9.421875 -0.984375 
z
M 9.421875 75.984375 
L 18.40625 75.984375 
L 18.40625 64.59375 
L 9.421875 64.59375 
z
" id="DejaVuSans-106"/>
      <path d="M 41.109375 46.296875 
Q 39.59375 47.171875 37.8125 47.578125 
Q 36.03125 48 33.890625 48 
Q 26.265625 48 22.1875 43.046875 
Q 18.109375 38.09375 18.109375 28.8125 
L 18.109375 0 
L 9.078125 0 
L 9.078125 54.6875 
L 18.109375 54.6875 
L 18.109375 46.1875 
Q 20.953125 51.171875 25.484375 53.578125 
Q 30.03125 56 36.53125 56 
Q 37.453125 56 38.578125 55.875 
Q 39.703125 55.765625 41.0625 55.515625 
z
" id="DejaVuSans-114"/>
      <path d="M 10.984375 1.515625 
L 10.984375 10.5 
Q 14.703125 8.734375 18.5 7.8125 
Q 22.3125 6.890625 25.984375 6.890625 
Q 35.75 6.890625 40.890625 13.453125 
Q 46.046875 20.015625 46.78125 33.40625 
Q 43.953125 29.203125 39.59375 26.953125 
Q 35.25 24.703125 29.984375 24.703125 
Q 19.046875 24.703125 12.671875 31.3125 
Q 6.296875 37.9375 6.296875 49.421875 
Q 6.296875 60.640625 12.9375 67.421875 
Q 19.578125 74.21875 30.609375 74.21875 
Q 43.265625 74.21875 49.921875 64.515625 
Q 56.59375 54.828125 56.59375 36.375 
Q 56.59375 19.140625 48.40625 8.859375 
Q 40.234375 -1.421875 26.421875 -1.421875 
Q 22.703125 -1.421875 18.890625 -0.6875 
Q 15.09375 0.046875 10.984375 1.515625 
z
M 30.609375 32.421875 
Q 37.25 32.421875 41.125 36.953125 
Q 45.015625 41.5 45.015625 49.421875 
Q 45.015625 57.28125 41.125 61.84375 
Q 37.25 66.40625 30.609375 66.40625 
Q 23.96875 66.40625 20.09375 61.84375 
Q 16.21875 57.28125 16.21875 49.421875 
Q 16.21875 41.5 20.09375 36.953125 
Q 23.96875 32.421875 30.609375 32.421875 
z
" id="DejaVuSans-57"/>
      <path d="M 31.78125 34.625 
Q 24.75 34.625 20.71875 30.859375 
Q 16.703125 27.09375 16.703125 20.515625 
Q 16.703125 13.921875 20.71875 10.15625 
Q 24.75 6.390625 31.78125 6.390625 
Q 38.8125 6.390625 42.859375 10.171875 
Q 46.921875 13.96875 46.921875 20.515625 
Q 46.921875 27.09375 42.890625 30.859375 
Q 38.875 34.625 31.78125 34.625 
z
M 21.921875 38.8125 
Q 15.578125 40.375 12.03125 44.71875 
Q 8.5 49.078125 8.5 55.328125 
Q 8.5 64.0625 14.71875 69.140625 
Q 20.953125 74.21875 31.78125 74.21875 
Q 42.671875 74.21875 48.875 69.140625 
Q 55.078125 64.0625 55.078125 55.328125 
Q 55.078125 49.078125 51.53125 44.71875 
Q 48 40.375 41.703125 38.8125 
Q 48.828125 37.15625 52.796875 32.3125 
Q 56.78125 27.484375 56.78125 20.515625 
Q 56.78125 9.90625 50.3125 4.234375 
Q 43.84375 -1.421875 31.78125 -1.421875 
Q 19.734375 -1.421875 13.25 4.234375 
Q 6.78125 9.90625 6.78125 20.515625 
Q 6.78125 27.484375 10.78125 32.3125 
Q 14.796875 37.15625 21.921875 38.8125 
z
M 18.3125 54.390625 
Q 18.3125 48.734375 21.84375 45.5625 
Q 25.390625 42.390625 31.78125 42.390625 
Q 38.140625 42.390625 41.71875 45.5625 
Q 45.3125 48.734375 45.3125 54.390625 
Q 45.3125 60.0625 41.71875 63.234375 
Q 38.140625 66.40625 31.78125 66.40625 
Q 25.390625 66.40625 21.84375 63.234375 
Q 18.3125 60.0625 18.3125 54.390625 
z
" id="DejaVuSans-56"/>
      <path d="M 37.109375 75.984375 
L 37.109375 68.5 
L 28.515625 68.5 
Q 23.6875 68.5 21.796875 66.546875 
Q 19.921875 64.59375 19.921875 59.515625 
L 19.921875 54.6875 
L 34.71875 54.6875 
L 34.71875 47.703125 
L 19.921875 47.703125 
L 19.921875 0 
L 10.890625 0 
L 10.890625 47.703125 
L 2.296875 47.703125 
L 2.296875 54.6875 
L 10.890625 54.6875 
L 10.890625 58.5 
Q 10.890625 67.625 15.140625 71.796875 
Q 19.390625 75.984375 28.609375 75.984375 
z
" id="DejaVuSans-102"/>
      <path d="M 52 44.1875 
Q 55.375 50.25 60.0625 53.125 
Q 64.75 56 71.09375 56 
Q 79.640625 56 84.28125 50.015625 
Q 88.921875 44.046875 88.921875 33.015625 
L 88.921875 0 
L 79.890625 0 
L 79.890625 32.71875 
Q 79.890625 40.578125 77.09375 44.375 
Q 74.3125 48.1875 68.609375 48.1875 
Q 61.625 48.1875 57.5625 43.546875 
Q 53.515625 38.921875 53.515625 30.90625 
L 53.515625 0 
L 44.484375 0 
L 44.484375 32.71875 
Q 44.484375 40.625 41.703125 44.40625 
Q 38.921875 48.1875 33.109375 48.1875 
Q 26.21875 48.1875 22.15625 43.53125 
Q 18.109375 38.875 18.109375 30.90625 
L 18.109375 0 
L 9.078125 0 
L 9.078125 54.6875 
L 18.109375 54.6875 
L 18.109375 46.1875 
Q 21.1875 51.21875 25.484375 53.609375 
Q 29.78125 56 35.6875 56 
Q 41.65625 56 45.828125 52.96875 
Q 50 49.953125 52 44.1875 
z
" id="DejaVuSans-109"/>
      <path d="M 50.984375 -16.609375 
L 50.984375 -23.578125 
L -0.984375 -23.578125 
L -0.984375 -16.609375 
z
" id="DejaVuSans-95"/>
      <path d="M 64.40625 67.28125 
L 64.40625 56.890625 
Q 59.421875 61.53125 53.78125 63.8125 
Q 48.140625 66.109375 41.796875 66.109375 
Q 29.296875 66.109375 22.65625 58.46875 
Q 16.015625 50.828125 16.015625 36.375 
Q 16.015625 21.96875 22.65625 14.328125 
Q 29.296875 6.6875 41.796875 6.6875 
Q 48.140625 6.6875 53.78125 8.984375 
Q 59.421875 11.28125 64.40625 15.921875 
L 64.40625 5.609375 
Q 59.234375 2.09375 53.4375 0.328125 
Q 47.65625 -1.421875 41.21875 -1.421875 
Q 24.65625 -1.421875 15.125 8.703125 
Q 5.609375 18.84375 5.609375 36.375 
Q 5.609375 53.953125 15.125 64.078125 
Q 24.65625 74.21875 41.21875 74.21875 
Q 47.75 74.21875 53.53125 72.484375 
Q 59.328125 70.75 64.40625 67.28125 
z
" id="DejaVuSans-67"/>
      <path d="M 2.984375 54.6875 
L 12.5 54.6875 
L 29.59375 8.796875 
L 46.6875 54.6875 
L 56.203125 54.6875 
L 35.6875 0 
L 23.484375 0 
z
" id="DejaVuSans-118"/>
      <path d="M 48.78125 52.59375 
L 48.78125 44.1875 
Q 44.96875 46.296875 41.140625 47.34375 
Q 37.3125 48.390625 33.40625 48.390625 
Q 24.65625 48.390625 19.8125 42.84375 
Q 14.984375 37.3125 14.984375 27.296875 
Q 14.984375 17.28125 19.8125 11.734375 
Q 24.65625 6.203125 33.40625 6.203125 
Q 37.3125 6.203125 41.140625 7.25 
Q 44.96875 8.296875 48.78125 10.40625 
L 48.78125 2.09375 
Q 45.015625 0.34375 40.984375 -0.53125 
Q 36.96875 -1.421875 32.421875 -1.421875 
Q 20.0625 -1.421875 12.78125 6.34375 
Q 5.515625 14.109375 5.515625 27.296875 
Q 5.515625 40.671875 12.859375 48.328125 
Q 20.21875 56 33.015625 56 
Q 37.15625 56 41.109375 55.140625 
Q 45.0625 54.296875 48.78125 52.59375 
z
" id="DejaVuSans-99"/>
      <path d="M 45.40625 27.984375 
Q 45.40625 37.75 41.375 43.109375 
Q 37.359375 48.484375 30.078125 48.484375 
Q 22.859375 48.484375 18.828125 43.109375 
Q 14.796875 37.75 14.796875 27.984375 
Q 14.796875 18.265625 18.828125 12.890625 
Q 22.859375 7.515625 30.078125 7.515625 
Q 37.359375 7.515625 41.375 12.890625 
Q 45.40625 18.265625 45.40625 27.984375 
z
M 54.390625 6.78125 
Q 54.390625 -7.171875 48.1875 -13.984375 
Q 42 -20.796875 29.203125 -20.796875 
Q 24.46875 -20.796875 20.265625 -20.09375 
Q 16.0625 -19.390625 12.109375 -17.921875 
L 12.109375 -9.1875 
Q 16.0625 -11.328125 19.921875 -12.34375 
Q 23.78125 -13.375 27.78125 -13.375 
Q 36.625 -13.375 41.015625 -8.765625 
Q 45.40625 -4.15625 45.40625 5.171875 
L 45.40625 9.625 
Q 42.625 4.78125 38.28125 2.390625 
Q 33.9375 0 27.875 0 
Q 17.828125 0 11.671875 7.65625 
Q 5.515625 15.328125 5.515625 27.984375 
Q 5.515625 40.671875 11.671875 48.328125 
Q 17.828125 56 27.875 56 
Q 33.9375 56 38.28125 53.609375 
Q 42.625 51.21875 45.40625 46.390625 
L 45.40625 54.6875 
L 54.390625 54.6875 
z
" id="DejaVuSans-103"/>
      <path d="M 10.796875 72.90625 
L 49.515625 72.90625 
L 49.515625 64.59375 
L 19.828125 64.59375 
L 19.828125 46.734375 
Q 21.96875 47.46875 24.109375 47.828125 
Q 26.265625 48.1875 28.421875 48.1875 
Q 40.625 48.1875 47.75 41.5 
Q 54.890625 34.8125 54.890625 23.390625 
Q 54.890625 11.625 47.5625 5.09375 
Q 40.234375 -1.421875 26.90625 -1.421875 
Q 22.3125 -1.421875 17.546875 -0.640625 
Q 12.796875 0.140625 7.71875 1.703125 
L 7.71875 11.625 
Q 12.109375 9.234375 16.796875 8.0625 
Q 21.484375 6.890625 26.703125 6.890625 
Q 35.15625 6.890625 40.078125 11.328125 
Q 45.015625 15.765625 45.015625 23.390625 
Q 45.015625 31 40.078125 35.4375 
Q 35.15625 39.890625 26.703125 39.890625 
Q 22.75 39.890625 18.8125 39.015625 
Q 14.890625 38.140625 10.796875 36.28125 
z
" id="DejaVuSans-53"/>
     </defs>
     <use xlink:href="#DejaVuSans-77"/>
     <use x="86.279297" xlink:href="#DejaVuSans-101"/>
     <use x="147.802734" xlink:href="#DejaVuSans-105"/>
     <use x="175.585938" xlink:href="#DejaVuSans-106"/>
     <use x="203.369141" xlink:href="#DejaVuSans-101"/>
     <use x="264.892578" xlink:href="#DejaVuSans-114"/>
     <use x="306.005859" xlink:href="#DejaVuSans-49"/>
     <use x="369.628906" xlink:href="#DejaVuSans-57"/>
     <use x="433.251953" xlink:href="#DejaVuSans-56"/>
     <use x="496.875" xlink:href="#DejaVuSans-56"/>
     <use x="560.498047" xlink:href="#DejaVuSans-46"/>
     <use x="592.285156" xlink:href="#DejaVuSans-102"/>
     <use x="627.490234" xlink:href="#DejaVuSans-109"/>
     <use x="724.902344" xlink:href="#DejaVuSans-95"/>
     <use x="774.902344" xlink:href="#DejaVuSans-67"/>
     <use x="844.726562" xlink:href="#DejaVuSans-118"/>
     <use x="903.90625" xlink:href="#DejaVuSans-101"/>
     <use x="965.429688" xlink:href="#DejaVuSans-95"/>
     <use x="1015.429688" xlink:href="#DejaVuSans-105"/>
     <use x="1043.212891" xlink:href="#DejaVuSans-99"/>
     <use x="1098.193359" xlink:href="#DejaVuSans-103"/>
     <use x="1161.669922" xlink:href="#DejaVuSans-95"/>
     <use x="1211.669922" xlink:href="#DejaVuSans-48"/>
     <use x="1275.292969" xlink:href="#DejaVuSans-46"/>
     <use x="1307.080078" xlink:href="#DejaVuSans-53"/>
    </g>
   </g>
   <g id="legend_1">
    <g id="patch_7">
     <path d="M 229.370739 153.390625 
L 336.636364 153.390625 
Q 338.636364 153.390625 338.636364 151.390625 
L 338.636364 93.4 
Q 338.636364 91.4 336.636364 91.4 
L 229.370739 91.4 
Q 227.370739 91.4 227.370739 93.4 
L 227.370739 151.390625 
Q 227.370739 153.390625 229.370739 153.390625 
z
" style="fill:#ffffff;opacity:0.8;stroke:#cccccc;stroke-linejoin:miter;"/>
    </g>
    <g id="line2d_15"/>
    <g id="line2d_16">
     <g>
      <use style="fill:#ff8c00;stroke:#ff8c00;" x="241.370739" xlink:href="#mb07f89460e" y="99.498438"/>
     </g>
    </g>
    <g id="text_8">
     <!-- residuals -->
     <g transform="translate(259.370739 102.998438)scale(0.1 -0.1)">
      <defs>
       <path d="M 44.28125 53.078125 
L 44.28125 44.578125 
Q 40.484375 46.53125 36.375 47.5 
Q 32.28125 48.484375 27.875 48.484375 
Q 21.1875 48.484375 17.84375 46.4375 
Q 14.5 44.390625 14.5 40.28125 
Q 14.5 37.15625 16.890625 35.375 
Q 19.28125 33.59375 26.515625 31.984375 
L 29.59375 31.296875 
Q 39.15625 29.25 43.1875 25.515625 
Q 47.21875 21.78125 47.21875 15.09375 
Q 47.21875 7.46875 41.1875 3.015625 
Q 35.15625 -1.421875 24.609375 -1.421875 
Q 20.21875 -1.421875 15.453125 -0.5625 
Q 10.6875 0.296875 5.421875 2 
L 5.421875 11.28125 
Q 10.40625 8.6875 15.234375 7.390625 
Q 20.0625 6.109375 24.8125 6.109375 
Q 31.15625 6.109375 34.5625 8.28125 
Q 37.984375 10.453125 37.984375 14.40625 
Q 37.984375 18.0625 35.515625 20.015625 
Q 33.0625 21.96875 24.703125 23.78125 
L 21.578125 24.515625 
Q 13.234375 26.265625 9.515625 29.90625 
Q 5.8125 33.546875 5.8125 39.890625 
Q 5.8125 47.609375 11.28125 51.796875 
Q 16.75 56 26.8125 56 
Q 31.78125 56 36.171875 55.265625 
Q 40.578125 54.546875 44.28125 53.078125 
z
" id="DejaVuSans-115"/>
       <path d="M 45.40625 46.390625 
L 45.40625 75.984375 
L 54.390625 75.984375 
L 54.390625 0 
L 45.40625 0 
L 45.40625 8.203125 
Q 42.578125 3.328125 38.25 0.953125 
Q 33.9375 -1.421875 27.875 -1.421875 
Q 17.96875 -1.421875 11.734375 6.484375 
Q 5.515625 14.40625 5.515625 27.296875 
Q 5.515625 40.1875 11.734375 48.09375 
Q 17.96875 56 27.875 56 
Q 33.9375 56 38.25 53.625 
Q 42.578125 51.265625 45.40625 46.390625 
z
M 14.796875 27.296875 
Q 14.796875 17.390625 18.875 11.75 
Q 22.953125 6.109375 30.078125 6.109375 
Q 37.203125 6.109375 41.296875 11.75 
Q 45.40625 17.390625 45.40625 27.296875 
Q 45.40625 37.203125 41.296875 42.84375 
Q 37.203125 48.484375 30.078125 48.484375 
Q 22.953125 48.484375 18.875 42.84375 
Q 14.796875 37.203125 14.796875 27.296875 
z
" id="DejaVuSans-100"/>
       <path d="M 8.5 21.578125 
L 8.5 54.6875 
L 17.484375 54.6875 
L 17.484375 21.921875 
Q 17.484375 14.15625 20.5 10.265625 
Q 23.53125 6.390625 29.59375 6.390625 
Q 36.859375 6.390625 41.078125 11.03125 
Q 45.3125 15.671875 45.3125 23.6875 
L 45.3125 54.6875 
L 54.296875 54.6875 
L 54.296875 0 
L 45.3125 0 
L 45.3125 8.40625 
Q 42.046875 3.421875 37.71875 1 
Q 33.40625 -1.421875 27.6875 -1.421875 
Q 18.265625 -1.421875 13.375 4.4375 
Q 8.5 10.296875 8.5 21.578125 
z
M 31.109375 56 
z
" id="DejaVuSans-117"/>
       <path d="M 34.28125 27.484375 
Q 23.390625 27.484375 19.1875 25 
Q 14.984375 22.515625 14.984375 16.5 
Q 14.984375 11.71875 18.140625 8.90625 
Q 21.296875 6.109375 26.703125 6.109375 
Q 34.1875 6.109375 38.703125 11.40625 
Q 43.21875 16.703125 43.21875 25.484375 
L 43.21875 27.484375 
z
M 52.203125 31.203125 
L 52.203125 0 
L 43.21875 0 
L 43.21875 8.296875 
Q 40.140625 3.328125 35.546875 0.953125 
Q 30.953125 -1.421875 24.3125 -1.421875 
Q 15.921875 -1.421875 10.953125 3.296875 
Q 6 8.015625 6 15.921875 
Q 6 25.140625 12.171875 29.828125 
Q 18.359375 34.515625 30.609375 34.515625 
L 43.21875 34.515625 
L 43.21875 35.40625 
Q 43.21875 41.609375 39.140625 45 
Q 35.0625 48.390625 27.6875 48.390625 
Q 23 48.390625 18.546875 47.265625 
Q 14.109375 46.140625 10.015625 43.890625 
L 10.015625 52.203125 
Q 14.9375 54.109375 19.578125 55.046875 
Q 24.21875 56 28.609375 56 
Q 40.484375 56 46.34375 49.84375 
Q 52.203125 43.703125 52.203125 31.203125 
z
" id="DejaVuSans-97"/>
       <path d="M 9.421875 75.984375 
L 18.40625 75.984375 
L 18.40625 0 
L 9.421875 0 
z
" id="DejaVuSans-108"/>
      </defs>
      <use xlink:href="#DejaVuSans-114"/>
      <use x="38.863281" xlink:href="#DejaVuSans-101"/>
      <use x="100.386719" xlink:href="#DejaVuSans-115"/>
      <use x="152.486328" xlink:href="#DejaVuSans-105"/>
      <use x="180.269531" xlink:href="#DejaVuSans-100"/>
      <use x="243.746094" xlink:href="#DejaVuSans-117"/>
      <use x="307.125" xlink:href="#DejaVuSans-97"/>
      <use x="368.404297" xlink:href="#DejaVuSans-108"/>
      <use x="396.1875" xlink:href="#DejaVuSans-115"/>
     </g>
    </g>
    <g id="line2d_17">
     <path d="M 231.370739 114.176563 
L 251.370739 114.176563 
" style="fill:none;stroke:#0000ff;stroke-linecap:square;stroke-width:1.5;"/>
    </g>
    <g id="line2d_18"/>
    <g id="text_9">
     <!-- observable -->
     <g transform="translate(259.370739 117.676563)scale(0.1 -0.1)">
      <defs>
       <path d="M 30.609375 48.390625 
Q 23.390625 48.390625 19.1875 42.75 
Q 14.984375 37.109375 14.984375 27.296875 
Q 14.984375 17.484375 19.15625 11.84375 
Q 23.34375 6.203125 30.609375 6.203125 
Q 37.796875 6.203125 41.984375 11.859375 
Q 46.1875 17.53125 46.1875 27.296875 
Q 46.1875 37.015625 41.984375 42.703125 
Q 37.796875 48.390625 30.609375 48.390625 
z
M 30.609375 56 
Q 42.328125 56 49.015625 48.375 
Q 55.71875 40.765625 55.71875 27.296875 
Q 55.71875 13.875 49.015625 6.21875 
Q 42.328125 -1.421875 30.609375 -1.421875 
Q 18.84375 -1.421875 12.171875 6.21875 
Q 5.515625 13.875 5.515625 27.296875 
Q 5.515625 40.765625 12.171875 48.375 
Q 18.84375 56 30.609375 56 
z
" id="DejaVuSans-111"/>
       <path d="M 48.6875 27.296875 
Q 48.6875 37.203125 44.609375 42.84375 
Q 40.53125 48.484375 33.40625 48.484375 
Q 26.265625 48.484375 22.1875 42.84375 
Q 18.109375 37.203125 18.109375 27.296875 
Q 18.109375 17.390625 22.1875 11.75 
Q 26.265625 6.109375 33.40625 6.109375 
Q 40.53125 6.109375 44.609375 11.75 
Q 48.6875 17.390625 48.6875 27.296875 
z
M 18.109375 46.390625 
Q 20.953125 51.265625 25.265625 53.625 
Q 29.59375 56 35.59375 56 
Q 45.5625 56 51.78125 48.09375 
Q 58.015625 40.1875 58.015625 27.296875 
Q 58.015625 14.40625 51.78125 6.484375 
Q 45.5625 -1.421875 35.59375 -1.421875 
Q 29.59375 -1.421875 25.265625 0.953125 
Q 20.953125 3.328125 18.109375 8.203125 
L 18.109375 0 
L 9.078125 0 
L 9.078125 75.984375 
L 18.109375 75.984375 
z
" id="DejaVuSans-98"/>
      </defs>
      <use xlink:href="#DejaVuSans-111"/>
      <use x="61.181641" xlink:href="#DejaVuSans-98"/>
      <use x="124.658203" xlink:href="#DejaVuSans-115"/>
      <use x="176.757812" xlink:href="#DejaVuSans-101"/>
      <use x="238.28125" xlink:href="#DejaVuSans-114"/>
      <use x="279.394531" xlink:href="#DejaVuSans-118"/>
      <use x="338.574219" xlink:href="#DejaVuSans-97"/>
      <use x="399.853516" xlink:href="#DejaVuSans-98"/>
      <use x="463.330078" xlink:href="#DejaVuSans-108"/>
      <use x="491.113281" xlink:href="#DejaVuSans-101"/>
     </g>
    </g>
    <g id="line2d_19"/>
    <g id="line2d_20">
     <g>
      <use style="fill:#0000ff;stroke:#0000ff;" x="241.370739" xlink:href="#mb353e1d034" y="128.854688"/>
     </g>
    </g>
    <g id="text_10">
     <!-- interpolation -->
     <g transform="translate(259.370739 132.354688)scale(0.1 -0.1)">
      <defs>
       <path d="M 54.890625 33.015625 
L 54.890625 0 
L 45.90625 0 
L 45.90625 32.71875 
Q 45.90625 40.484375 42.875 44.328125 
Q 39.84375 48.1875 33.796875 48.1875 
Q 26.515625 48.1875 22.3125 43.546875 
Q 18.109375 38.921875 18.109375 30.90625 
L 18.109375 0 
L 9.078125 0 
L 9.078125 54.6875 
L 18.109375 54.6875 
L 18.109375 46.1875 
Q 21.34375 51.125 25.703125 53.5625 
Q 30.078125 56 35.796875 56 
Q 45.21875 56 50.046875 50.171875 
Q 54.890625 44.34375 54.890625 33.015625 
z
" id="DejaVuSans-110"/>
       <path d="M 18.3125 70.21875 
L 18.3125 54.6875 
L 36.8125 54.6875 
L 36.8125 47.703125 
L 18.3125 47.703125 
L 18.3125 18.015625 
Q 18.3125 11.328125 20.140625 9.421875 
Q 21.96875 7.515625 27.59375 7.515625 
L 36.8125 7.515625 
L 36.8125 0 
L 27.59375 0 
Q 17.1875 0 13.234375 3.875 
Q 9.28125 7.765625 9.28125 18.015625 
L 9.28125 47.703125 
L 2.6875 47.703125 
L 2.6875 54.6875 
L 9.28125 54.6875 
L 9.28125 70.21875 
z
" id="DejaVuSans-116"/>
       <path d="M 18.109375 8.203125 
L 18.109375 -20.796875 
L 9.078125 -20.796875 
L 9.078125 54.6875 
L 18.109375 54.6875 
L 18.109375 46.390625 
Q 20.953125 51.265625 25.265625 53.625 
Q 29.59375 56 35.59375 56 
Q 45.5625 56 51.78125 48.09375 
Q 58.015625 40.1875 58.015625 27.296875 
Q 58.015625 14.40625 51.78125 6.484375 
Q 45.5625 -1.421875 35.59375 -1.421875 
Q 29.59375 -1.421875 25.265625 0.953125 
Q 20.953125 3.328125 18.109375 8.203125 
z
M 48.6875 27.296875 
Q 48.6875 37.203125 44.609375 42.84375 
Q 40.53125 48.484375 33.40625 48.484375 
Q 26.265625 48.484375 22.1875 42.84375 
Q 18.109375 37.203125 18.109375 27.296875 
Q 18.109375 17.390625 22.1875 11.75 
Q 26.265625 6.109375 33.40625 6.109375 
Q 40.53125 6.109375 44.609375 11.75 
Q 48.6875 17.390625 48.6875 27.296875 
z
" id="DejaVuSans-112"/>
      </defs>
      <use xlink:href="#DejaVuSans-105"/>
      <use x="27.783203" xlink:href="#DejaVuSans-110"/>
      <use x="91.162109" xlink:href="#DejaVuSans-116"/>
      <use x="130.371094" xlink:href="#DejaVuSans-101"/>
      <use x="191.894531" xlink:href="#DejaVuSans-114"/>
      <use x="233.007812" xlink:href="#DejaVuSans-112"/>
      <use x="296.484375" xlink:href="#DejaVuSans-111"/>
      <use x="357.666016" xlink:href="#DejaVuSans-108"/>
      <use x="385.449219" xlink:href="#DejaVuSans-97"/>
      <use x="446.728516" xlink:href="#DejaVuSans-116"/>
      <use x="485.9375" xlink:href="#DejaVuSans-105"/>
      <use x="513.720703" xlink:href="#DejaVuSans-111"/>
      <use x="574.902344" xlink:href="#DejaVuSans-110"/>
     </g>
    </g>
    <g id="line2d_21"/>
    <g id="line2d_22">
     <g>
      <use style="stroke:#000000;stroke-linejoin:miter;" x="241.370739" xlink:href="#mbf2e3a19aa" y="143.532812"/>
     </g>
    </g>
    <g id="text_11">
     <!-- reference_data -->
     <g transform="translate(259.370739 147.032812)scale(0.1 -0.1)">
      <use xlink:href="#DejaVuSans-114"/>
      <use x="38.863281" xlink:href="#DejaVuSans-101"/>
      <use x="100.386719" xlink:href="#DejaVuSans-102"/>
      <use x="135.591797" xlink:href="#DejaVuSans-101"/>
      <use x="197.115234" xlink:href="#DejaVuSans-114"/>
      <use x="235.978516" xlink:href="#DejaVuSans-101"/>
      <use x="297.501953" xlink:href="#DejaVuSans-110"/>
      <use x="360.880859" xlink:href="#DejaVuSans-99"/>
      <use x="415.861328" xlink:href="#DejaVuSans-101"/>
      <use x="477.384766" xlink:href="#DejaVuSans-95"/>
      <use x="527.384766" xlink:href="#DejaVuSans-100"/>
      <use x="590.861328" xlink:href="#DejaVuSans-97"/>
      <use x="652.140625" xlink:href="#DejaVuSans-116"/>
      <use x="691.349609" xlink:href="#DejaVuSans-97"/>
     </g>
    </g>
   </g>
  </g>
  <g id="axes_2">
   <g id="patch_8">
    <path d="M 394.363636 338.4 
L 648 338.4 
L 648 86.4 
L 394.363636 86.4 
z
" style="fill:#ffffff;"/>
   </g>
   <g id="PolyCollection_2">
    <path clip-path="url(#pc41804db26)" d="M 500.976227 13161.615885 
L 500.976227 97.854545 
L 504.845281 104.491658 
L 511.021456 13161.615885 
L 516.899181 13161.615885 
L 522.421961 13161.615885 
L 536.428513 13161.615885 
L 550.677964 13161.615885 
L 578.206199 13161.615885 
L 606.003695 13161.615885 
L 634.130719 13161.615885 
L 634.130719 13161.615885 
L 634.130719 13161.615885 
L 606.003695 13161.615885 
L 578.206199 13161.615885 
L 550.677964 13161.615885 
L 536.428513 13161.615885 
L 522.421961 13161.615885 
L 516.899181 13161.615885 
L 511.021456 13161.615885 
L 504.845281 13161.615885 
L 500.976227 13161.615885 
z
" style="fill:#ff8c00;fill-opacity:0.4;stroke:#ff8c00;stroke-opacity:0.4;"/>
   </g>
   <g id="matplotlib.axis_3">
    <g id="xtick_5">
     <g id="line2d_23">
      <g>
       <use style="stroke:#000000;stroke-width:0.8;" x="440.054746" xlink:href="#mc1f445e8d1" y="338.4"/>
      </g>
     </g>
    </g>
    <g id="xtick_6">
     <g id="line2d_24">
      <g>
       <use style="stroke:#000000;stroke-width:0.8;" x="495.43791" xlink:href="#mc1f445e8d1" y="338.4"/>
      </g>
     </g>
    </g>
    <g id="xtick_7">
     <g id="line2d_25">
      <g>
       <use style="stroke:#000000;stroke-width:0.8;" x="550.821074" xlink:href="#mc1f445e8d1" y="338.4"/>
      </g>
     </g>
    </g>
    <g id="xtick_8">
     <g id="line2d_26">
      <g>
       <use style="stroke:#000000;stroke-width:0.8;" x="606.204238" xlink:href="#mc1f445e8d1" y="338.4"/>
      </g>
     </g>
    </g>
   </g>
   <g id="matplotlib.axis_4">
    <g id="ytick_6">
     <g id="line2d_27">
      <g>
       <use style="stroke:#000000;stroke-width:0.8;" x="394.363636" xlink:href="#mf8e0fac9b3" y="310.000772"/>
      </g>
     </g>
     <g id="text_12">
      <!-- $\mathdefault{10^{-17}}$ -->
      <g transform="translate(359.463636 313.799991)scale(0.1 -0.1)">
       <defs>
        <path d="M 8.203125 72.90625 
L 55.078125 72.90625 
L 55.078125 68.703125 
L 28.609375 0 
L 18.3125 0 
L 43.21875 64.59375 
L 8.203125 64.59375 
z
" id="DejaVuSans-55"/>
       </defs>
       <use transform="translate(0 0.684375)" xlink:href="#DejaVuSans-49"/>
       <use transform="translate(63.623047 0.684375)" xlink:href="#DejaVuSans-48"/>
       <use transform="translate(128.203125 38.965625)scale(0.7)" xlink:href="#DejaVuSans-8722"/>
       <use transform="translate(186.855469 38.965625)scale(0.7)" xlink:href="#DejaVuSans-49"/>
       <use transform="translate(231.391602 38.965625)scale(0.7)" xlink:href="#DejaVuSans-55"/>
      </g>
     </g>
    </g>
    <g id="ytick_7">
     <g id="line2d_28">
      <g>
       <use style="stroke:#000000;stroke-width:0.8;" x="394.363636" xlink:href="#mf8e0fac9b3" y="270.779159"/>
      </g>
     </g>
     <g id="text_13">
      <!-- $\mathdefault{10^{-14}}$ -->
      <g transform="translate(359.463636 274.578378)scale(0.1 -0.1)">
       <defs>
        <path d="M 37.796875 64.3125 
L 12.890625 25.390625 
L 37.796875 25.390625 
z
M 35.203125 72.90625 
L 47.609375 72.90625 
L 47.609375 25.390625 
L 58.015625 25.390625 
L 58.015625 17.1875 
L 47.609375 17.1875 
L 47.609375 0 
L 37.796875 0 
L 37.796875 17.1875 
L 4.890625 17.1875 
L 4.890625 26.703125 
z
" id="DejaVuSans-52"/>
       </defs>
       <use transform="translate(0 0.684375)" xlink:href="#DejaVuSans-49"/>
       <use transform="translate(63.623047 0.684375)" xlink:href="#DejaVuSans-48"/>
       <use transform="translate(128.203125 38.965625)scale(0.7)" xlink:href="#DejaVuSans-8722"/>
       <use transform="translate(186.855469 38.965625)scale(0.7)" xlink:href="#DejaVuSans-49"/>
       <use transform="translate(231.391602 38.965625)scale(0.7)" xlink:href="#DejaVuSans-52"/>
      </g>
     </g>
    </g>
    <g id="ytick_8">
     <g id="line2d_29">
      <g>
       <use style="stroke:#000000;stroke-width:0.8;" x="394.363636" xlink:href="#mf8e0fac9b3" y="231.557546"/>
      </g>
     </g>
     <g id="text_14">
      <!-- $\mathdefault{10^{-11}}$ -->
      <g transform="translate(359.463636 235.356765)scale(0.1 -0.1)">
       <use transform="translate(0 0.684375)" xlink:href="#DejaVuSans-49"/>
       <use transform="translate(63.623047 0.684375)" xlink:href="#DejaVuSans-48"/>
       <use transform="translate(128.203125 38.965625)scale(0.7)" xlink:href="#DejaVuSans-8722"/>
       <use transform="translate(186.855469 38.965625)scale(0.7)" xlink:href="#DejaVuSans-49"/>
       <use transform="translate(231.391602 38.965625)scale(0.7)" xlink:href="#DejaVuSans-49"/>
      </g>
     </g>
    </g>
    <g id="ytick_9">
     <g id="line2d_30">
      <g>
       <use style="stroke:#000000;stroke-width:0.8;" x="394.363636" xlink:href="#mf8e0fac9b3" y="192.335934"/>
      </g>
     </g>
     <g id="text_15">
      <!-- $\mathdefault{10^{-8}}$ -->
      <g transform="translate(363.863636 196.135152)scale(0.1 -0.1)">
       <use transform="translate(0 0.765625)" xlink:href="#DejaVuSans-49"/>
       <use transform="translate(63.623047 0.765625)" xlink:href="#DejaVuSans-48"/>
       <use transform="translate(128.203125 39.046875)scale(0.7)" xlink:href="#DejaVuSans-8722"/>
       <use transform="translate(186.855469 39.046875)scale(0.7)" xlink:href="#DejaVuSans-56"/>
      </g>
     </g>
    </g>
    <g id="ytick_10">
     <g id="line2d_31">
      <g>
       <use style="stroke:#000000;stroke-width:0.8;" x="394.363636" xlink:href="#mf8e0fac9b3" y="153.114321"/>
      </g>
     </g>
     <g id="text_16">
      <!-- $\mathdefault{10^{-5}}$ -->
      <g transform="translate(363.863636 156.91354)scale(0.1 -0.1)">
       <use transform="translate(0 0.684375)" xlink:href="#DejaVuSans-49"/>
       <use transform="translate(63.623047 0.684375)" xlink:href="#DejaVuSans-48"/>
       <use transform="translate(128.203125 38.965625)scale(0.7)" xlink:href="#DejaVuSans-8722"/>
       <use transform="translate(186.855469 38.965625)scale(0.7)" xlink:href="#DejaVuSans-53"/>
      </g>
     </g>
    </g>
    <g id="ytick_11">
     <g id="line2d_32">
      <g>
       <use style="stroke:#000000;stroke-width:0.8;" x="394.363636" xlink:href="#mf8e0fac9b3" y="113.892708"/>
      </g>
     </g>
     <g id="text_17">
      <!-- $\mathdefault{10^{-2}}$ -->
      <g transform="translate(363.863636 117.691927)scale(0.1 -0.1)">
       <use transform="translate(0 0.765625)" xlink:href="#DejaVuSans-49"/>
       <use transform="translate(63.623047 0.765625)" xlink:href="#DejaVuSans-48"/>
       <use transform="translate(128.203125 39.046875)scale(0.7)" xlink:href="#DejaVuSans-8722"/>
       <use transform="translate(186.855469 39.046875)scale(0.7)" xlink:href="#DejaVuSans-50"/>
      </g>
     </g>
    </g>
   </g>
   <g id="line2d_33">
    <g clip-path="url(#pc41804db26)">
     <use style="fill:#ff8c00;stroke:#ff8c00;" x="500.976227" xlink:href="#mb07f89460e" y="97.854545"/>
     <use style="fill:#ff8c00;stroke:#ff8c00;" x="504.845281" xlink:href="#mb07f89460e" y="104.491658"/>
     <use style="fill:#ff8c00;stroke:#ff8c00;" x="511.021456" xlink:href="#mb07f89460e" y="13161.615885"/>
     <use style="fill:#ff8c00;stroke:#ff8c00;" x="516.899181" xlink:href="#mb07f89460e" y="13161.615885"/>
     <use style="fill:#ff8c00;stroke:#ff8c00;" x="522.421961" xlink:href="#mb07f89460e" y="13161.615885"/>
     <use style="fill:#ff8c00;stroke:#ff8c00;" x="536.428513" xlink:href="#mb07f89460e" y="13161.615885"/>
     <use style="fill:#ff8c00;stroke:#ff8c00;" x="550.677964" xlink:href="#mb07f89460e" y="13161.615885"/>
     <use style="fill:#ff8c00;stroke:#ff8c00;" x="578.206199" xlink:href="#mb07f89460e" y="13161.615885"/>
     <use style="fill:#ff8c00;stroke:#ff8c00;" x="606.003695" xlink:href="#mb07f89460e" y="13161.615885"/>
     <use style="fill:#ff8c00;stroke:#ff8c00;" x="634.130719" xlink:href="#mb07f89460e" y="13161.615885"/>
    </g>
   </g>
   <g id="line2d_34">
    <path clip-path="url(#pc41804db26)" d="M 495.43791 721 
L 495.541801 115.528401 
L 495.739797 111.510528 
L 495.965525 110.490723 
L 496.142923 110.377722 
L 496.379454 110.543115 
L 497.502974 111.581271 
L 498.537794 112.053374 
L 515.354729 118.84961 
L 534.332079 126.852179 
L 590.015284 150.661115 
L 721 206.639484 
L 721 206.639484 
" style="fill:none;stroke:#0000ff;stroke-linecap:square;stroke-width:1.5;"/>
   </g>
   <g id="line2d_35">
    <g clip-path="url(#pc41804db26)">
     <use style="fill:#0000ff;stroke:#0000ff;" x="500.976227" xlink:href="#mb353e1d034" y="113.00622"/>
     <use style="fill:#0000ff;stroke:#0000ff;" x="504.845281" xlink:href="#mb353e1d034" y="114.543407"/>
     <use style="fill:#0000ff;stroke:#0000ff;" x="511.021456" xlink:href="#mb353e1d034" y="117.055882"/>
     <use style="fill:#0000ff;stroke:#0000ff;" x="516.899181" xlink:href="#mb353e1d034" y="119.493038"/>
     <use style="fill:#0000ff;stroke:#0000ff;" x="522.421961" xlink:href="#mb353e1d034" y="121.807626"/>
     <use style="fill:#0000ff;stroke:#0000ff;" x="536.428513" xlink:href="#mb353e1d034" y="127.735645"/>
     <use style="fill:#0000ff;stroke:#0000ff;" x="550.677964" xlink:href="#mb353e1d034" y="133.818371"/>
     <use style="fill:#0000ff;stroke:#0000ff;" x="578.206199" xlink:href="#mb353e1d034" y="145.602704"/>
     <use style="fill:#0000ff;stroke:#0000ff;" x="606.003695" xlink:href="#mb353e1d034" y="157.498824"/>
     <use style="fill:#0000ff;stroke:#0000ff;" x="634.130719" xlink:href="#mb353e1d034" y="169.45295"/>
    </g>
   </g>
   <g id="line2d_36">
    <g clip-path="url(#pc41804db26)">
     <use style="stroke:#000000;stroke-linejoin:miter;" x="500.976227" xlink:href="#mbf2e3a19aa" y="113.342069"/>
     <use style="stroke:#000000;stroke-linejoin:miter;" x="504.845281" xlink:href="#mbf2e3a19aa" y="114.67781"/>
     <use style="stroke:#000000;stroke-linejoin:miter;" x="511.021456" xlink:href="#mbf2e3a19aa" y="116.113137"/>
     <use style="stroke:#000000;stroke-linejoin:miter;" x="516.899181" xlink:href="#mbf2e3a19aa" y="118.417554"/>
     <use style="stroke:#000000;stroke-linejoin:miter;" x="522.421961" xlink:href="#mbf2e3a19aa" y="119.585695"/>
     <use style="stroke:#000000;stroke-linejoin:miter;" x="536.428513" xlink:href="#mbf2e3a19aa" y="123.859618"/>
     <use style="stroke:#000000;stroke-linejoin:miter;" x="550.677964" xlink:href="#mbf2e3a19aa" y="125.292509"/>
     <use style="stroke:#000000;stroke-linejoin:miter;" x="578.206199" xlink:href="#mbf2e3a19aa" y="128.091739"/>
     <use style="stroke:#000000;stroke-linejoin:miter;" x="606.003695" xlink:href="#mbf2e3a19aa" y="128.985774"/>
     <use style="stroke:#000000;stroke-linejoin:miter;" x="634.130719" xlink:href="#mbf2e3a19aa" y="130.113671"/>
    </g>
   </g>
   <g id="patch_9">
    <path d="M 394.363636 338.4 
L 394.363636 86.4 
" style="fill:none;stroke:#000000;stroke-linecap:square;stroke-linejoin:miter;stroke-width:0.8;"/>
   </g>
   <g id="patch_10">
    <path d="M 648 338.4 
L 648 86.4 
" style="fill:none;stroke:#000000;stroke-linecap:square;stroke-linejoin:miter;stroke-width:0.8;"/>
   </g>
   <g id="patch_11">
    <path d="M 394.363636 338.4 
L 648 338.4 
" style="fill:none;stroke:#000000;stroke-linecap:square;stroke-linejoin:miter;stroke-width:0.8;"/>
   </g>
   <g id="patch_12">
    <path d="M 394.363636 86.4 
L 648 86.4 
" style="fill:none;stroke:#000000;stroke-linecap:square;stroke-linejoin:miter;stroke-width:0.8;"/>
   </g>
   <g id="text_18">
    <!-- Meijer1988.fm_Cve_icg_0.5 -->
    <g transform="translate(425.230412 80.4)scale(0.14 -0.14)">
     <use xlink:href="#DejaVuSans-77"/>
     <use x="86.279297" xlink:href="#DejaVuSans-101"/>
     <use x="147.802734" xlink:href="#DejaVuSans-105"/>
     <use x="175.585938" xlink:href="#DejaVuSans-106"/>
     <use x="203.369141" xlink:href="#DejaVuSans-101"/>
     <use x="264.892578" xlink:href="#DejaVuSans-114"/>
     <use x="306.005859" xlink:href="#DejaVuSans-49"/>
     <use x="369.628906" xlink:href="#DejaVuSans-57"/>
     <use x="433.251953" xlink:href="#DejaVuSans-56"/>
     <use x="496.875" xlink:href="#DejaVuSans-56"/>
     <use x="560.498047" xlink:href="#DejaVuSans-46"/>
     <use x="592.285156" xlink:href="#DejaVuSans-102"/>
     <use x="627.490234" xlink:href="#DejaVuSans-109"/>
     <use x="724.902344" xlink:href="#DejaVuSans-95"/>
     <use x="774.902344" xlink:href="#DejaVuSans-67"/>
     <use x="844.726562" xlink:href="#DejaVuSans-118"/>
     <use x="903.90625" xlink:href="#DejaVuSans-101"/>
     <use x="965.429688" xlink:href="#DejaVuSans-95"/>
     <use x="1015.429688" xlink:href="#DejaVuSans-105"/>
     <use x="1043.212891" xlink:href="#DejaVuSans-99"/>
     <use x="1098.193359" xlink:href="#DejaVuSans-103"/>
     <use x="1161.669922" xlink:href="#DejaVuSans-95"/>
     <use x="1211.669922" xlink:href="#DejaVuSans-48"/>
     <use x="1275.292969" xlink:href="#DejaVuSans-46"/>
     <use x="1307.080078" xlink:href="#DejaVuSans-53"/>
    </g>
   </g>
   <g id="legend_2">
    <g id="patch_13">
     <path d="M 533.734375 333.4 
L 641 333.4 
Q 643 333.4 643 331.4 
L 643 273.409375 
Q 643 271.409375 641 271.409375 
L 533.734375 271.409375 
Q 531.734375 271.409375 531.734375 273.409375 
L 531.734375 331.4 
Q 531.734375 333.4 533.734375 333.4 
z
" style="fill:#ffffff;opacity:0.8;stroke:#cccccc;stroke-linejoin:miter;"/>
    </g>
    <g id="line2d_37"/>
    <g id="line2d_38">
     <g>
      <use style="fill:#ff8c00;stroke:#ff8c00;" x="545.734375" xlink:href="#mb07f89460e" y="279.507812"/>
     </g>
    </g>
    <g id="text_19">
     <!-- residuals -->
     <g transform="translate(563.734375 283.007812)scale(0.1 -0.1)">
      <use xlink:href="#DejaVuSans-114"/>
      <use x="38.863281" xlink:href="#DejaVuSans-101"/>
      <use x="100.386719" xlink:href="#DejaVuSans-115"/>
      <use x="152.486328" xlink:href="#DejaVuSans-105"/>
      <use x="180.269531" xlink:href="#DejaVuSans-100"/>
      <use x="243.746094" xlink:href="#DejaVuSans-117"/>
      <use x="307.125" xlink:href="#DejaVuSans-97"/>
      <use x="368.404297" xlink:href="#DejaVuSans-108"/>
      <use x="396.1875" xlink:href="#DejaVuSans-115"/>
     </g>
    </g>
    <g id="line2d_39">
     <path d="M 535.734375 294.185938 
L 555.734375 294.185938 
" style="fill:none;stroke:#0000ff;stroke-linecap:square;stroke-width:1.5;"/>
    </g>
    <g id="line2d_40"/>
    <g id="text_20">
     <!-- observable -->
     <g transform="translate(563.734375 297.685938)scale(0.1 -0.1)">
      <use xlink:href="#DejaVuSans-111"/>
      <use x="61.181641" xlink:href="#DejaVuSans-98"/>
      <use x="124.658203" xlink:href="#DejaVuSans-115"/>
      <use x="176.757812" xlink:href="#DejaVuSans-101"/>
      <use x="238.28125" xlink:href="#DejaVuSans-114"/>
      <use x="279.394531" xlink:href="#DejaVuSans-118"/>
      <use x="338.574219" xlink:href="#DejaVuSans-97"/>
      <use x="399.853516" xlink:href="#DejaVuSans-98"/>
      <use x="463.330078" xlink:href="#DejaVuSans-108"/>
      <use x="491.113281" xlink:href="#DejaVuSans-101"/>
     </g>
    </g>
    <g id="line2d_41"/>
    <g id="line2d_42">
     <g>
      <use style="fill:#0000ff;stroke:#0000ff;" x="545.734375" xlink:href="#mb353e1d034" y="308.864062"/>
     </g>
    </g>
    <g id="text_21">
     <!-- interpolation -->
     <g transform="translate(563.734375 312.364062)scale(0.1 -0.1)">
      <use xlink:href="#DejaVuSans-105"/>
      <use x="27.783203" xlink:href="#DejaVuSans-110"/>
      <use x="91.162109" xlink:href="#DejaVuSans-116"/>
      <use x="130.371094" xlink:href="#DejaVuSans-101"/>
      <use x="191.894531" xlink:href="#DejaVuSans-114"/>
      <use x="233.007812" xlink:href="#DejaVuSans-112"/>
      <use x="296.484375" xlink:href="#DejaVuSans-111"/>
      <use x="357.666016" xlink:href="#DejaVuSans-108"/>
      <use x="385.449219" xlink:href="#DejaVuSans-97"/>
      <use x="446.728516" xlink:href="#DejaVuSans-116"/>
      <use x="485.9375" xlink:href="#DejaVuSans-105"/>
      <use x="513.720703" xlink:href="#DejaVuSans-111"/>
      <use x="574.902344" xlink:href="#DejaVuSans-110"/>
     </g>
    </g>
    <g id="line2d_43"/>
    <g id="line2d_44">
     <g>
      <use style="stroke:#000000;stroke-linejoin:miter;" x="545.734375" xlink:href="#mbf2e3a19aa" y="323.542188"/>
     </g>
    </g>
    <g id="text_22">
     <!-- reference_data -->
     <g transform="translate(563.734375 327.042188)scale(0.1 -0.1)">
      <use xlink:href="#DejaVuSans-114"/>
      <use x="38.863281" xlink:href="#DejaVuSans-101"/>
      <use x="100.386719" xlink:href="#DejaVuSans-102"/>
      <use x="135.591797" xlink:href="#DejaVuSans-101"/>
      <use x="197.115234" xlink:href="#DejaVuSans-114"/>
      <use x="235.978516" xlink:href="#DejaVuSans-101"/>
      <use x="297.501953" xlink:href="#DejaVuSans-110"/>
      <use x="360.880859" xlink:href="#DejaVuSans-99"/>
      <use x="415.861328" xlink:href="#DejaVuSans-101"/>
      <use x="477.384766" xlink:href="#DejaVuSans-95"/>
      <use x="527.384766" xlink:href="#DejaVuSans-100"/>
      <use x="590.861328" xlink:href="#DejaVuSans-97"/>
      <use x="652.140625" xlink:href="#DejaVuSans-116"/>
      <use x="691.349609" xlink:href="#DejaVuSans-97"/>
     </g>
    </g>
   </g>
  </g>
  <g id="axes_3">
   <g id="patch_14">
    <path d="M 90 640.8 
L 343.636364 640.8 
L 343.636364 388.8 
L 90 388.8 
z
" style="fill:#ffffff;"/>
   </g>
   <g id="PolyCollection_3">
    <defs>
     <path d="M 196.61259 -90.654545 
L 196.61259 -163.801578 
L 200.481644 -97.715638 
L 206.65782 -264.378883 
L 212.535544 -188.807899 
L 218.058325 -319.745455 
L 232.064876 -209.30096 
L 246.314328 -267.429613 
L 273.842562 -190.061128 
L 301.640059 -169.286662 
L 329.767083 -144.105102 
L 329.767083 -90.654545 
L 329.767083 -90.654545 
L 301.640059 -90.654545 
L 273.842562 -90.654545 
L 246.314328 -90.654545 
L 232.064876 -90.654545 
L 218.058325 -90.654545 
L 212.535544 -90.654545 
L 206.65782 -90.654545 
L 200.481644 -90.654545 
L 196.61259 -90.654545 
z
" id="m790f321ee8" style="stroke:#8b0000;stroke-opacity:0.4;"/>
    </defs>
    <g clip-path="url(#p508d2671df)">
     <use style="fill:#8b0000;fill-opacity:0.4;stroke:#8b0000;stroke-opacity:0.4;" x="0" xlink:href="#m790f321ee8" y="720"/>
    </g>
   </g>
   <g id="matplotlib.axis_5">
    <g id="xtick_9">
     <g id="line2d_45">
      <g>
       <use style="stroke:#000000;stroke-width:0.8;" x="135.69111" xlink:href="#mc1f445e8d1" y="640.8"/>
      </g>
     </g>
     <g id="text_23">
      <!-- −20 -->
      <g transform="translate(125.138766 655.398438)scale(0.1 -0.1)">
       <use xlink:href="#DejaVuSans-8722"/>
       <use x="83.789062" xlink:href="#DejaVuSans-50"/>
       <use x="147.412109" xlink:href="#DejaVuSans-48"/>
      </g>
     </g>
    </g>
    <g id="xtick_10">
     <g id="line2d_46">
      <g>
       <use style="stroke:#000000;stroke-width:0.8;" x="191.074274" xlink:href="#mc1f445e8d1" y="640.8"/>
      </g>
     </g>
     <g id="text_24">
      <!-- 0 -->
      <g transform="translate(187.893024 655.398438)scale(0.1 -0.1)">
       <use xlink:href="#DejaVuSans-48"/>
      </g>
     </g>
    </g>
    <g id="xtick_11">
     <g id="line2d_47">
      <g>
       <use style="stroke:#000000;stroke-width:0.8;" x="246.457438" xlink:href="#mc1f445e8d1" y="640.8"/>
      </g>
     </g>
     <g id="text_25">
      <!-- 20 -->
      <g transform="translate(240.094938 655.398438)scale(0.1 -0.1)">
       <use xlink:href="#DejaVuSans-50"/>
       <use x="63.623047" xlink:href="#DejaVuSans-48"/>
      </g>
     </g>
    </g>
    <g id="xtick_12">
     <g id="line2d_48">
      <g>
       <use style="stroke:#000000;stroke-width:0.8;" x="301.840601" xlink:href="#mc1f445e8d1" y="640.8"/>
      </g>
     </g>
     <g id="text_26">
      <!-- 40 -->
      <g transform="translate(295.478101 655.398438)scale(0.1 -0.1)">
       <use xlink:href="#DejaVuSans-52"/>
       <use x="63.623047" xlink:href="#DejaVuSans-48"/>
      </g>
     </g>
    </g>
    <g id="text_27">
     <!-- time -->
     <g transform="translate(201.571619 670.59625)scale(0.12 -0.12)">
      <defs>
       <path d="M 27.484375 70.21875 
L 27.484375 54.6875 
L 45.515625 54.6875 
L 45.515625 42.1875 
L 27.484375 42.1875 
L 27.484375 19 
Q 27.484375 15.1875 29 13.84375 
Q 30.515625 12.5 35.015625 12.5 
L 44 12.5 
L 44 0 
L 29 0 
Q 18.65625 0 14.328125 4.3125 
Q 10.015625 8.640625 10.015625 19 
L 10.015625 42.1875 
L 1.3125 42.1875 
L 1.3125 54.6875 
L 10.015625 54.6875 
L 10.015625 70.21875 
z
" id="DejaVuSans-Bold-116"/>
       <path d="M 59.078125 45.609375 
Q 62.40625 50.6875 66.96875 53.34375 
Q 71.53125 56 77 56 
Q 86.421875 56 91.359375 50.1875 
Q 96.296875 44.390625 96.296875 33.296875 
L 96.296875 0 
L 78.71875 0 
L 78.71875 28.515625 
Q 78.765625 29.15625 78.78125 29.828125 
Q 78.8125 30.515625 78.8125 31.78125 
Q 78.8125 37.59375 77.09375 40.203125 
Q 75.390625 42.828125 71.578125 42.828125 
Q 66.609375 42.828125 63.890625 38.71875 
Q 61.1875 34.625 61.078125 26.859375 
L 61.078125 0 
L 43.5 0 
L 43.5 28.515625 
Q 43.5 37.59375 41.9375 40.203125 
Q 40.375 42.828125 36.375 42.828125 
Q 31.34375 42.828125 28.609375 38.703125 
Q 25.875 34.578125 25.875 26.90625 
L 25.875 0 
L 8.296875 0 
L 8.296875 54.6875 
L 25.875 54.6875 
L 25.875 46.6875 
Q 29.109375 51.3125 33.28125 53.65625 
Q 37.453125 56 42.484375 56 
Q 48.140625 56 52.484375 53.265625 
Q 56.84375 50.53125 59.078125 45.609375 
z
" id="DejaVuSans-Bold-109"/>
      </defs>
      <use xlink:href="#DejaVuSans-Bold-116"/>
      <use x="47.802734" xlink:href="#DejaVuSans-Bold-105"/>
      <use x="82.080078" xlink:href="#DejaVuSans-Bold-109"/>
      <use x="186.279297" xlink:href="#DejaVuSans-Bold-101"/>
     </g>
    </g>
   </g>
   <g id="matplotlib.axis_6">
    <g id="ytick_12">
     <g id="line2d_49">
      <g>
       <use style="stroke:#000000;stroke-width:0.8;" x="90" xlink:href="#mf8e0fac9b3" y="629.345455"/>
      </g>
     </g>
     <g id="text_28">
      <!-- 0.00 -->
      <g transform="translate(60.734375 633.144673)scale(0.1 -0.1)">
       <use xlink:href="#DejaVuSans-48"/>
       <use x="63.623047" xlink:href="#DejaVuSans-46"/>
       <use x="95.410156" xlink:href="#DejaVuSans-48"/>
       <use x="159.033203" xlink:href="#DejaVuSans-48"/>
      </g>
     </g>
    </g>
    <g id="ytick_13">
     <g id="line2d_50">
      <g>
       <use style="stroke:#000000;stroke-width:0.8;" x="90" xlink:href="#mf8e0fac9b3" y="586.433594"/>
      </g>
     </g>
     <g id="text_29">
      <!-- 0.02 -->
      <g transform="translate(60.734375 590.232813)scale(0.1 -0.1)">
       <use xlink:href="#DejaVuSans-48"/>
       <use x="63.623047" xlink:href="#DejaVuSans-46"/>
       <use x="95.410156" xlink:href="#DejaVuSans-48"/>
       <use x="159.033203" xlink:href="#DejaVuSans-50"/>
      </g>
     </g>
    </g>
    <g id="ytick_14">
     <g id="line2d_51">
      <g>
       <use style="stroke:#000000;stroke-width:0.8;" x="90" xlink:href="#mf8e0fac9b3" y="543.521733"/>
      </g>
     </g>
     <g id="text_30">
      <!-- 0.04 -->
      <g transform="translate(60.734375 547.320952)scale(0.1 -0.1)">
       <use xlink:href="#DejaVuSans-48"/>
       <use x="63.623047" xlink:href="#DejaVuSans-46"/>
       <use x="95.410156" xlink:href="#DejaVuSans-48"/>
       <use x="159.033203" xlink:href="#DejaVuSans-52"/>
      </g>
     </g>
    </g>
    <g id="ytick_15">
     <g id="line2d_52">
      <g>
       <use style="stroke:#000000;stroke-width:0.8;" x="90" xlink:href="#mf8e0fac9b3" y="500.609872"/>
      </g>
     </g>
     <g id="text_31">
      <!-- 0.06 -->
      <g transform="translate(60.734375 504.409091)scale(0.1 -0.1)">
       <defs>
        <path d="M 33.015625 40.375 
Q 26.375 40.375 22.484375 35.828125 
Q 18.609375 31.296875 18.609375 23.390625 
Q 18.609375 15.53125 22.484375 10.953125 
Q 26.375 6.390625 33.015625 6.390625 
Q 39.65625 6.390625 43.53125 10.953125 
Q 47.40625 15.53125 47.40625 23.390625 
Q 47.40625 31.296875 43.53125 35.828125 
Q 39.65625 40.375 33.015625 40.375 
z
M 52.59375 71.296875 
L 52.59375 62.3125 
Q 48.875 64.0625 45.09375 64.984375 
Q 41.3125 65.921875 37.59375 65.921875 
Q 27.828125 65.921875 22.671875 59.328125 
Q 17.53125 52.734375 16.796875 39.40625 
Q 19.671875 43.65625 24.015625 45.921875 
Q 28.375 48.1875 33.59375 48.1875 
Q 44.578125 48.1875 50.953125 41.515625 
Q 57.328125 34.859375 57.328125 23.390625 
Q 57.328125 12.15625 50.6875 5.359375 
Q 44.046875 -1.421875 33.015625 -1.421875 
Q 20.359375 -1.421875 13.671875 8.265625 
Q 6.984375 17.96875 6.984375 36.375 
Q 6.984375 53.65625 15.1875 63.9375 
Q 23.390625 74.21875 37.203125 74.21875 
Q 40.921875 74.21875 44.703125 73.484375 
Q 48.484375 72.75 52.59375 71.296875 
z
" id="DejaVuSans-54"/>
       </defs>
       <use xlink:href="#DejaVuSans-48"/>
       <use x="63.623047" xlink:href="#DejaVuSans-46"/>
       <use x="95.410156" xlink:href="#DejaVuSans-48"/>
       <use x="159.033203" xlink:href="#DejaVuSans-54"/>
      </g>
     </g>
    </g>
    <g id="ytick_16">
     <g id="line2d_53">
      <g>
       <use style="stroke:#000000;stroke-width:0.8;" x="90" xlink:href="#mf8e0fac9b3" y="457.698012"/>
      </g>
     </g>
     <g id="text_32">
      <!-- 0.08 -->
      <g transform="translate(60.734375 461.49723)scale(0.1 -0.1)">
       <use xlink:href="#DejaVuSans-48"/>
       <use x="63.623047" xlink:href="#DejaVuSans-46"/>
       <use x="95.410156" xlink:href="#DejaVuSans-48"/>
       <use x="159.033203" xlink:href="#DejaVuSans-56"/>
      </g>
     </g>
    </g>
    <g id="ytick_17">
     <g id="line2d_54">
      <g>
       <use style="stroke:#000000;stroke-width:0.8;" x="90" xlink:href="#mf8e0fac9b3" y="414.786151"/>
      </g>
     </g>
     <g id="text_33">
      <!-- 0.10 -->
      <g transform="translate(60.734375 418.58537)scale(0.1 -0.1)">
       <use xlink:href="#DejaVuSans-48"/>
       <use x="63.623047" xlink:href="#DejaVuSans-46"/>
       <use x="95.410156" xlink:href="#DejaVuSans-49"/>
       <use x="159.033203" xlink:href="#DejaVuSans-48"/>
      </g>
     </g>
    </g>
    <g id="text_34">
     <!-- [Cve_icg] -->
     <g transform="translate(53.905 545.577188)rotate(-90)scale(0.12 -0.12)">
      <use xlink:href="#DejaVuSans-Bold-91"/>
      <use x="45.703125" xlink:href="#DejaVuSans-Bold-67"/>
      <use x="119.091797" xlink:href="#DejaVuSans-Bold-118"/>
      <use x="184.277344" xlink:href="#DejaVuSans-Bold-101"/>
      <use x="252.099609" xlink:href="#DejaVuSans-Bold-95"/>
      <use x="302.099609" xlink:href="#DejaVuSans-Bold-105"/>
      <use x="336.376953" xlink:href="#DejaVuSans-Bold-99"/>
      <use x="395.654297" xlink:href="#DejaVuSans-Bold-103"/>
      <use x="467.236328" xlink:href="#DejaVuSans-Bold-93"/>
     </g>
    </g>
   </g>
   <g id="line2d_55">
    <path clip-path="url(#p508d2671df)" d="M 90 629.345455 
L 343.636364 629.345455 
" style="fill:none;stroke:#000000;stroke-linecap:square;stroke-width:1.5;"/>
   </g>
   <g id="line2d_56">
    <defs>
     <path d="M 0 3 
C 0.795609 3 1.55874 2.683901 2.12132 2.12132 
C 2.683901 1.55874 3 0.795609 3 0 
C 3 -0.795609 2.683901 -1.55874 2.12132 -2.12132 
C 1.55874 -2.683901 0.795609 -3 0 -3 
C -0.795609 -3 -1.55874 -2.683901 -2.12132 -2.12132 
C -2.683901 -1.55874 -3 -0.795609 -3 0 
C -3 0.795609 -2.683901 1.55874 -2.12132 2.12132 
C -1.55874 2.683901 -0.795609 3 0 3 
z
" id="m8df02bdf5f" style="stroke:#ff0000;"/>
    </defs>
    <g clip-path="url(#p508d2671df)">
     <use style="fill:#ff0000;stroke:#ff0000;" x="196.61259" xlink:href="#m8df02bdf5f" y="556.198422"/>
     <use style="fill:#ff0000;stroke:#ff0000;" x="200.481644" xlink:href="#m8df02bdf5f" y="622.284362"/>
     <use style="fill:#ff0000;stroke:#ff0000;" x="206.65782" xlink:href="#m8df02bdf5f" y="455.621117"/>
     <use style="fill:#ff0000;stroke:#ff0000;" x="212.535544" xlink:href="#m8df02bdf5f" y="531.192101"/>
     <use style="fill:#ff0000;stroke:#ff0000;" x="218.058325" xlink:href="#m8df02bdf5f" y="400.254545"/>
     <use style="fill:#ff0000;stroke:#ff0000;" x="232.064876" xlink:href="#m8df02bdf5f" y="510.69904"/>
     <use style="fill:#ff0000;stroke:#ff0000;" x="246.314328" xlink:href="#m8df02bdf5f" y="452.570387"/>
     <use style="fill:#ff0000;stroke:#ff0000;" x="273.842562" xlink:href="#m8df02bdf5f" y="529.938872"/>
     <use style="fill:#ff0000;stroke:#ff0000;" x="301.640059" xlink:href="#m8df02bdf5f" y="550.713338"/>
     <use style="fill:#ff0000;stroke:#ff0000;" x="329.767083" xlink:href="#m8df02bdf5f" y="575.894898"/>
    </g>
   </g>
   <g id="patch_15">
    <path d="M 90 640.8 
L 90 388.8 
" style="fill:none;stroke:#000000;stroke-linecap:square;stroke-linejoin:miter;stroke-width:0.8;"/>
   </g>
   <g id="patch_16">
    <path d="M 343.636364 640.8 
L 343.636364 388.8 
" style="fill:none;stroke:#000000;stroke-linecap:square;stroke-linejoin:miter;stroke-width:0.8;"/>
   </g>
   <g id="patch_17">
    <path d="M 90 640.8 
L 343.636364 640.8 
" style="fill:none;stroke:#000000;stroke-linecap:square;stroke-linejoin:miter;stroke-width:0.8;"/>
   </g>
   <g id="patch_18">
    <path d="M 90 388.8 
L 343.636364 388.8 
" style="fill:none;stroke:#000000;stroke-linecap:square;stroke-linejoin:miter;stroke-width:0.8;"/>
   </g>
   <g id="legend_3">
    <g id="patch_19">
     <path d="M 187.867614 411.478125 
L 336.636364 411.478125 
Q 338.636364 411.478125 338.636364 409.478125 
L 338.636364 395.8 
Q 338.636364 393.8 336.636364 393.8 
L 187.867614 393.8 
Q 185.867614 393.8 185.867614 395.8 
L 185.867614 409.478125 
Q 185.867614 411.478125 187.867614 411.478125 
z
" style="fill:#ffffff;opacity:0.8;stroke:#cccccc;stroke-linejoin:miter;"/>
    </g>
    <g id="line2d_57"/>
    <g id="line2d_58">
     <g>
      <use style="fill:#ff0000;stroke:#ff0000;" x="199.867614" xlink:href="#m8df02bdf5f" y="401.898438"/>
     </g>
    </g>
    <g id="text_35">
     <!-- (weighted residuals)^2 -->
     <g transform="translate(217.867614 405.398438)scale(0.1 -0.1)">
      <defs>
       <path d="M 31 75.875 
Q 24.46875 64.65625 21.28125 53.65625 
Q 18.109375 42.671875 18.109375 31.390625 
Q 18.109375 20.125 21.3125 9.0625 
Q 24.515625 -2 31 -13.1875 
L 23.1875 -13.1875 
Q 15.875 -1.703125 12.234375 9.375 
Q 8.59375 20.453125 8.59375 31.390625 
Q 8.59375 42.28125 12.203125 53.3125 
Q 15.828125 64.359375 23.1875 75.875 
z
" id="DejaVuSans-40"/>
       <path d="M 4.203125 54.6875 
L 13.1875 54.6875 
L 24.421875 12.015625 
L 35.59375 54.6875 
L 46.1875 54.6875 
L 57.421875 12.015625 
L 68.609375 54.6875 
L 77.59375 54.6875 
L 63.28125 0 
L 52.6875 0 
L 40.921875 44.828125 
L 29.109375 0 
L 18.5 0 
z
" id="DejaVuSans-119"/>
       <path d="M 54.890625 33.015625 
L 54.890625 0 
L 45.90625 0 
L 45.90625 32.71875 
Q 45.90625 40.484375 42.875 44.328125 
Q 39.84375 48.1875 33.796875 48.1875 
Q 26.515625 48.1875 22.3125 43.546875 
Q 18.109375 38.921875 18.109375 30.90625 
L 18.109375 0 
L 9.078125 0 
L 9.078125 75.984375 
L 18.109375 75.984375 
L 18.109375 46.1875 
Q 21.34375 51.125 25.703125 53.5625 
Q 30.078125 56 35.796875 56 
Q 45.21875 56 50.046875 50.171875 
Q 54.890625 44.34375 54.890625 33.015625 
z
" id="DejaVuSans-104"/>
       <path id="DejaVuSans-32"/>
       <path d="M 8.015625 75.875 
L 15.828125 75.875 
Q 23.140625 64.359375 26.78125 53.3125 
Q 30.421875 42.28125 30.421875 31.390625 
Q 30.421875 20.453125 26.78125 9.375 
Q 23.140625 -1.703125 15.828125 -13.1875 
L 8.015625 -13.1875 
Q 14.5 -2 17.703125 9.0625 
Q 20.90625 20.125 20.90625 31.390625 
Q 20.90625 42.671875 17.703125 53.65625 
Q 14.5 64.65625 8.015625 75.875 
z
" id="DejaVuSans-41"/>
       <path d="M 46.6875 72.90625 
L 73.1875 45.703125 
L 63.375 45.703125 
L 41.890625 64.984375 
L 20.40625 45.703125 
L 10.59375 45.703125 
L 37.109375 72.90625 
z
" id="DejaVuSans-94"/>
      </defs>
      <use xlink:href="#DejaVuSans-40"/>
      <use x="39.013672" xlink:href="#DejaVuSans-119"/>
      <use x="120.800781" xlink:href="#DejaVuSans-101"/>
      <use x="182.324219" xlink:href="#DejaVuSans-105"/>
      <use x="210.107422" xlink:href="#DejaVuSans-103"/>
      <use x="273.583984" xlink:href="#DejaVuSans-104"/>
      <use x="336.962891" xlink:href="#DejaVuSans-116"/>
      <use x="376.171875" xlink:href="#DejaVuSans-101"/>
      <use x="437.695312" xlink:href="#DejaVuSans-100"/>
      <use x="501.171875" xlink:href="#DejaVuSans-32"/>
      <use x="532.958984" xlink:href="#DejaVuSans-114"/>
      <use x="571.822266" xlink:href="#DejaVuSans-101"/>
      <use x="633.345703" xlink:href="#DejaVuSans-115"/>
      <use x="685.445312" xlink:href="#DejaVuSans-105"/>
      <use x="713.228516" xlink:href="#DejaVuSans-100"/>
      <use x="776.705078" xlink:href="#DejaVuSans-117"/>
      <use x="840.083984" xlink:href="#DejaVuSans-97"/>
      <use x="901.363281" xlink:href="#DejaVuSans-108"/>
      <use x="929.146484" xlink:href="#DejaVuSans-115"/>
      <use x="981.246094" xlink:href="#DejaVuSans-41"/>
      <use x="1020.259766" xlink:href="#DejaVuSans-94"/>
      <use x="1104.048828" xlink:href="#DejaVuSans-50"/>
     </g>
    </g>
   </g>
  </g>
  <g id="axes_4">
   <g id="patch_20">
    <path d="M 394.363636 640.8 
L 648 640.8 
L 648 388.8 
L 394.363636 388.8 
z
" style="fill:#ffffff;"/>
   </g>
   <g id="PolyCollection_4">
    <path clip-path="url(#pdc394a82b6)" d="M 500.976227 151854.751002 
L 500.976227 475.420399 
L 504.845281 629.345455 
L 511.021456 418.469074 
L 516.899181 456.059573 
L 522.421961 400.254545 
L 536.428513 443.575246 
L 550.677964 417.322912 
L 578.206199 455.224247 
L 606.003695 470.65961 
L 634.130719 496.075306 
L 634.130719 151854.751002 
L 634.130719 151854.751002 
L 606.003695 151854.751002 
L 578.206199 151854.751002 
L 550.677964 151854.751002 
L 536.428513 151854.751002 
L 522.421961 151854.751002 
L 516.899181 151854.751002 
L 511.021456 151854.751002 
L 504.845281 151854.751002 
L 500.976227 151854.751002 
z
" style="fill:#8b0000;fill-opacity:0.4;stroke:#8b0000;stroke-opacity:0.4;"/>
   </g>
   <g id="matplotlib.axis_7">
    <g id="xtick_13">
     <g id="line2d_59">
      <g>
       <use style="stroke:#000000;stroke-width:0.8;" x="440.054746" xlink:href="#mc1f445e8d1" y="640.8"/>
      </g>
     </g>
     <g id="text_36">
      <!-- −20 -->
      <g transform="translate(429.502403 655.398438)scale(0.1 -0.1)">
       <use xlink:href="#DejaVuSans-8722"/>
       <use x="83.789062" xlink:href="#DejaVuSans-50"/>
       <use x="147.412109" xlink:href="#DejaVuSans-48"/>
      </g>
     </g>
    </g>
    <g id="xtick_14">
     <g id="line2d_60">
      <g>
       <use style="stroke:#000000;stroke-width:0.8;" x="495.43791" xlink:href="#mc1f445e8d1" y="640.8"/>
      </g>
     </g>
     <g id="text_37">
      <!-- 0 -->
      <g transform="translate(492.25666 655.398438)scale(0.1 -0.1)">
       <use xlink:href="#DejaVuSans-48"/>
      </g>
     </g>
    </g>
    <g id="xtick_15">
     <g id="line2d_61">
      <g>
       <use style="stroke:#000000;stroke-width:0.8;" x="550.821074" xlink:href="#mc1f445e8d1" y="640.8"/>
      </g>
     </g>
     <g id="text_38">
      <!-- 20 -->
      <g transform="translate(544.458574 655.398438)scale(0.1 -0.1)">
       <use xlink:href="#DejaVuSans-50"/>
       <use x="63.623047" xlink:href="#DejaVuSans-48"/>
      </g>
     </g>
    </g>
    <g id="xtick_16">
     <g id="line2d_62">
      <g>
       <use style="stroke:#000000;stroke-width:0.8;" x="606.204238" xlink:href="#mc1f445e8d1" y="640.8"/>
      </g>
     </g>
     <g id="text_39">
      <!-- 40 -->
      <g transform="translate(599.841738 655.398438)scale(0.1 -0.1)">
       <use xlink:href="#DejaVuSans-52"/>
       <use x="63.623047" xlink:href="#DejaVuSans-48"/>
      </g>
     </g>
    </g>
    <g id="text_40">
     <!-- time -->
     <g transform="translate(505.935256 670.59625)scale(0.12 -0.12)">
      <use xlink:href="#DejaVuSans-Bold-116"/>
      <use x="47.802734" xlink:href="#DejaVuSans-Bold-105"/>
      <use x="82.080078" xlink:href="#DejaVuSans-Bold-109"/>
      <use x="186.279297" xlink:href="#DejaVuSans-Bold-101"/>
     </g>
    </g>
   </g>
   <g id="matplotlib.axis_8">
    <g id="ytick_18">
     <g id="line2d_63">
      <g>
       <use style="stroke:#000000;stroke-width:0.8;" x="394.363636" xlink:href="#mf8e0fac9b3" y="556.170992"/>
      </g>
     </g>
     <g id="text_41">
      <!-- $\mathdefault{10^{-2}}$ -->
      <g transform="translate(363.863636 559.970211)scale(0.1 -0.1)">
       <use transform="translate(0 0.765625)" xlink:href="#DejaVuSans-49"/>
       <use transform="translate(63.623047 0.765625)" xlink:href="#DejaVuSans-48"/>
       <use transform="translate(128.203125 39.046875)scale(0.7)" xlink:href="#DejaVuSans-8722"/>
       <use transform="translate(186.855469 39.046875)scale(0.7)" xlink:href="#DejaVuSans-50"/>
      </g>
     </g>
    </g>
    <g id="ytick_19">
     <g id="line2d_64">
      <g>
       <use style="stroke:#000000;stroke-width:0.8;" x="394.363636" xlink:href="#mf8e0fac9b3" y="404.569209"/>
      </g>
     </g>
     <g id="text_42">
      <!-- $\mathdefault{10^{-1}}$ -->
      <g transform="translate(363.863636 408.368427)scale(0.1 -0.1)">
       <use transform="translate(0 0.684375)" xlink:href="#DejaVuSans-49"/>
       <use transform="translate(63.623047 0.684375)" xlink:href="#DejaVuSans-48"/>
       <use transform="translate(128.203125 38.965625)scale(0.7)" xlink:href="#DejaVuSans-8722"/>
       <use transform="translate(186.855469 38.965625)scale(0.7)" xlink:href="#DejaVuSans-49"/>
      </g>
     </g>
    </g>
    <g id="ytick_20">
     <g id="line2d_65">
      <defs>
       <path d="M 0 0 
L -2 0 
" id="m710c82c8f6" style="stroke:#000000;stroke-width:0.6;"/>
      </defs>
      <g>
       <use style="stroke:#000000;stroke-width:0.6;" x="394.363636" xlink:href="#m710c82c8f6" y="635.440343"/>
      </g>
     </g>
    </g>
    <g id="ytick_21">
     <g id="line2d_66">
      <g>
       <use style="stroke:#000000;stroke-width:0.6;" x="394.363636" xlink:href="#m710c82c8f6" y="616.499407"/>
      </g>
     </g>
    </g>
    <g id="ytick_22">
     <g id="line2d_67">
      <g>
       <use style="stroke:#000000;stroke-width:0.6;" x="394.363636" xlink:href="#m710c82c8f6" y="601.807677"/>
      </g>
     </g>
    </g>
    <g id="ytick_23">
     <g id="line2d_68">
      <g>
       <use style="stroke:#000000;stroke-width:0.6;" x="394.363636" xlink:href="#m710c82c8f6" y="589.803658"/>
      </g>
     </g>
    </g>
    <g id="ytick_24">
     <g id="line2d_69">
      <g>
       <use style="stroke:#000000;stroke-width:0.6;" x="394.363636" xlink:href="#m710c82c8f6" y="579.654406"/>
      </g>
     </g>
    </g>
    <g id="ytick_25">
     <g id="line2d_70">
      <g>
       <use style="stroke:#000000;stroke-width:0.6;" x="394.363636" xlink:href="#m710c82c8f6" y="570.862723"/>
      </g>
     </g>
    </g>
    <g id="ytick_26">
     <g id="line2d_71">
      <g>
       <use style="stroke:#000000;stroke-width:0.6;" x="394.363636" xlink:href="#m710c82c8f6" y="563.10791"/>
      </g>
     </g>
    </g>
    <g id="ytick_27">
     <g id="line2d_72">
      <g>
       <use style="stroke:#000000;stroke-width:0.6;" x="394.363636" xlink:href="#m710c82c8f6" y="510.534308"/>
      </g>
     </g>
    </g>
    <g id="ytick_28">
     <g id="line2d_73">
      <g>
       <use style="stroke:#000000;stroke-width:0.6;" x="394.363636" xlink:href="#m710c82c8f6" y="483.838559"/>
      </g>
     </g>
    </g>
    <g id="ytick_29">
     <g id="line2d_74">
      <g>
       <use style="stroke:#000000;stroke-width:0.6;" x="394.363636" xlink:href="#m710c82c8f6" y="464.897624"/>
      </g>
     </g>
    </g>
    <g id="ytick_30">
     <g id="line2d_75">
      <g>
       <use style="stroke:#000000;stroke-width:0.6;" x="394.363636" xlink:href="#m710c82c8f6" y="450.205893"/>
      </g>
     </g>
    </g>
    <g id="ytick_31">
     <g id="line2d_76">
      <g>
       <use style="stroke:#000000;stroke-width:0.6;" x="394.363636" xlink:href="#m710c82c8f6" y="438.201875"/>
      </g>
     </g>
    </g>
    <g id="ytick_32">
     <g id="line2d_77">
      <g>
       <use style="stroke:#000000;stroke-width:0.6;" x="394.363636" xlink:href="#m710c82c8f6" y="428.052622"/>
      </g>
     </g>
    </g>
    <g id="ytick_33">
     <g id="line2d_78">
      <g>
       <use style="stroke:#000000;stroke-width:0.6;" x="394.363636" xlink:href="#m710c82c8f6" y="419.26094"/>
      </g>
     </g>
    </g>
    <g id="ytick_34">
     <g id="line2d_79">
      <g>
       <use style="stroke:#000000;stroke-width:0.6;" x="394.363636" xlink:href="#m710c82c8f6" y="411.506126"/>
      </g>
     </g>
    </g>
   </g>
   <g id="line2d_80">
    <g clip-path="url(#pdc394a82b6)">
     <use style="fill:#ff0000;stroke:#ff0000;" x="500.976227" xlink:href="#m8df02bdf5f" y="475.420399"/>
     <use style="fill:#ff0000;stroke:#ff0000;" x="504.845281" xlink:href="#m8df02bdf5f" y="629.345455"/>
     <use style="fill:#ff0000;stroke:#ff0000;" x="511.021456" xlink:href="#m8df02bdf5f" y="418.469074"/>
     <use style="fill:#ff0000;stroke:#ff0000;" x="516.899181" xlink:href="#m8df02bdf5f" y="456.059573"/>
     <use style="fill:#ff0000;stroke:#ff0000;" x="522.421961" xlink:href="#m8df02bdf5f" y="400.254545"/>
     <use style="fill:#ff0000;stroke:#ff0000;" x="536.428513" xlink:href="#m8df02bdf5f" y="443.575246"/>
     <use style="fill:#ff0000;stroke:#ff0000;" x="550.677964" xlink:href="#m8df02bdf5f" y="417.322912"/>
     <use style="fill:#ff0000;stroke:#ff0000;" x="578.206199" xlink:href="#m8df02bdf5f" y="455.224247"/>
     <use style="fill:#ff0000;stroke:#ff0000;" x="606.003695" xlink:href="#m8df02bdf5f" y="470.65961"/>
     <use style="fill:#ff0000;stroke:#ff0000;" x="634.130719" xlink:href="#m8df02bdf5f" y="496.075306"/>
    </g>
   </g>
   <g id="patch_21">
    <path d="M 394.363636 640.8 
L 394.363636 388.8 
" style="fill:none;stroke:#000000;stroke-linecap:square;stroke-linejoin:miter;stroke-width:0.8;"/>
   </g>
   <g id="patch_22">
    <path d="M 648 640.8 
L 648 388.8 
" style="fill:none;stroke:#000000;stroke-linecap:square;stroke-linejoin:miter;stroke-width:0.8;"/>
   </g>
   <g id="patch_23">
    <path d="M 394.363636 640.8 
L 648 640.8 
" style="fill:none;stroke:#000000;stroke-linecap:square;stroke-linejoin:miter;stroke-width:0.8;"/>
   </g>
   <g id="patch_24">
    <path d="M 394.363636 388.8 
L 648 388.8 
" style="fill:none;stroke:#000000;stroke-linecap:square;stroke-linejoin:miter;stroke-width:0.8;"/>
   </g>
   <g id="legend_4">
    <g id="patch_25">
     <path d="M 492.23125 523.639063 
L 641 523.639063 
Q 643 523.639063 643 521.639063 
L 643 507.960938 
Q 643 505.960938 641 505.960938 
L 492.23125 505.960938 
Q 490.23125 505.960938 490.23125 507.960938 
L 490.23125 521.639063 
Q 490.23125 523.639063 492.23125 523.639063 
z
" style="fill:#ffffff;opacity:0.8;stroke:#cccccc;stroke-linejoin:miter;"/>
    </g>
    <g id="line2d_81"/>
    <g id="line2d_82">
     <g>
      <use style="fill:#ff0000;stroke:#ff0000;" x="504.23125" xlink:href="#m8df02bdf5f" y="514.059375"/>
     </g>
    </g>
    <g id="text_43">
     <!-- (weighted residuals)^2 -->
     <g transform="translate(522.23125 517.559375)scale(0.1 -0.1)">
      <use xlink:href="#DejaVuSans-40"/>
      <use x="39.013672" xlink:href="#DejaVuSans-119"/>
      <use x="120.800781" xlink:href="#DejaVuSans-101"/>
      <use x="182.324219" xlink:href="#DejaVuSans-105"/>
      <use x="210.107422" xlink:href="#DejaVuSans-103"/>
      <use x="273.583984" xlink:href="#DejaVuSans-104"/>
      <use x="336.962891" xlink:href="#DejaVuSans-116"/>
      <use x="376.171875" xlink:href="#DejaVuSans-101"/>
      <use x="437.695312" xlink:href="#DejaVuSans-100"/>
      <use x="501.171875" xlink:href="#DejaVuSans-32"/>
      <use x="532.958984" xlink:href="#DejaVuSans-114"/>
      <use x="571.822266" xlink:href="#DejaVuSans-101"/>
      <use x="633.345703" xlink:href="#DejaVuSans-115"/>
      <use x="685.445312" xlink:href="#DejaVuSans-105"/>
      <use x="713.228516" xlink:href="#DejaVuSans-100"/>
      <use x="776.705078" xlink:href="#DejaVuSans-117"/>
      <use x="840.083984" xlink:href="#DejaVuSans-97"/>
      <use x="901.363281" xlink:href="#DejaVuSans-108"/>
      <use x="929.146484" xlink:href="#DejaVuSans-115"/>
      <use x="981.246094" xlink:href="#DejaVuSans-41"/>
      <use x="1020.259766" xlink:href="#DejaVuSans-94"/>
      <use x="1104.048828" xlink:href="#DejaVuSans-50"/>
     </g>
    </g>
   </g>
  </g>
 </g>
 <defs>
  <clipPath id="p59754e916d">
   <rect height="252" width="253.636364" x="90" y="86.4"/>
  </clipPath>
  <clipPath id="pc41804db26">
   <rect height="252" width="253.636364" x="394.363636" y="86.4"/>
  </clipPath>
  <clipPath id="p508d2671df">
   <rect height="252" width="253.636364" x="90" y="388.8"/>
  </clipPath>
  <clipPath id="pdc394a82b6">
   <rect height="252" width="253.636364" x="394.363636" y="388.8"/>
  </clipPath>
 </defs>
</svg>
