<?xml version="1.0" encoding="utf-8" standalone="no"?>
<!DOCTYPE svg PUBLIC "-//W3C//DTD SVG 1.1//EN"
  "http://www.w3.org/Graphics/SVG/1.1/DTD/svg11.dtd">
<!-- Created with matplotlib (https://matplotlib.org/) -->
<svg height="360pt" version="1.1" viewBox="0 0 360 360" width="360pt" xmlns="http://www.w3.org/2000/svg" xmlns:xlink="http://www.w3.org/1999/xlink">
 <metadata>
  <rdf:RDF xmlns:cc="http://creativecommons.org/ns#" xmlns:dc="http://purl.org/dc/elements/1.1/" xmlns:rdf="http://www.w3.org/1999/02/22-rdf-syntax-ns#">
   <cc:Work>
    <dc:type rdf:resource="http://purl.org/dc/dcmitype/StillImage"/>
    <dc:date>2021-03-24T12:55:24.490915</dc:date>
    <dc:format>image/svg+xml</dc:format>
    <dc:creator>
     <cc:Agent>
      <dc:title>Matplotlib v3.3.4, https://matplotlib.org/</dc:title>
     </cc:Agent>
    </dc:creator>
   </cc:Work>
  </rdf:RDF>
 </metadata>
 <defs>
  <style type="text/css">*{stroke-linecap:butt;stroke-linejoin:round;}</style>
 </defs>
 <g id="figure_1">
  <g id="patch_1">
   <path d="M 0 360 
L 360 360 
L 360 0 
L 0 0 
z
" style="fill:#ffffff;"/>
  </g>
  <g id="axes_1">
   <g id="patch_2">
    <path d="M 72 324 
L 324 324 
L 324 43.2 
L 72 43.2 
z
" style="fill:#ffffff;"/>
   </g>
   <g id="matplotlib.axis_1">
    <g id="xtick_1">
     <g id="line2d_1">
      <defs>
       <path d="M 0 0 
L 0 3.5 
" id="mf3d29a5255" style="stroke:#000000;stroke-width:0.8;"/>
      </defs>
      <g>
       <use style="stroke:#000000;stroke-width:0.8;" x="83.454545" xlink:href="#mf3d29a5255" y="324"/>
      </g>
     </g>
     <g id="text_1">
      <!-- 0 -->
      <g transform="translate(80.273295 338.598437)scale(0.1 -0.1)">
       <defs>
        <path d="M 31.78125 66.40625 
Q 24.171875 66.40625 20.328125 58.90625 
Q 16.5 51.421875 16.5 36.375 
Q 16.5 21.390625 20.328125 13.890625 
Q 24.171875 6.390625 31.78125 6.390625 
Q 39.453125 6.390625 43.28125 13.890625 
Q 47.125 21.390625 47.125 36.375 
Q 47.125 51.421875 43.28125 58.90625 
Q 39.453125 66.40625 31.78125 66.40625 
z
M 31.78125 74.21875 
Q 44.046875 74.21875 50.515625 64.515625 
Q 56.984375 54.828125 56.984375 36.375 
Q 56.984375 17.96875 50.515625 8.265625 
Q 44.046875 -1.421875 31.78125 -1.421875 
Q 19.53125 -1.421875 13.0625 8.265625 
Q 6.59375 17.96875 6.59375 36.375 
Q 6.59375 54.828125 13.0625 64.515625 
Q 19.53125 74.21875 31.78125 74.21875 
z
" id="DejaVuSans-48"/>
       </defs>
       <use xlink:href="#DejaVuSans-48"/>
      </g>
     </g>
    </g>
    <g id="xtick_2">
     <g id="line2d_2">
      <g>
       <use style="stroke:#000000;stroke-width:0.8;" x="129.456736" xlink:href="#mf3d29a5255" y="324"/>
      </g>
     </g>
     <g id="text_2">
      <!-- 50 -->
      <g transform="translate(123.094236 338.598437)scale(0.1 -0.1)">
       <defs>
        <path d="M 10.796875 72.90625 
L 49.515625 72.90625 
L 49.515625 64.59375 
L 19.828125 64.59375 
L 19.828125 46.734375 
Q 21.96875 47.46875 24.109375 47.828125 
Q 26.265625 48.1875 28.421875 48.1875 
Q 40.625 48.1875 47.75 41.5 
Q 54.890625 34.8125 54.890625 23.390625 
Q 54.890625 11.625 47.5625 5.09375 
Q 40.234375 -1.421875 26.90625 -1.421875 
Q 22.3125 -1.421875 17.546875 -0.640625 
Q 12.796875 0.140625 7.71875 1.703125 
L 7.71875 11.625 
Q 12.109375 9.234375 16.796875 8.0625 
Q 21.484375 6.890625 26.703125 6.890625 
Q 35.15625 6.890625 40.078125 11.328125 
Q 45.015625 15.765625 45.015625 23.390625 
Q 45.015625 31 40.078125 35.4375 
Q 35.15625 39.890625 26.703125 39.890625 
Q 22.75 39.890625 18.8125 39.015625 
Q 14.890625 38.140625 10.796875 36.28125 
z
" id="DejaVuSans-53"/>
       </defs>
       <use xlink:href="#DejaVuSans-53"/>
       <use x="63.623047" xlink:href="#DejaVuSans-48"/>
      </g>
     </g>
    </g>
    <g id="xtick_3">
     <g id="line2d_3">
      <g>
       <use style="stroke:#000000;stroke-width:0.8;" x="175.458927" xlink:href="#mf3d29a5255" y="324"/>
      </g>
     </g>
     <g id="text_3">
      <!-- 100 -->
      <g transform="translate(165.915177 338.598437)scale(0.1 -0.1)">
       <defs>
        <path d="M 12.40625 8.296875 
L 28.515625 8.296875 
L 28.515625 63.921875 
L 10.984375 60.40625 
L 10.984375 69.390625 
L 28.421875 72.90625 
L 38.28125 72.90625 
L 38.28125 8.296875 
L 54.390625 8.296875 
L 54.390625 0 
L 12.40625 0 
z
" id="DejaVuSans-49"/>
       </defs>
       <use xlink:href="#DejaVuSans-49"/>
       <use x="63.623047" xlink:href="#DejaVuSans-48"/>
       <use x="127.246094" xlink:href="#DejaVuSans-48"/>
      </g>
     </g>
    </g>
    <g id="xtick_4">
     <g id="line2d_4">
      <g>
       <use style="stroke:#000000;stroke-width:0.8;" x="221.461117" xlink:href="#mf3d29a5255" y="324"/>
      </g>
     </g>
     <g id="text_4">
      <!-- 150 -->
      <g transform="translate(211.917367 338.598437)scale(0.1 -0.1)">
       <use xlink:href="#DejaVuSans-49"/>
       <use x="63.623047" xlink:href="#DejaVuSans-53"/>
       <use x="127.246094" xlink:href="#DejaVuSans-48"/>
      </g>
     </g>
    </g>
    <g id="xtick_5">
     <g id="line2d_5">
      <g>
       <use style="stroke:#000000;stroke-width:0.8;" x="267.463308" xlink:href="#mf3d29a5255" y="324"/>
      </g>
     </g>
     <g id="text_5">
      <!-- 200 -->
      <g transform="translate(257.919558 338.598437)scale(0.1 -0.1)">
       <defs>
        <path d="M 19.1875 8.296875 
L 53.609375 8.296875 
L 53.609375 0 
L 7.328125 0 
L 7.328125 8.296875 
Q 12.9375 14.109375 22.625 23.890625 
Q 32.328125 33.6875 34.8125 36.53125 
Q 39.546875 41.84375 41.421875 45.53125 
Q 43.3125 49.21875 43.3125 52.78125 
Q 43.3125 58.59375 39.234375 62.25 
Q 35.15625 65.921875 28.609375 65.921875 
Q 23.96875 65.921875 18.8125 64.3125 
Q 13.671875 62.703125 7.8125 59.421875 
L 7.8125 69.390625 
Q 13.765625 71.78125 18.9375 73 
Q 24.125 74.21875 28.421875 74.21875 
Q 39.75 74.21875 46.484375 68.546875 
Q 53.21875 62.890625 53.21875 53.421875 
Q 53.21875 48.921875 51.53125 44.890625 
Q 49.859375 40.875 45.40625 35.40625 
Q 44.1875 33.984375 37.640625 27.21875 
Q 31.109375 20.453125 19.1875 8.296875 
z
" id="DejaVuSans-50"/>
       </defs>
       <use xlink:href="#DejaVuSans-50"/>
       <use x="63.623047" xlink:href="#DejaVuSans-48"/>
       <use x="127.246094" xlink:href="#DejaVuSans-48"/>
      </g>
     </g>
    </g>
    <g id="xtick_6">
     <g id="line2d_6">
      <g>
       <use style="stroke:#000000;stroke-width:0.8;" x="313.465498" xlink:href="#mf3d29a5255" y="324"/>
      </g>
     </g>
     <g id="text_6">
      <!-- 250 -->
      <g transform="translate(303.921748 338.598437)scale(0.1 -0.1)">
       <use xlink:href="#DejaVuSans-50"/>
       <use x="63.623047" xlink:href="#DejaVuSans-53"/>
       <use x="127.246094" xlink:href="#DejaVuSans-48"/>
      </g>
     </g>
    </g>
    <g id="text_7">
     <!-- Index (ordered optimizer run) -->
     <g transform="translate(97.070625 353.79625)scale(0.12 -0.12)">
      <defs>
       <path d="M 9.1875 72.90625 
L 27.984375 72.90625 
L 27.984375 0 
L 9.1875 0 
z
" id="DejaVuSans-Bold-73"/>
       <path d="M 63.375 33.296875 
L 63.375 0 
L 45.796875 0 
L 45.796875 5.421875 
L 45.796875 25.484375 
Q 45.796875 32.5625 45.484375 35.25 
Q 45.171875 37.9375 44.390625 39.203125 
Q 43.359375 40.921875 41.59375 41.875 
Q 39.84375 42.828125 37.59375 42.828125 
Q 32.125 42.828125 29 38.59375 
Q 25.875 34.375 25.875 26.90625 
L 25.875 0 
L 8.40625 0 
L 8.40625 54.6875 
L 25.875 54.6875 
L 25.875 46.6875 
Q 29.828125 51.46875 34.265625 53.734375 
Q 38.71875 56 44.09375 56 
Q 53.5625 56 58.46875 50.1875 
Q 63.375 44.390625 63.375 33.296875 
z
" id="DejaVuSans-Bold-110"/>
       <path d="M 45.609375 46.6875 
L 45.609375 75.984375 
L 63.1875 75.984375 
L 63.1875 0 
L 45.609375 0 
L 45.609375 7.90625 
Q 42 3.078125 37.640625 0.828125 
Q 33.296875 -1.421875 27.59375 -1.421875 
Q 17.484375 -1.421875 10.984375 6.609375 
Q 4.5 14.65625 4.5 27.296875 
Q 4.5 39.9375 10.984375 47.96875 
Q 17.484375 56 27.59375 56 
Q 33.25 56 37.625 53.734375 
Q 42 51.46875 45.609375 46.6875 
z
M 34.078125 11.28125 
Q 39.703125 11.28125 42.65625 15.375 
Q 45.609375 19.484375 45.609375 27.296875 
Q 45.609375 35.109375 42.65625 39.203125 
Q 39.703125 43.3125 34.078125 43.3125 
Q 28.515625 43.3125 25.5625 39.203125 
Q 22.609375 35.109375 22.609375 27.296875 
Q 22.609375 19.484375 25.5625 15.375 
Q 28.515625 11.28125 34.078125 11.28125 
z
" id="DejaVuSans-Bold-100"/>
       <path d="M 62.984375 27.484375 
L 62.984375 22.515625 
L 22.125 22.515625 
Q 22.75 16.359375 26.5625 13.28125 
Q 30.375 10.203125 37.203125 10.203125 
Q 42.71875 10.203125 48.5 11.84375 
Q 54.296875 13.484375 60.40625 16.796875 
L 60.40625 3.328125 
Q 54.203125 0.984375 48 -0.21875 
Q 41.796875 -1.421875 35.59375 -1.421875 
Q 20.75 -1.421875 12.515625 6.125 
Q 4.296875 13.671875 4.296875 27.296875 
Q 4.296875 40.671875 12.375 48.328125 
Q 20.453125 56 34.625 56 
Q 47.515625 56 55.25 48.234375 
Q 62.984375 40.484375 62.984375 27.484375 
z
M 45.015625 33.296875 
Q 45.015625 38.28125 42.109375 41.328125 
Q 39.203125 44.390625 34.515625 44.390625 
Q 29.4375 44.390625 26.265625 41.53125 
Q 23.09375 38.671875 22.3125 33.296875 
z
" id="DejaVuSans-Bold-101"/>
       <path d="M 22.21875 27.984375 
L 2.484375 54.6875 
L 21 54.6875 
L 32.171875 38.484375 
L 43.5 54.6875 
L 62.015625 54.6875 
L 42.28125 28.078125 
L 62.984375 0 
L 44.484375 0 
L 32.171875 17.28125 
L 20.015625 0 
L 1.515625 0 
z
" id="DejaVuSans-Bold-120"/>
       <path id="DejaVuSans-Bold-32"/>
       <path d="M 37.703125 -13.1875 
L 23.1875 -13.1875 
Q 15.71875 -1.125 12.15625 9.734375 
Q 8.59375 20.609375 8.59375 31.296875 
Q 8.59375 42 12.171875 52.953125 
Q 15.765625 63.921875 23.1875 75.875 
L 37.703125 75.875 
Q 31.453125 64.3125 28.328125 53.25 
Q 25.203125 42.1875 25.203125 31.390625 
Q 25.203125 20.609375 28.296875 9.515625 
Q 31.390625 -1.5625 37.703125 -13.1875 
z
" id="DejaVuSans-Bold-40"/>
       <path d="M 34.421875 43.5 
Q 28.609375 43.5 25.5625 39.328125 
Q 22.515625 35.15625 22.515625 27.296875 
Q 22.515625 19.4375 25.5625 15.25 
Q 28.609375 11.078125 34.421875 11.078125 
Q 40.140625 11.078125 43.15625 15.25 
Q 46.1875 19.4375 46.1875 27.296875 
Q 46.1875 35.15625 43.15625 39.328125 
Q 40.140625 43.5 34.421875 43.5 
z
M 34.421875 56 
Q 48.53125 56 56.46875 48.375 
Q 64.40625 40.765625 64.40625 27.296875 
Q 64.40625 13.8125 56.46875 6.1875 
Q 48.53125 -1.421875 34.421875 -1.421875 
Q 20.265625 -1.421875 12.28125 6.1875 
Q 4.296875 13.8125 4.296875 27.296875 
Q 4.296875 40.765625 12.28125 48.375 
Q 20.265625 56 34.421875 56 
z
" id="DejaVuSans-Bold-111"/>
       <path d="M 49.03125 39.796875 
Q 46.734375 40.875 44.453125 41.375 
Q 42.1875 41.890625 39.890625 41.890625 
Q 33.15625 41.890625 29.515625 37.5625 
Q 25.875 33.25 25.875 25.203125 
L 25.875 0 
L 8.40625 0 
L 8.40625 54.6875 
L 25.875 54.6875 
L 25.875 45.703125 
Q 29.25 51.078125 33.609375 53.53125 
Q 37.984375 56 44.09375 56 
Q 44.96875 56 45.984375 55.921875 
Q 47.015625 55.859375 48.96875 55.609375 
z
" id="DejaVuSans-Bold-114"/>
       <path d="M 25.875 7.90625 
L 25.875 -20.796875 
L 8.40625 -20.796875 
L 8.40625 54.6875 
L 25.875 54.6875 
L 25.875 46.6875 
Q 29.5 51.46875 33.890625 53.734375 
Q 38.28125 56 44 56 
Q 54.109375 56 60.59375 47.96875 
Q 67.09375 39.9375 67.09375 27.296875 
Q 67.09375 14.65625 60.59375 6.609375 
Q 54.109375 -1.421875 44 -1.421875 
Q 38.28125 -1.421875 33.890625 0.84375 
Q 29.5 3.125 25.875 7.90625 
z
M 37.5 43.3125 
Q 31.890625 43.3125 28.875 39.1875 
Q 25.875 35.0625 25.875 27.296875 
Q 25.875 19.53125 28.875 15.40625 
Q 31.890625 11.28125 37.5 11.28125 
Q 43.109375 11.28125 46.0625 15.375 
Q 49.03125 19.484375 49.03125 27.296875 
Q 49.03125 35.109375 46.0625 39.203125 
Q 43.109375 43.3125 37.5 43.3125 
z
" id="DejaVuSans-Bold-112"/>
       <path d="M 27.484375 70.21875 
L 27.484375 54.6875 
L 45.515625 54.6875 
L 45.515625 42.1875 
L 27.484375 42.1875 
L 27.484375 19 
Q 27.484375 15.1875 29 13.84375 
Q 30.515625 12.5 35.015625 12.5 
L 44 12.5 
L 44 0 
L 29 0 
Q 18.65625 0 14.328125 4.3125 
Q 10.015625 8.640625 10.015625 19 
L 10.015625 42.1875 
L 1.3125 42.1875 
L 1.3125 54.6875 
L 10.015625 54.6875 
L 10.015625 70.21875 
z
" id="DejaVuSans-Bold-116"/>
       <path d="M 8.40625 54.6875 
L 25.875 54.6875 
L 25.875 0 
L 8.40625 0 
z
M 8.40625 75.984375 
L 25.875 75.984375 
L 25.875 61.71875 
L 8.40625 61.71875 
z
" id="DejaVuSans-Bold-105"/>
       <path d="M 59.078125 45.609375 
Q 62.40625 50.6875 66.96875 53.34375 
Q 71.53125 56 77 56 
Q 86.421875 56 91.359375 50.1875 
Q 96.296875 44.390625 96.296875 33.296875 
L 96.296875 0 
L 78.71875 0 
L 78.71875 28.515625 
Q 78.765625 29.15625 78.78125 29.828125 
Q 78.8125 30.515625 78.8125 31.78125 
Q 78.8125 37.59375 77.09375 40.203125 
Q 75.390625 42.828125 71.578125 42.828125 
Q 66.609375 42.828125 63.890625 38.71875 
Q 61.1875 34.625 61.078125 26.859375 
L 61.078125 0 
L 43.5 0 
L 43.5 28.515625 
Q 43.5 37.59375 41.9375 40.203125 
Q 40.375 42.828125 36.375 42.828125 
Q 31.34375 42.828125 28.609375 38.703125 
Q 25.875 34.578125 25.875 26.90625 
L 25.875 0 
L 8.296875 0 
L 8.296875 54.6875 
L 25.875 54.6875 
L 25.875 46.6875 
Q 29.109375 51.3125 33.28125 53.65625 
Q 37.453125 56 42.484375 56 
Q 48.140625 56 52.484375 53.265625 
Q 56.84375 50.53125 59.078125 45.609375 
z
" id="DejaVuSans-Bold-109"/>
       <path d="M 5.71875 54.6875 
L 53.421875 54.6875 
L 53.421875 42.484375 
L 24.609375 12.5 
L 53.421875 12.5 
L 53.421875 0 
L 4.5 0 
L 4.5 12.203125 
L 33.296875 42.1875 
L 5.71875 42.1875 
z
" id="DejaVuSans-Bold-122"/>
       <path d="M 7.8125 21.296875 
L 7.8125 54.6875 
L 25.390625 54.6875 
L 25.390625 49.21875 
Q 25.390625 44.78125 25.34375 38.0625 
Q 25.296875 31.34375 25.296875 29.109375 
Q 25.296875 22.515625 25.640625 19.609375 
Q 25.984375 16.703125 26.8125 15.375 
Q 27.875 13.671875 29.609375 12.734375 
Q 31.34375 11.8125 33.59375 11.8125 
Q 39.0625 11.8125 42.1875 16.015625 
Q 45.3125 20.21875 45.3125 27.6875 
L 45.3125 54.6875 
L 62.796875 54.6875 
L 62.796875 0 
L 45.3125 0 
L 45.3125 7.90625 
Q 41.359375 3.125 36.9375 0.84375 
Q 32.515625 -1.421875 27.203125 -1.421875 
Q 17.71875 -1.421875 12.765625 4.390625 
Q 7.8125 10.203125 7.8125 21.296875 
z
" id="DejaVuSans-Bold-117"/>
       <path d="M 8.015625 -13.1875 
Q 14.265625 -1.5625 17.390625 9.515625 
Q 20.515625 20.609375 20.515625 31.390625 
Q 20.515625 42.1875 17.390625 53.25 
Q 14.265625 64.3125 8.015625 75.875 
L 22.515625 75.875 
Q 29.9375 63.921875 33.515625 52.953125 
Q 37.109375 42 37.109375 31.296875 
Q 37.109375 20.609375 33.546875 9.734375 
Q 29.984375 -1.125 22.515625 -13.1875 
z
" id="DejaVuSans-Bold-41"/>
      </defs>
      <use xlink:href="#DejaVuSans-Bold-73"/>
      <use x="37.207031" xlink:href="#DejaVuSans-Bold-110"/>
      <use x="108.398438" xlink:href="#DejaVuSans-Bold-100"/>
      <use x="179.980469" xlink:href="#DejaVuSans-Bold-101"/>
      <use x="247.802734" xlink:href="#DejaVuSans-Bold-120"/>
      <use x="312.304688" xlink:href="#DejaVuSans-Bold-32"/>
      <use x="347.119141" xlink:href="#DejaVuSans-Bold-40"/>
      <use x="392.822266" xlink:href="#DejaVuSans-Bold-111"/>
      <use x="461.523438" xlink:href="#DejaVuSans-Bold-114"/>
      <use x="510.839844" xlink:href="#DejaVuSans-Bold-100"/>
      <use x="582.421875" xlink:href="#DejaVuSans-Bold-101"/>
      <use x="650.244141" xlink:href="#DejaVuSans-Bold-114"/>
      <use x="699.560547" xlink:href="#DejaVuSans-Bold-101"/>
      <use x="767.382812" xlink:href="#DejaVuSans-Bold-100"/>
      <use x="838.964844" xlink:href="#DejaVuSans-Bold-32"/>
      <use x="873.779297" xlink:href="#DejaVuSans-Bold-111"/>
      <use x="942.480469" xlink:href="#DejaVuSans-Bold-112"/>
      <use x="1014.0625" xlink:href="#DejaVuSans-Bold-116"/>
      <use x="1061.865234" xlink:href="#DejaVuSans-Bold-105"/>
      <use x="1096.142578" xlink:href="#DejaVuSans-Bold-109"/>
      <use x="1200.341797" xlink:href="#DejaVuSans-Bold-105"/>
      <use x="1234.619141" xlink:href="#DejaVuSans-Bold-122"/>
      <use x="1292.822266" xlink:href="#DejaVuSans-Bold-101"/>
      <use x="1360.644531" xlink:href="#DejaVuSans-Bold-114"/>
      <use x="1409.960938" xlink:href="#DejaVuSans-Bold-32"/>
      <use x="1444.775391" xlink:href="#DejaVuSans-Bold-114"/>
      <use x="1494.091797" xlink:href="#DejaVuSans-Bold-117"/>
      <use x="1565.283203" xlink:href="#DejaVuSans-Bold-110"/>
      <use x="1636.474609" xlink:href="#DejaVuSans-Bold-41"/>
     </g>
    </g>
   </g>
   <g id="matplotlib.axis_2">
    <g id="ytick_1">
     <g id="line2d_7">
      <defs>
       <path d="M 0 0 
L -3.5 0 
" id="mafe578e39c" style="stroke:#000000;stroke-width:0.8;"/>
      </defs>
      <g>
       <use style="stroke:#000000;stroke-width:0.8;" x="72" xlink:href="#mafe578e39c" y="311.236364"/>
      </g>
     </g>
     <g id="text_8">
      <!-- $\mathdefault{10^{0}}$ -->
      <g transform="translate(47.4 315.035582)scale(0.1 -0.1)">
       <use transform="translate(0 0.765625)" xlink:href="#DejaVuSans-49"/>
       <use transform="translate(63.623047 0.765625)" xlink:href="#DejaVuSans-48"/>
       <use transform="translate(128.203125 39.046875)scale(0.7)" xlink:href="#DejaVuSans-48"/>
      </g>
     </g>
    </g>
    <g id="ytick_2">
     <g id="line2d_8">
      <g>
       <use style="stroke:#000000;stroke-width:0.8;" x="72" xlink:href="#mafe578e39c" y="214.286184"/>
      </g>
     </g>
     <g id="text_9">
      <!-- $\mathdefault{10^{1}}$ -->
      <g transform="translate(47.4 218.085403)scale(0.1 -0.1)">
       <use transform="translate(0 0.684375)" xlink:href="#DejaVuSans-49"/>
       <use transform="translate(63.623047 0.684375)" xlink:href="#DejaVuSans-48"/>
       <use transform="translate(128.203125 38.965625)scale(0.7)" xlink:href="#DejaVuSans-49"/>
      </g>
     </g>
    </g>
    <g id="ytick_3">
     <g id="line2d_9">
      <g>
       <use style="stroke:#000000;stroke-width:0.8;" x="72" xlink:href="#mafe578e39c" y="117.336004"/>
      </g>
     </g>
     <g id="text_10">
      <!-- $\mathdefault{10^{2}}$ -->
      <g transform="translate(47.4 121.135223)scale(0.1 -0.1)">
       <use transform="translate(0 0.765625)" xlink:href="#DejaVuSans-49"/>
       <use transform="translate(63.623047 0.765625)" xlink:href="#DejaVuSans-48"/>
       <use transform="translate(128.203125 39.046875)scale(0.7)" xlink:href="#DejaVuSans-50"/>
      </g>
     </g>
    </g>
    <g id="ytick_4">
     <g id="line2d_10">
      <defs>
       <path d="M 0 0 
L -2 0 
" id="me167cd86b1" style="stroke:#000000;stroke-width:0.6;"/>
      </defs>
      <g>
       <use style="stroke:#000000;stroke-width:0.6;" x="72" xlink:href="#me167cd86b1" y="320.631807"/>
      </g>
     </g>
    </g>
    <g id="ytick_5">
     <g id="line2d_11">
      <g>
       <use style="stroke:#000000;stroke-width:0.6;" x="72" xlink:href="#me167cd86b1" y="315.672561"/>
      </g>
     </g>
    </g>
    <g id="ytick_6">
     <g id="line2d_12">
      <g>
       <use style="stroke:#000000;stroke-width:0.6;" x="72" xlink:href="#me167cd86b1" y="282.051451"/>
      </g>
     </g>
    </g>
    <g id="ytick_7">
     <g id="line2d_13">
      <g>
       <use style="stroke:#000000;stroke-width:0.6;" x="72" xlink:href="#me167cd86b1" y="264.979372"/>
      </g>
     </g>
    </g>
    <g id="ytick_8">
     <g id="line2d_14">
      <g>
       <use style="stroke:#000000;stroke-width:0.6;" x="72" xlink:href="#me167cd86b1" y="252.866539"/>
      </g>
     </g>
    </g>
    <g id="ytick_9">
     <g id="line2d_15">
      <g>
       <use style="stroke:#000000;stroke-width:0.6;" x="72" xlink:href="#me167cd86b1" y="243.471096"/>
      </g>
     </g>
    </g>
    <g id="ytick_10">
     <g id="line2d_16">
      <g>
       <use style="stroke:#000000;stroke-width:0.6;" x="72" xlink:href="#me167cd86b1" y="235.79446"/>
      </g>
     </g>
    </g>
    <g id="ytick_11">
     <g id="line2d_17">
      <g>
       <use style="stroke:#000000;stroke-width:0.6;" x="72" xlink:href="#me167cd86b1" y="229.303957"/>
      </g>
     </g>
    </g>
    <g id="ytick_12">
     <g id="line2d_18">
      <g>
       <use style="stroke:#000000;stroke-width:0.6;" x="72" xlink:href="#me167cd86b1" y="223.681627"/>
      </g>
     </g>
    </g>
    <g id="ytick_13">
     <g id="line2d_19">
      <g>
       <use style="stroke:#000000;stroke-width:0.6;" x="72" xlink:href="#me167cd86b1" y="218.722381"/>
      </g>
     </g>
    </g>
    <g id="ytick_14">
     <g id="line2d_20">
      <g>
       <use style="stroke:#000000;stroke-width:0.6;" x="72" xlink:href="#me167cd86b1" y="185.101272"/>
      </g>
     </g>
    </g>
    <g id="ytick_15">
     <g id="line2d_21">
      <g>
       <use style="stroke:#000000;stroke-width:0.6;" x="72" xlink:href="#me167cd86b1" y="168.029192"/>
      </g>
     </g>
    </g>
    <g id="ytick_16">
     <g id="line2d_22">
      <g>
       <use style="stroke:#000000;stroke-width:0.6;" x="72" xlink:href="#me167cd86b1" y="155.916359"/>
      </g>
     </g>
    </g>
    <g id="ytick_17">
     <g id="line2d_23">
      <g>
       <use style="stroke:#000000;stroke-width:0.6;" x="72" xlink:href="#me167cd86b1" y="146.520916"/>
      </g>
     </g>
    </g>
    <g id="ytick_18">
     <g id="line2d_24">
      <g>
       <use style="stroke:#000000;stroke-width:0.6;" x="72" xlink:href="#me167cd86b1" y="138.84428"/>
      </g>
     </g>
    </g>
    <g id="ytick_19">
     <g id="line2d_25">
      <g>
       <use style="stroke:#000000;stroke-width:0.6;" x="72" xlink:href="#me167cd86b1" y="132.353777"/>
      </g>
     </g>
    </g>
    <g id="ytick_20">
     <g id="line2d_26">
      <g>
       <use style="stroke:#000000;stroke-width:0.6;" x="72" xlink:href="#me167cd86b1" y="126.731447"/>
      </g>
     </g>
    </g>
    <g id="ytick_21">
     <g id="line2d_27">
      <g>
       <use style="stroke:#000000;stroke-width:0.6;" x="72" xlink:href="#me167cd86b1" y="121.772201"/>
      </g>
     </g>
    </g>
    <g id="ytick_22">
     <g id="line2d_28">
      <g>
       <use style="stroke:#000000;stroke-width:0.6;" x="72" xlink:href="#me167cd86b1" y="88.151092"/>
      </g>
     </g>
    </g>
    <g id="ytick_23">
     <g id="line2d_29">
      <g>
       <use style="stroke:#000000;stroke-width:0.6;" x="72" xlink:href="#me167cd86b1" y="71.079013"/>
      </g>
     </g>
    </g>
    <g id="ytick_24">
     <g id="line2d_30">
      <g>
       <use style="stroke:#000000;stroke-width:0.6;" x="72" xlink:href="#me167cd86b1" y="58.96618"/>
      </g>
     </g>
    </g>
    <g id="ytick_25">
     <g id="line2d_31">
      <g>
       <use style="stroke:#000000;stroke-width:0.6;" x="72" xlink:href="#me167cd86b1" y="49.570736"/>
      </g>
     </g>
    </g>
    <g id="text_11">
     <!-- Offset cost value (relative to best start) -->
     <g transform="translate(40.904375 319.069687)rotate(-90)scale(0.12 -0.12)">
      <defs>
       <path d="M 42.484375 60.59375 
Q 33.890625 60.59375 29.15625 54.25 
Q 24.421875 47.90625 24.421875 36.375 
Q 24.421875 24.90625 29.15625 18.546875 
Q 33.890625 12.203125 42.484375 12.203125 
Q 51.125 12.203125 55.859375 18.546875 
Q 60.59375 24.90625 60.59375 36.375 
Q 60.59375 47.90625 55.859375 54.25 
Q 51.125 60.59375 42.484375 60.59375 
z
M 42.484375 74.21875 
Q 60.0625 74.21875 70.015625 64.15625 
Q 79.984375 54.109375 79.984375 36.375 
Q 79.984375 18.703125 70.015625 8.640625 
Q 60.0625 -1.421875 42.484375 -1.421875 
Q 24.953125 -1.421875 14.96875 8.640625 
Q 4.984375 18.703125 4.984375 36.375 
Q 4.984375 54.109375 14.96875 64.15625 
Q 24.953125 74.21875 42.484375 74.21875 
z
" id="DejaVuSans-Bold-79"/>
       <path d="M 44.390625 75.984375 
L 44.390625 64.5 
L 34.71875 64.5 
Q 31 64.5 29.53125 63.15625 
Q 28.078125 61.8125 28.078125 58.5 
L 28.078125 54.6875 
L 43.015625 54.6875 
L 43.015625 42.1875 
L 28.078125 42.1875 
L 28.078125 0 
L 10.59375 0 
L 10.59375 42.1875 
L 1.90625 42.1875 
L 1.90625 54.6875 
L 10.59375 54.6875 
L 10.59375 58.5 
Q 10.59375 67.4375 15.578125 71.703125 
Q 20.5625 75.984375 31 75.984375 
z
" id="DejaVuSans-Bold-102"/>
       <path d="M 51.125 52.984375 
L 51.125 39.703125 
Q 45.515625 42.046875 40.28125 43.21875 
Q 35.0625 44.390625 30.421875 44.390625 
Q 25.4375 44.390625 23.015625 43.140625 
Q 20.609375 41.890625 20.609375 39.3125 
Q 20.609375 37.203125 22.4375 36.078125 
Q 24.265625 34.96875 29 34.421875 
L 32.078125 33.984375 
Q 45.515625 32.28125 50.140625 28.375 
Q 54.78125 24.46875 54.78125 16.109375 
Q 54.78125 7.375 48.328125 2.96875 
Q 41.890625 -1.421875 29.109375 -1.421875 
Q 23.6875 -1.421875 17.890625 -0.5625 
Q 12.109375 0.296875 6 2 
L 6 15.28125 
Q 11.234375 12.75 16.71875 11.46875 
Q 22.21875 10.203125 27.875 10.203125 
Q 33.015625 10.203125 35.59375 11.609375 
Q 38.1875 13.03125 38.1875 15.828125 
Q 38.1875 18.171875 36.40625 19.3125 
Q 34.625 20.453125 29.296875 21.09375 
L 26.21875 21.484375 
Q 14.546875 22.953125 9.859375 26.90625 
Q 5.171875 30.859375 5.171875 38.921875 
Q 5.171875 47.609375 11.125 51.796875 
Q 17.09375 56 29.390625 56 
Q 34.234375 56 39.546875 55.265625 
Q 44.875 54.546875 51.125 52.984375 
z
" id="DejaVuSans-Bold-115"/>
       <path d="M 52.59375 52.984375 
L 52.59375 38.71875 
Q 49.03125 41.15625 45.4375 42.328125 
Q 41.84375 43.5 37.984375 43.5 
Q 30.671875 43.5 26.59375 39.234375 
Q 22.515625 34.96875 22.515625 27.296875 
Q 22.515625 19.625 26.59375 15.34375 
Q 30.671875 11.078125 37.984375 11.078125 
Q 42.09375 11.078125 45.78125 12.296875 
Q 49.46875 13.53125 52.59375 15.921875 
L 52.59375 1.609375 
Q 48.484375 0.09375 44.265625 -0.65625 
Q 40.046875 -1.421875 35.796875 -1.421875 
Q 21 -1.421875 12.640625 6.171875 
Q 4.296875 13.765625 4.296875 27.296875 
Q 4.296875 40.828125 12.640625 48.40625 
Q 21 56 35.796875 56 
Q 40.09375 56 44.265625 55.25 
Q 48.4375 54.5 52.59375 52.984375 
z
" id="DejaVuSans-Bold-99"/>
       <path d="M 1.515625 54.6875 
L 19 54.6875 
L 32.625 16.890625 
L 46.1875 54.6875 
L 63.71875 54.6875 
L 42.1875 0 
L 23 0 
z
" id="DejaVuSans-Bold-118"/>
       <path d="M 32.90625 24.609375 
Q 27.4375 24.609375 24.671875 22.75 
Q 21.921875 20.90625 21.921875 17.28125 
Q 21.921875 13.96875 24.140625 12.078125 
Q 26.375 10.203125 30.328125 10.203125 
Q 35.25 10.203125 38.625 13.734375 
Q 42 17.28125 42 22.609375 
L 42 24.609375 
z
M 59.625 31.203125 
L 59.625 0 
L 42 0 
L 42 8.109375 
Q 38.484375 3.125 34.078125 0.84375 
Q 29.6875 -1.421875 23.390625 -1.421875 
Q 14.890625 -1.421875 9.59375 3.53125 
Q 4.296875 8.5 4.296875 16.40625 
Q 4.296875 26.03125 10.90625 30.515625 
Q 17.53125 35.015625 31.6875 35.015625 
L 42 35.015625 
L 42 36.375 
Q 42 40.53125 38.71875 42.453125 
Q 35.453125 44.390625 28.515625 44.390625 
Q 22.90625 44.390625 18.0625 43.265625 
Q 13.234375 42.140625 9.078125 39.890625 
L 9.078125 53.21875 
Q 14.703125 54.59375 20.359375 55.296875 
Q 26.03125 56 31.6875 56 
Q 46.484375 56 53.046875 50.171875 
Q 59.625 44.34375 59.625 31.203125 
z
" id="DejaVuSans-Bold-97"/>
       <path d="M 8.40625 75.984375 
L 25.875 75.984375 
L 25.875 0 
L 8.40625 0 
z
" id="DejaVuSans-Bold-108"/>
       <path d="M 37.5 11.28125 
Q 43.109375 11.28125 46.0625 15.375 
Q 49.03125 19.484375 49.03125 27.296875 
Q 49.03125 35.109375 46.0625 39.203125 
Q 43.109375 43.3125 37.5 43.3125 
Q 31.890625 43.3125 28.875 39.1875 
Q 25.875 35.0625 25.875 27.296875 
Q 25.875 19.53125 28.875 15.40625 
Q 31.890625 11.28125 37.5 11.28125 
z
M 25.875 46.6875 
Q 29.5 51.46875 33.890625 53.734375 
Q 38.28125 56 44 56 
Q 54.109375 56 60.59375 47.96875 
Q 67.09375 39.9375 67.09375 27.296875 
Q 67.09375 14.65625 60.59375 6.609375 
Q 54.109375 -1.421875 44 -1.421875 
Q 38.28125 -1.421875 33.890625 0.84375 
Q 29.5 3.125 25.875 7.90625 
L 25.875 0 
L 8.40625 0 
L 8.40625 75.984375 
L 25.875 75.984375 
z
" id="DejaVuSans-Bold-98"/>
      </defs>
      <use xlink:href="#DejaVuSans-Bold-79"/>
      <use x="85.009766" xlink:href="#DejaVuSans-Bold-102"/>
      <use x="128.515625" xlink:href="#DejaVuSans-Bold-102"/>
      <use x="172.021484" xlink:href="#DejaVuSans-Bold-115"/>
      <use x="231.542969" xlink:href="#DejaVuSans-Bold-101"/>
      <use x="299.365234" xlink:href="#DejaVuSans-Bold-116"/>
      <use x="347.167969" xlink:href="#DejaVuSans-Bold-32"/>
      <use x="381.982422" xlink:href="#DejaVuSans-Bold-99"/>
      <use x="441.259766" xlink:href="#DejaVuSans-Bold-111"/>
      <use x="509.960938" xlink:href="#DejaVuSans-Bold-115"/>
      <use x="569.482422" xlink:href="#DejaVuSans-Bold-116"/>
      <use x="617.285156" xlink:href="#DejaVuSans-Bold-32"/>
      <use x="652.099609" xlink:href="#DejaVuSans-Bold-118"/>
      <use x="717.285156" xlink:href="#DejaVuSans-Bold-97"/>
      <use x="784.765625" xlink:href="#DejaVuSans-Bold-108"/>
      <use x="819.042969" xlink:href="#DejaVuSans-Bold-117"/>
      <use x="890.234375" xlink:href="#DejaVuSans-Bold-101"/>
      <use x="958.056641" xlink:href="#DejaVuSans-Bold-32"/>
      <use x="992.871094" xlink:href="#DejaVuSans-Bold-40"/>
      <use x="1038.574219" xlink:href="#DejaVuSans-Bold-114"/>
      <use x="1087.890625" xlink:href="#DejaVuSans-Bold-101"/>
      <use x="1155.712891" xlink:href="#DejaVuSans-Bold-108"/>
      <use x="1189.990234" xlink:href="#DejaVuSans-Bold-97"/>
      <use x="1257.470703" xlink:href="#DejaVuSans-Bold-116"/>
      <use x="1305.273438" xlink:href="#DejaVuSans-Bold-105"/>
      <use x="1339.550781" xlink:href="#DejaVuSans-Bold-118"/>
      <use x="1404.736328" xlink:href="#DejaVuSans-Bold-101"/>
      <use x="1472.558594" xlink:href="#DejaVuSans-Bold-32"/>
      <use x="1507.373047" xlink:href="#DejaVuSans-Bold-116"/>
      <use x="1555.175781" xlink:href="#DejaVuSans-Bold-111"/>
      <use x="1623.876953" xlink:href="#DejaVuSans-Bold-32"/>
      <use x="1658.691406" xlink:href="#DejaVuSans-Bold-98"/>
      <use x="1730.273438" xlink:href="#DejaVuSans-Bold-101"/>
      <use x="1798.095703" xlink:href="#DejaVuSans-Bold-115"/>
      <use x="1857.617188" xlink:href="#DejaVuSans-Bold-116"/>
      <use x="1905.419922" xlink:href="#DejaVuSans-Bold-32"/>
      <use x="1940.234375" xlink:href="#DejaVuSans-Bold-115"/>
      <use x="1999.755859" xlink:href="#DejaVuSans-Bold-116"/>
      <use x="2047.558594" xlink:href="#DejaVuSans-Bold-97"/>
      <use x="2115.039062" xlink:href="#DejaVuSans-Bold-114"/>
      <use x="2164.355469" xlink:href="#DejaVuSans-Bold-116"/>
      <use x="2212.158203" xlink:href="#DejaVuSans-Bold-41"/>
     </g>
    </g>
   </g>
   <g id="line2d_32">
    <path clip-path="url(#p3093603c50)" d="M 83.454545 311.236364 
L 84.374589 309.46341 
L 85.294633 306.547534 
L 86.214677 305.732013 
L 87.134721 305.672635 
L 88.974808 305.305297 
L 89.894852 304.917828 
L 90.814896 303.221881 
L 91.73494 302.622787 
L 92.654984 300.348815 
L 93.575027 300.13342 
L 94.495071 299.625815 
L 95.415115 299.297544 
L 96.335159 298.501543 
L 97.255203 297.469365 
L 98.175246 280.665431 
L 99.09529 279.787843 
L 100.935378 279.499668 
L 101.855422 279.077649 
L 102.775465 279.007327 
L 103.695509 278.466006 
L 104.615553 277.713308 
L 105.535597 277.712162 
L 106.455641 277.551141 
L 109.215772 277.386679 
L 112.895947 277.139 
L 119.336254 276.934018 
L 122.096386 276.625661 
L 123.016429 276.401889 
L 123.936473 276.329 
L 124.856517 276.100893 
L 125.776561 276.061949 
L 126.696605 275.799881 
L 128.536692 275.681644 
L 129.456736 275.393718 
L 133.136911 275.263779 
L 134.976999 275.120909 
L 136.817087 274.627832 
L 137.73713 274.594816 
L 138.657174 274.069994 
L 139.577218 273.325828 
L 141.417306 273.287934 
L 142.337349 272.825484 
L 143.257393 272.121542 
L 144.177437 271.794686 
L 146.937568 271.693391 
L 147.857612 270.993418 
L 149.6977 270.359344 
L 152.457831 270.071883 
L 153.377875 269.708776 
L 155.217963 269.653421 
L 157.978094 269.437688 
L 163.498357 269.228975 
L 173.618839 268.799214 
L 175.458927 268.547636 
L 180.979189 268.214842 
L 182.819277 267.985325 
L 190.179628 267.724272 
L 193.859803 267.696204 
L 195.69989 267.582308 
L 198.460022 267.498016 
L 199.380066 267.355731 
L 201.220153 267.317118 
L 202.140197 267.107026 
L 203.060241 267.095409 
L 203.980285 266.698053 
L 204.900329 266.445671 
L 205.820372 266.433066 
L 207.66046 266.29583 
L 208.580504 265.904067 
L 210.420591 265.813471 
L 211.340635 264.079825 
L 212.260679 262.685363 
L 213.180723 262.488039 
L 214.100767 260.418906 
L 215.020811 259.997021 
L 215.940854 258.791948 
L 218.700986 256.973481 
L 219.62103 256.223881 
L 222.381161 256.088418 
L 223.301205 254.995621 
L 224.221249 254.967541 
L 225.141292 254.761094 
L 226.061336 253.924823 
L 232.501643 253.324237 
L 233.421687 252.478001 
L 236.181818 252.274783 
L 237.101862 251.324143 
L 238.021906 249.839126 
L 241.702081 249.283009 
L 242.622125 248.956121 
L 243.542169 248.931783 
L 244.462212 248.781358 
L 245.382256 248.378259 
L 249.062432 248.063818 
L 250.902519 247.792423 
L 251.822563 229.509153 
L 252.742607 229.391451 
L 253.662651 229.153413 
L 254.582694 229.151247 
L 258.26287 228.631175 
L 259.182913 227.230064 
L 260.102957 222.313119 
L 261.023001 221.841 
L 262.863089 221.629475 
L 263.783133 221.279831 
L 264.703176 221.178649 
L 265.62322 220.762033 
L 267.463308 220.677539 
L 269.303395 220.204891 
L 272.063527 220.109314 
L 272.983571 191.624832 
L 273.903614 136.32855 
L 304.26506 135.991444 
L 307.025192 135.939569 
L 309.785323 135.879263 
L 310.705367 135.779788 
L 311.625411 57.72008 
L 312.545455 55.963636 
L 312.545455 55.963636 
" style="fill:none;stroke:#000000;stroke-linecap:square;stroke-width:1.5;"/>
    <defs>
     <path d="M 0 3 
C 0.795609 3 1.55874 2.683901 2.12132 2.12132 
C 2.683901 1.55874 3 0.795609 3 0 
C 3 -0.795609 2.683901 -1.55874 2.12132 -2.12132 
C 1.55874 -2.683901 0.795609 -3 0 -3 
C -0.795609 -3 -1.55874 -2.683901 -2.12132 -2.12132 
C -2.683901 -1.55874 -3 -0.795609 -3 0 
C -3 0.795609 -2.683901 1.55874 -2.12132 2.12132 
C -1.55874 2.683901 -0.795609 3 0 3 
z
" id="m47fcfce005" style="stroke:#000000;"/>
    </defs>
    <g clip-path="url(#p3093603c50)">
     <use style="stroke:#000000;" x="83.454545" xlink:href="#m47fcfce005" y="311.236364"/>
     <use style="stroke:#000000;" x="84.374589" xlink:href="#m47fcfce005" y="309.46341"/>
     <use style="stroke:#000000;" x="85.294633" xlink:href="#m47fcfce005" y="306.547534"/>
     <use style="stroke:#000000;" x="86.214677" xlink:href="#m47fcfce005" y="305.732013"/>
     <use style="stroke:#000000;" x="87.134721" xlink:href="#m47fcfce005" y="305.672635"/>
     <use style="stroke:#000000;" x="88.054765" xlink:href="#m47fcfce005" y="305.485941"/>
     <use style="stroke:#000000;" x="88.974808" xlink:href="#m47fcfce005" y="305.305297"/>
     <use style="stroke:#000000;" x="89.894852" xlink:href="#m47fcfce005" y="304.917828"/>
     <use style="stroke:#000000;" x="90.814896" xlink:href="#m47fcfce005" y="303.221881"/>
     <use style="stroke:#000000;" x="91.73494" xlink:href="#m47fcfce005" y="302.622787"/>
     <use style="stroke:#000000;" x="92.654984" xlink:href="#m47fcfce005" y="300.348815"/>
     <use style="stroke:#000000;" x="93.575027" xlink:href="#m47fcfce005" y="300.13342"/>
     <use style="stroke:#000000;" x="94.495071" xlink:href="#m47fcfce005" y="299.625815"/>
     <use style="stroke:#000000;" x="95.415115" xlink:href="#m47fcfce005" y="299.297544"/>
     <use style="stroke:#000000;" x="96.335159" xlink:href="#m47fcfce005" y="298.501543"/>
     <use style="stroke:#000000;" x="97.255203" xlink:href="#m47fcfce005" y="297.469365"/>
     <use style="stroke:#000000;" x="98.175246" xlink:href="#m47fcfce005" y="280.665431"/>
     <use style="stroke:#000000;" x="99.09529" xlink:href="#m47fcfce005" y="279.787843"/>
     <use style="stroke:#000000;" x="100.015334" xlink:href="#m47fcfce005" y="279.678782"/>
     <use style="stroke:#000000;" x="100.935378" xlink:href="#m47fcfce005" y="279.499668"/>
     <use style="stroke:#000000;" x="101.855422" xlink:href="#m47fcfce005" y="279.077649"/>
     <use style="stroke:#000000;" x="102.775465" xlink:href="#m47fcfce005" y="279.007327"/>
     <use style="stroke:#000000;" x="103.695509" xlink:href="#m47fcfce005" y="278.466006"/>
     <use style="stroke:#000000;" x="104.615553" xlink:href="#m47fcfce005" y="277.713308"/>
     <use style="stroke:#000000;" x="105.535597" xlink:href="#m47fcfce005" y="277.712162"/>
     <use style="stroke:#000000;" x="106.455641" xlink:href="#m47fcfce005" y="277.551141"/>
     <use style="stroke:#000000;" x="107.375685" xlink:href="#m47fcfce005" y="277.526156"/>
     <use style="stroke:#000000;" x="108.295728" xlink:href="#m47fcfce005" y="277.466901"/>
     <use style="stroke:#000000;" x="109.215772" xlink:href="#m47fcfce005" y="277.386679"/>
     <use style="stroke:#000000;" x="110.135816" xlink:href="#m47fcfce005" y="277.302772"/>
     <use style="stroke:#000000;" x="111.05586" xlink:href="#m47fcfce005" y="277.178974"/>
     <use style="stroke:#000000;" x="111.975904" xlink:href="#m47fcfce005" y="277.156725"/>
     <use style="stroke:#000000;" x="112.895947" xlink:href="#m47fcfce005" y="277.139"/>
     <use style="stroke:#000000;" x="113.815991" xlink:href="#m47fcfce005" y="277.125187"/>
     <use style="stroke:#000000;" x="114.736035" xlink:href="#m47fcfce005" y="277.125161"/>
     <use style="stroke:#000000;" x="115.656079" xlink:href="#m47fcfce005" y="277.100805"/>
     <use style="stroke:#000000;" x="116.576123" xlink:href="#m47fcfce005" y="277.035271"/>
     <use style="stroke:#000000;" x="117.496166" xlink:href="#m47fcfce005" y="277.000749"/>
     <use style="stroke:#000000;" x="118.41621" xlink:href="#m47fcfce005" y="276.998418"/>
     <use style="stroke:#000000;" x="119.336254" xlink:href="#m47fcfce005" y="276.934018"/>
     <use style="stroke:#000000;" x="120.256298" xlink:href="#m47fcfce005" y="276.854104"/>
     <use style="stroke:#000000;" x="121.176342" xlink:href="#m47fcfce005" y="276.706811"/>
     <use style="stroke:#000000;" x="122.096386" xlink:href="#m47fcfce005" y="276.625661"/>
     <use style="stroke:#000000;" x="123.016429" xlink:href="#m47fcfce005" y="276.401889"/>
     <use style="stroke:#000000;" x="123.936473" xlink:href="#m47fcfce005" y="276.329"/>
     <use style="stroke:#000000;" x="124.856517" xlink:href="#m47fcfce005" y="276.100893"/>
     <use style="stroke:#000000;" x="125.776561" xlink:href="#m47fcfce005" y="276.061949"/>
     <use style="stroke:#000000;" x="126.696605" xlink:href="#m47fcfce005" y="275.799881"/>
     <use style="stroke:#000000;" x="127.616648" xlink:href="#m47fcfce005" y="275.784456"/>
     <use style="stroke:#000000;" x="128.536692" xlink:href="#m47fcfce005" y="275.681644"/>
     <use style="stroke:#000000;" x="129.456736" xlink:href="#m47fcfce005" y="275.393718"/>
     <use style="stroke:#000000;" x="130.37678" xlink:href="#m47fcfce005" y="275.333408"/>
     <use style="stroke:#000000;" x="131.296824" xlink:href="#m47fcfce005" y="275.310336"/>
     <use style="stroke:#000000;" x="132.216867" xlink:href="#m47fcfce005" y="275.295017"/>
     <use style="stroke:#000000;" x="133.136911" xlink:href="#m47fcfce005" y="275.263779"/>
     <use style="stroke:#000000;" x="134.056955" xlink:href="#m47fcfce005" y="275.218171"/>
     <use style="stroke:#000000;" x="134.976999" xlink:href="#m47fcfce005" y="275.120909"/>
     <use style="stroke:#000000;" x="135.897043" xlink:href="#m47fcfce005" y="274.876212"/>
     <use style="stroke:#000000;" x="136.817087" xlink:href="#m47fcfce005" y="274.627832"/>
     <use style="stroke:#000000;" x="137.73713" xlink:href="#m47fcfce005" y="274.594816"/>
     <use style="stroke:#000000;" x="138.657174" xlink:href="#m47fcfce005" y="274.069994"/>
     <use style="stroke:#000000;" x="139.577218" xlink:href="#m47fcfce005" y="273.325828"/>
     <use style="stroke:#000000;" x="140.497262" xlink:href="#m47fcfce005" y="273.309725"/>
     <use style="stroke:#000000;" x="141.417306" xlink:href="#m47fcfce005" y="273.287934"/>
     <use style="stroke:#000000;" x="142.337349" xlink:href="#m47fcfce005" y="272.825484"/>
     <use style="stroke:#000000;" x="143.257393" xlink:href="#m47fcfce005" y="272.121542"/>
     <use style="stroke:#000000;" x="144.177437" xlink:href="#m47fcfce005" y="271.794686"/>
     <use style="stroke:#000000;" x="145.097481" xlink:href="#m47fcfce005" y="271.753547"/>
     <use style="stroke:#000000;" x="146.017525" xlink:href="#m47fcfce005" y="271.752355"/>
     <use style="stroke:#000000;" x="146.937568" xlink:href="#m47fcfce005" y="271.693391"/>
     <use style="stroke:#000000;" x="147.857612" xlink:href="#m47fcfce005" y="270.993418"/>
     <use style="stroke:#000000;" x="148.777656" xlink:href="#m47fcfce005" y="270.641499"/>
     <use style="stroke:#000000;" x="149.6977" xlink:href="#m47fcfce005" y="270.359344"/>
     <use style="stroke:#000000;" x="150.617744" xlink:href="#m47fcfce005" y="270.273645"/>
     <use style="stroke:#000000;" x="151.537788" xlink:href="#m47fcfce005" y="270.126957"/>
     <use style="stroke:#000000;" x="152.457831" xlink:href="#m47fcfce005" y="270.071883"/>
     <use style="stroke:#000000;" x="153.377875" xlink:href="#m47fcfce005" y="269.708776"/>
     <use style="stroke:#000000;" x="154.297919" xlink:href="#m47fcfce005" y="269.703099"/>
     <use style="stroke:#000000;" x="155.217963" xlink:href="#m47fcfce005" y="269.653421"/>
     <use style="stroke:#000000;" x="156.138007" xlink:href="#m47fcfce005" y="269.556528"/>
     <use style="stroke:#000000;" x="157.05805" xlink:href="#m47fcfce005" y="269.498877"/>
     <use style="stroke:#000000;" x="157.978094" xlink:href="#m47fcfce005" y="269.437688"/>
     <use style="stroke:#000000;" x="158.898138" xlink:href="#m47fcfce005" y="269.385627"/>
     <use style="stroke:#000000;" x="159.818182" xlink:href="#m47fcfce005" y="269.363653"/>
     <use style="stroke:#000000;" x="160.738226" xlink:href="#m47fcfce005" y="269.333893"/>
     <use style="stroke:#000000;" x="161.658269" xlink:href="#m47fcfce005" y="269.28175"/>
     <use style="stroke:#000000;" x="162.578313" xlink:href="#m47fcfce005" y="269.247442"/>
     <use style="stroke:#000000;" x="163.498357" xlink:href="#m47fcfce005" y="269.228975"/>
     <use style="stroke:#000000;" x="164.418401" xlink:href="#m47fcfce005" y="269.194635"/>
     <use style="stroke:#000000;" x="165.338445" xlink:href="#m47fcfce005" y="269.169732"/>
     <use style="stroke:#000000;" x="166.258488" xlink:href="#m47fcfce005" y="269.140958"/>
     <use style="stroke:#000000;" x="167.178532" xlink:href="#m47fcfce005" y="269.136006"/>
     <use style="stroke:#000000;" x="168.098576" xlink:href="#m47fcfce005" y="269.113673"/>
     <use style="stroke:#000000;" x="169.01862" xlink:href="#m47fcfce005" y="269.067708"/>
     <use style="stroke:#000000;" x="169.938664" xlink:href="#m47fcfce005" y="269.066254"/>
     <use style="stroke:#000000;" x="170.858708" xlink:href="#m47fcfce005" y="268.953948"/>
     <use style="stroke:#000000;" x="171.778751" xlink:href="#m47fcfce005" y="268.868063"/>
     <use style="stroke:#000000;" x="172.698795" xlink:href="#m47fcfce005" y="268.802697"/>
     <use style="stroke:#000000;" x="173.618839" xlink:href="#m47fcfce005" y="268.799214"/>
     <use style="stroke:#000000;" x="174.538883" xlink:href="#m47fcfce005" y="268.624144"/>
     <use style="stroke:#000000;" x="175.458927" xlink:href="#m47fcfce005" y="268.547636"/>
     <use style="stroke:#000000;" x="176.37897" xlink:href="#m47fcfce005" y="268.505019"/>
     <use style="stroke:#000000;" x="177.299014" xlink:href="#m47fcfce005" y="268.495182"/>
     <use style="stroke:#000000;" x="178.219058" xlink:href="#m47fcfce005" y="268.320279"/>
     <use style="stroke:#000000;" x="179.139102" xlink:href="#m47fcfce005" y="268.304725"/>
     <use style="stroke:#000000;" x="180.059146" xlink:href="#m47fcfce005" y="268.30313"/>
     <use style="stroke:#000000;" x="180.979189" xlink:href="#m47fcfce005" y="268.214842"/>
     <use style="stroke:#000000;" x="181.899233" xlink:href="#m47fcfce005" y="268.073493"/>
     <use style="stroke:#000000;" x="182.819277" xlink:href="#m47fcfce005" y="267.985325"/>
     <use style="stroke:#000000;" x="183.739321" xlink:href="#m47fcfce005" y="267.938951"/>
     <use style="stroke:#000000;" x="184.659365" xlink:href="#m47fcfce005" y="267.922672"/>
     <use style="stroke:#000000;" x="185.579409" xlink:href="#m47fcfce005" y="267.849509"/>
     <use style="stroke:#000000;" x="186.499452" xlink:href="#m47fcfce005" y="267.818305"/>
     <use style="stroke:#000000;" x="187.419496" xlink:href="#m47fcfce005" y="267.814758"/>
     <use style="stroke:#000000;" x="188.33954" xlink:href="#m47fcfce005" y="267.809517"/>
     <use style="stroke:#000000;" x="189.259584" xlink:href="#m47fcfce005" y="267.728459"/>
     <use style="stroke:#000000;" x="190.179628" xlink:href="#m47fcfce005" y="267.724272"/>
     <use style="stroke:#000000;" x="191.099671" xlink:href="#m47fcfce005" y="267.722995"/>
     <use style="stroke:#000000;" x="192.019715" xlink:href="#m47fcfce005" y="267.71905"/>
     <use style="stroke:#000000;" x="192.939759" xlink:href="#m47fcfce005" y="267.716174"/>
     <use style="stroke:#000000;" x="193.859803" xlink:href="#m47fcfce005" y="267.696204"/>
     <use style="stroke:#000000;" x="194.779847" xlink:href="#m47fcfce005" y="267.603529"/>
     <use style="stroke:#000000;" x="195.69989" xlink:href="#m47fcfce005" y="267.582308"/>
     <use style="stroke:#000000;" x="196.619934" xlink:href="#m47fcfce005" y="267.555131"/>
     <use style="stroke:#000000;" x="197.539978" xlink:href="#m47fcfce005" y="267.537724"/>
     <use style="stroke:#000000;" x="198.460022" xlink:href="#m47fcfce005" y="267.498016"/>
     <use style="stroke:#000000;" x="199.380066" xlink:href="#m47fcfce005" y="267.355731"/>
     <use style="stroke:#000000;" x="200.30011" xlink:href="#m47fcfce005" y="267.33971"/>
     <use style="stroke:#000000;" x="201.220153" xlink:href="#m47fcfce005" y="267.317118"/>
     <use style="stroke:#000000;" x="202.140197" xlink:href="#m47fcfce005" y="267.107026"/>
     <use style="stroke:#000000;" x="203.060241" xlink:href="#m47fcfce005" y="267.095409"/>
     <use style="stroke:#000000;" x="203.980285" xlink:href="#m47fcfce005" y="266.698053"/>
     <use style="stroke:#000000;" x="204.900329" xlink:href="#m47fcfce005" y="266.445671"/>
     <use style="stroke:#000000;" x="205.820372" xlink:href="#m47fcfce005" y="266.433066"/>
     <use style="stroke:#000000;" x="206.740416" xlink:href="#m47fcfce005" y="266.30853"/>
     <use style="stroke:#000000;" x="207.66046" xlink:href="#m47fcfce005" y="266.29583"/>
     <use style="stroke:#000000;" x="208.580504" xlink:href="#m47fcfce005" y="265.904067"/>
     <use style="stroke:#000000;" x="209.500548" xlink:href="#m47fcfce005" y="265.851424"/>
     <use style="stroke:#000000;" x="210.420591" xlink:href="#m47fcfce005" y="265.813471"/>
     <use style="stroke:#000000;" x="211.340635" xlink:href="#m47fcfce005" y="264.079825"/>
     <use style="stroke:#000000;" x="212.260679" xlink:href="#m47fcfce005" y="262.685363"/>
     <use style="stroke:#000000;" x="213.180723" xlink:href="#m47fcfce005" y="262.488039"/>
     <use style="stroke:#000000;" x="214.100767" xlink:href="#m47fcfce005" y="260.418906"/>
     <use style="stroke:#000000;" x="215.020811" xlink:href="#m47fcfce005" y="259.997021"/>
     <use style="stroke:#000000;" x="215.940854" xlink:href="#m47fcfce005" y="258.791948"/>
     <use style="stroke:#000000;" x="216.860898" xlink:href="#m47fcfce005" y="258.183959"/>
     <use style="stroke:#000000;" x="217.780942" xlink:href="#m47fcfce005" y="257.478158"/>
     <use style="stroke:#000000;" x="218.700986" xlink:href="#m47fcfce005" y="256.973481"/>
     <use style="stroke:#000000;" x="219.62103" xlink:href="#m47fcfce005" y="256.223881"/>
     <use style="stroke:#000000;" x="220.541073" xlink:href="#m47fcfce005" y="256.165392"/>
     <use style="stroke:#000000;" x="221.461117" xlink:href="#m47fcfce005" y="256.09274"/>
     <use style="stroke:#000000;" x="222.381161" xlink:href="#m47fcfce005" y="256.088418"/>
     <use style="stroke:#000000;" x="223.301205" xlink:href="#m47fcfce005" y="254.995621"/>
     <use style="stroke:#000000;" x="224.221249" xlink:href="#m47fcfce005" y="254.967541"/>
     <use style="stroke:#000000;" x="225.141292" xlink:href="#m47fcfce005" y="254.761094"/>
     <use style="stroke:#000000;" x="226.061336" xlink:href="#m47fcfce005" y="253.924823"/>
     <use style="stroke:#000000;" x="226.98138" xlink:href="#m47fcfce005" y="253.838593"/>
     <use style="stroke:#000000;" x="227.901424" xlink:href="#m47fcfce005" y="253.821376"/>
     <use style="stroke:#000000;" x="228.821468" xlink:href="#m47fcfce005" y="253.597335"/>
     <use style="stroke:#000000;" x="229.741512" xlink:href="#m47fcfce005" y="253.584822"/>
     <use style="stroke:#000000;" x="230.661555" xlink:href="#m47fcfce005" y="253.536363"/>
     <use style="stroke:#000000;" x="231.581599" xlink:href="#m47fcfce005" y="253.37318"/>
     <use style="stroke:#000000;" x="232.501643" xlink:href="#m47fcfce005" y="253.324237"/>
     <use style="stroke:#000000;" x="233.421687" xlink:href="#m47fcfce005" y="252.478001"/>
     <use style="stroke:#000000;" x="234.341731" xlink:href="#m47fcfce005" y="252.383274"/>
     <use style="stroke:#000000;" x="235.261774" xlink:href="#m47fcfce005" y="252.31751"/>
     <use style="stroke:#000000;" x="236.181818" xlink:href="#m47fcfce005" y="252.274783"/>
     <use style="stroke:#000000;" x="237.101862" xlink:href="#m47fcfce005" y="251.324143"/>
     <use style="stroke:#000000;" x="238.021906" xlink:href="#m47fcfce005" y="249.839126"/>
     <use style="stroke:#000000;" x="238.94195" xlink:href="#m47fcfce005" y="249.706224"/>
     <use style="stroke:#000000;" x="239.861993" xlink:href="#m47fcfce005" y="249.615477"/>
     <use style="stroke:#000000;" x="240.782037" xlink:href="#m47fcfce005" y="249.539873"/>
     <use style="stroke:#000000;" x="241.702081" xlink:href="#m47fcfce005" y="249.283009"/>
     <use style="stroke:#000000;" x="242.622125" xlink:href="#m47fcfce005" y="248.956121"/>
     <use style="stroke:#000000;" x="243.542169" xlink:href="#m47fcfce005" y="248.931783"/>
     <use style="stroke:#000000;" x="244.462212" xlink:href="#m47fcfce005" y="248.781358"/>
     <use style="stroke:#000000;" x="245.382256" xlink:href="#m47fcfce005" y="248.378259"/>
     <use style="stroke:#000000;" x="246.3023" xlink:href="#m47fcfce005" y="248.319324"/>
     <use style="stroke:#000000;" x="247.222344" xlink:href="#m47fcfce005" y="248.227272"/>
     <use style="stroke:#000000;" x="248.142388" xlink:href="#m47fcfce005" y="248.214862"/>
     <use style="stroke:#000000;" x="249.062432" xlink:href="#m47fcfce005" y="248.063818"/>
     <use style="stroke:#000000;" x="249.982475" xlink:href="#m47fcfce005" y="247.886669"/>
     <use style="stroke:#000000;" x="250.902519" xlink:href="#m47fcfce005" y="247.792423"/>
     <use style="stroke:#000000;" x="251.822563" xlink:href="#m47fcfce005" y="229.509153"/>
     <use style="stroke:#000000;" x="252.742607" xlink:href="#m47fcfce005" y="229.391451"/>
     <use style="stroke:#000000;" x="253.662651" xlink:href="#m47fcfce005" y="229.153413"/>
     <use style="stroke:#000000;" x="254.582694" xlink:href="#m47fcfce005" y="229.151247"/>
     <use style="stroke:#000000;" x="255.502738" xlink:href="#m47fcfce005" y="229.035809"/>
     <use style="stroke:#000000;" x="256.422782" xlink:href="#m47fcfce005" y="228.94795"/>
     <use style="stroke:#000000;" x="257.342826" xlink:href="#m47fcfce005" y="228.774421"/>
     <use style="stroke:#000000;" x="258.26287" xlink:href="#m47fcfce005" y="228.631175"/>
     <use style="stroke:#000000;" x="259.182913" xlink:href="#m47fcfce005" y="227.230064"/>
     <use style="stroke:#000000;" x="260.102957" xlink:href="#m47fcfce005" y="222.313119"/>
     <use style="stroke:#000000;" x="261.023001" xlink:href="#m47fcfce005" y="221.841"/>
     <use style="stroke:#000000;" x="261.943045" xlink:href="#m47fcfce005" y="221.771592"/>
     <use style="stroke:#000000;" x="262.863089" xlink:href="#m47fcfce005" y="221.629475"/>
     <use style="stroke:#000000;" x="263.783133" xlink:href="#m47fcfce005" y="221.279831"/>
     <use style="stroke:#000000;" x="264.703176" xlink:href="#m47fcfce005" y="221.178649"/>
     <use style="stroke:#000000;" x="265.62322" xlink:href="#m47fcfce005" y="220.762033"/>
     <use style="stroke:#000000;" x="266.543264" xlink:href="#m47fcfce005" y="220.7013"/>
     <use style="stroke:#000000;" x="267.463308" xlink:href="#m47fcfce005" y="220.677539"/>
     <use style="stroke:#000000;" x="268.383352" xlink:href="#m47fcfce005" y="220.429993"/>
     <use style="stroke:#000000;" x="269.303395" xlink:href="#m47fcfce005" y="220.204891"/>
     <use style="stroke:#000000;" x="270.223439" xlink:href="#m47fcfce005" y="220.197811"/>
     <use style="stroke:#000000;" x="271.143483" xlink:href="#m47fcfce005" y="220.168698"/>
     <use style="stroke:#000000;" x="272.063527" xlink:href="#m47fcfce005" y="220.109314"/>
     <use style="stroke:#000000;" x="272.983571" xlink:href="#m47fcfce005" y="191.624832"/>
     <use style="stroke:#000000;" x="273.903614" xlink:href="#m47fcfce005" y="136.32855"/>
     <use style="stroke:#000000;" x="274.823658" xlink:href="#m47fcfce005" y="136.321454"/>
     <use style="stroke:#000000;" x="275.743702" xlink:href="#m47fcfce005" y="136.297759"/>
     <use style="stroke:#000000;" x="276.663746" xlink:href="#m47fcfce005" y="136.286684"/>
     <use style="stroke:#000000;" x="277.58379" xlink:href="#m47fcfce005" y="136.281647"/>
     <use style="stroke:#000000;" x="278.503834" xlink:href="#m47fcfce005" y="136.255351"/>
     <use style="stroke:#000000;" x="279.423877" xlink:href="#m47fcfce005" y="136.251644"/>
     <use style="stroke:#000000;" x="280.343921" xlink:href="#m47fcfce005" y="136.245626"/>
     <use style="stroke:#000000;" x="281.263965" xlink:href="#m47fcfce005" y="136.22316"/>
     <use style="stroke:#000000;" x="282.184009" xlink:href="#m47fcfce005" y="136.206719"/>
     <use style="stroke:#000000;" x="283.104053" xlink:href="#m47fcfce005" y="136.206351"/>
     <use style="stroke:#000000;" x="284.024096" xlink:href="#m47fcfce005" y="136.204627"/>
     <use style="stroke:#000000;" x="284.94414" xlink:href="#m47fcfce005" y="136.203836"/>
     <use style="stroke:#000000;" x="285.864184" xlink:href="#m47fcfce005" y="136.196795"/>
     <use style="stroke:#000000;" x="286.784228" xlink:href="#m47fcfce005" y="136.191815"/>
     <use style="stroke:#000000;" x="287.704272" xlink:href="#m47fcfce005" y="136.190364"/>
     <use style="stroke:#000000;" x="288.624315" xlink:href="#m47fcfce005" y="136.182559"/>
     <use style="stroke:#000000;" x="289.544359" xlink:href="#m47fcfce005" y="136.182425"/>
     <use style="stroke:#000000;" x="290.464403" xlink:href="#m47fcfce005" y="136.175336"/>
     <use style="stroke:#000000;" x="291.384447" xlink:href="#m47fcfce005" y="136.163584"/>
     <use style="stroke:#000000;" x="292.304491" xlink:href="#m47fcfce005" y="136.161905"/>
     <use style="stroke:#000000;" x="293.224535" xlink:href="#m47fcfce005" y="136.161447"/>
     <use style="stroke:#000000;" x="294.144578" xlink:href="#m47fcfce005" y="136.142552"/>
     <use style="stroke:#000000;" x="295.064622" xlink:href="#m47fcfce005" y="136.140552"/>
     <use style="stroke:#000000;" x="295.984666" xlink:href="#m47fcfce005" y="136.123428"/>
     <use style="stroke:#000000;" x="296.90471" xlink:href="#m47fcfce005" y="136.121769"/>
     <use style="stroke:#000000;" x="297.824754" xlink:href="#m47fcfce005" y="136.117416"/>
     <use style="stroke:#000000;" x="298.744797" xlink:href="#m47fcfce005" y="136.108494"/>
     <use style="stroke:#000000;" x="299.664841" xlink:href="#m47fcfce005" y="136.102374"/>
     <use style="stroke:#000000;" x="300.584885" xlink:href="#m47fcfce005" y="136.09127"/>
     <use style="stroke:#000000;" x="301.504929" xlink:href="#m47fcfce005" y="136.043723"/>
     <use style="stroke:#000000;" x="302.424973" xlink:href="#m47fcfce005" y="136.037757"/>
     <use style="stroke:#000000;" x="303.345016" xlink:href="#m47fcfce005" y="136.026495"/>
     <use style="stroke:#000000;" x="304.26506" xlink:href="#m47fcfce005" y="135.991444"/>
     <use style="stroke:#000000;" x="305.185104" xlink:href="#m47fcfce005" y="135.947011"/>
     <use style="stroke:#000000;" x="306.105148" xlink:href="#m47fcfce005" y="135.941733"/>
     <use style="stroke:#000000;" x="307.025192" xlink:href="#m47fcfce005" y="135.939569"/>
     <use style="stroke:#000000;" x="307.945235" xlink:href="#m47fcfce005" y="135.939325"/>
     <use style="stroke:#000000;" x="308.865279" xlink:href="#m47fcfce005" y="135.885839"/>
     <use style="stroke:#000000;" x="309.785323" xlink:href="#m47fcfce005" y="135.879263"/>
     <use style="stroke:#000000;" x="310.705367" xlink:href="#m47fcfce005" y="135.779788"/>
     <use style="stroke:#000000;" x="311.625411" xlink:href="#m47fcfce005" y="57.72008"/>
     <use style="stroke:#000000;" x="312.545455" xlink:href="#m47fcfce005" y="55.963636"/>
    </g>
   </g>
   <g id="patch_3">
    <path d="M 72 324 
L 72 43.2 
" style="fill:none;stroke:#000000;stroke-linecap:square;stroke-linejoin:miter;stroke-width:0.8;"/>
   </g>
   <g id="patch_4">
    <path d="M 324 324 
L 324 43.2 
" style="fill:none;stroke:#000000;stroke-linecap:square;stroke-linejoin:miter;stroke-width:0.8;"/>
   </g>
   <g id="patch_5">
    <path d="M 72 324 
L 324 324 
" style="fill:none;stroke:#000000;stroke-linecap:square;stroke-linejoin:miter;stroke-width:0.8;"/>
   </g>
   <g id="patch_6">
    <path d="M 72 43.2 
L 324 43.2 
" style="fill:none;stroke:#000000;stroke-linecap:square;stroke-linejoin:miter;stroke-width:0.8;"/>
   </g>
  </g>
 </g>
 <defs>
  <clipPath id="p3093603c50">
   <rect height="280.8" width="252" x="72" y="43.2"/>
  </clipPath>
 </defs>
</svg>
